<?xml version="1.0" encoding="utf-8" standalone="no"?>
<!DOCTYPE svg PUBLIC "-//W3C//DTD SVG 1.1//EN"
  "http://www.w3.org/Graphics/SVG/1.1/DTD/svg11.dtd">
<svg xmlns:xlink="http://www.w3.org/1999/xlink" width="955.62114pt" height="639.72pt" viewBox="0 0 955.62114 639.72" xmlns="http://www.w3.org/2000/svg" version="1.1">
 <metadata>
  <rdf:RDF xmlns:dc="http://purl.org/dc/elements/1.1/" xmlns:cc="http://creativecommons.org/ns#" xmlns:rdf="http://www.w3.org/1999/02/22-rdf-syntax-ns#">
   <cc:Work>
    <dc:type rdf:resource="http://purl.org/dc/dcmitype/StillImage"/>
    <dc:date>2026-05-04T00:32:51.222181</dc:date>
    <dc:format>image/svg+xml</dc:format>
    <dc:creator>
     <cc:Agent>
      <dc:title>Matplotlib v3.10.0, https://matplotlib.org/</dc:title>
     </cc:Agent>
    </dc:creator>
   </cc:Work>
  </rdf:RDF>
 </metadata>
 <defs>
  <style type="text/css">*{stroke-linejoin: round; stroke-linecap: butt}</style>
 </defs>
 <g id="figure_1">
  <g id="patch_1">
   <path d="M 0 639.72 
L 955.62114 639.72 
L 955.62114 0 
L 0 0 
z
" style="fill: #ffffff"/>
  </g>
  <g id="axes_1">
   <g id="PathCollection_1">
    <path d="M 220.228588 217.267608 
C 222.861254 217.267608 225.386448 216.221639 227.248025 214.360062 
C 229.109602 212.498486 230.155571 209.973292 230.155571 207.340625 
C 230.155571 204.707958 229.109602 202.182764 227.248025 200.321188 
C 225.386448 198.459611 222.861254 197.413642 220.228588 197.413642 
C 217.595921 197.413642 215.070727 198.459611 213.20915 200.321188 
C 211.347574 202.182764 210.301604 204.707958 210.301604 207.340625 
C 210.301604 209.973292 211.347574 212.498486 213.20915 214.360062 
C 215.070727 216.221639 217.595921 217.267608 220.228588 217.267608 
z
" clip-path="url(#p85125dd9aa)" style="fill: #e63946; fill-opacity: 0.6; stroke: #ffffff; stroke-opacity: 0.6; stroke-width: 1.5"/>
    <path d="M 247.877351 190.768737 
C 250.506007 190.768737 253.027354 189.724361 254.886095 187.86562 
C 256.744836 186.006879 257.789212 183.485532 257.789212 180.856875 
C 257.789212 178.228219 256.744836 175.706871 254.886095 173.848131 
C 253.027354 171.98939 250.506007 170.945014 247.877351 170.945014 
C 245.248694 170.945014 242.727347 171.98939 240.868606 173.848131 
C 239.009865 175.706871 237.965489 178.228219 237.965489 180.856875 
C 237.965489 183.485532 239.009865 186.006879 240.868606 187.86562 
C 242.727347 189.724361 245.248694 190.768737 247.877351 190.768737 
z
" clip-path="url(#p85125dd9aa)" style="fill: #e63946; fill-opacity: 0.6; stroke: #ffffff; stroke-opacity: 0.6; stroke-width: 1.5"/>
    <path d="M 225.924708 173.972709 
C 228.550754 173.972709 231.069598 172.92937 232.926493 171.072474 
C 234.783388 169.215579 235.826728 166.696735 235.826728 164.070689 
C 235.826728 161.444643 234.783388 158.925799 232.926493 157.068904 
C 231.069598 155.212008 228.550754 154.168669 225.924708 154.168669 
C 223.298661 154.168669 220.779817 155.212008 218.922922 157.068904 
C 217.066027 158.925799 216.022688 161.444643 216.022688 164.070689 
C 216.022688 166.696735 217.066027 169.215579 218.922922 171.072474 
C 220.779817 172.92937 223.298661 173.972709 225.924708 173.972709 
z
" clip-path="url(#p85125dd9aa)" style="fill: #e63946; fill-opacity: 0.6; stroke: #ffffff; stroke-opacity: 0.6; stroke-width: 1.5"/>
    <path d="M 205.307272 163.646473 
C 207.932817 163.646473 210.451179 162.603333 212.307719 160.746793 
C 214.164259 158.890253 215.207399 156.371891 215.207399 153.746347 
C 215.207399 151.120803 214.164259 148.60244 212.307719 146.7459 
C 210.451179 144.88936 207.932817 143.846221 205.307272 143.846221 
C 202.681728 143.846221 200.163366 144.88936 198.306826 146.7459 
C 196.450286 148.60244 195.407146 151.120803 195.407146 153.746347 
C 195.407146 156.371891 196.450286 158.890253 198.306826 160.746793 
C 200.163366 162.603333 202.681728 163.646473 205.307272 163.646473 
z
" clip-path="url(#p85125dd9aa)" style="fill: #e63946; fill-opacity: 0.6; stroke: #ffffff; stroke-opacity: 0.6; stroke-width: 1.5"/>
    <path d="M 179.280354 177.501785 
C 181.905596 177.501785 184.42367 176.458765 186.279996 174.602438 
C 188.136323 172.746111 189.179343 170.228038 189.179343 167.602795 
C 189.179343 164.977552 188.136323 162.459479 186.279996 160.603152 
C 184.42367 158.746825 181.905596 157.703805 179.280354 157.703805 
C 176.655111 157.703805 174.137038 158.746825 172.280711 160.603152 
C 170.424384 162.459479 169.381364 164.977552 169.381364 167.602795 
C 169.381364 170.228038 170.424384 172.746111 172.280711 174.602438 
C 174.137038 176.458765 176.655111 177.501785 179.280354 177.501785 
z
" clip-path="url(#p85125dd9aa)" style="fill: #e63946; fill-opacity: 0.6; stroke: #ffffff; stroke-opacity: 0.6; stroke-width: 1.5"/>
    <path d="M 166.36875 175.456605 
C 168.993591 175.456605 171.511278 174.413745 173.367321 172.557702 
C 175.223364 170.701659 176.266224 168.183972 176.266224 165.559131 
C 176.266224 162.93429 175.223364 160.416602 173.367321 158.56056 
C 171.511278 156.704517 168.993591 155.661657 166.36875 155.661657 
C 163.743909 155.661657 161.226222 156.704517 159.370179 158.56056 
C 157.514136 160.416602 156.471276 162.93429 156.471276 165.559131 
C 156.471276 168.183972 157.514136 170.701659 159.370179 172.557702 
C 161.226222 174.413745 163.743909 175.456605 166.36875 175.456605 
z
" clip-path="url(#p85125dd9aa)" style="fill: #e63946; fill-opacity: 0.6; stroke: #ffffff; stroke-opacity: 0.6; stroke-width: 1.5"/>
    <path d="M 155.129722 182.646033 
C 157.75406 182.646033 160.271266 181.603372 162.126953 179.747685 
C 163.982641 177.891997 165.025302 175.374792 165.025302 172.750453 
C 165.025302 170.126115 163.982641 167.608909 162.126953 165.753222 
C 160.271266 163.897534 157.75406 162.854873 155.129722 162.854873 
C 152.505383 162.854873 149.988178 163.897534 148.13249 165.753222 
C 146.276803 167.608909 145.234142 170.126115 145.234142 172.750453 
C 145.234142 175.374792 146.276803 177.891997 148.13249 179.747685 
C 149.988178 181.603372 152.505383 182.646033 155.129722 182.646033 
z
" clip-path="url(#p85125dd9aa)" style="fill: #e63946; fill-opacity: 0.6; stroke: #ffffff; stroke-opacity: 0.6; stroke-width: 1.5"/>
    <path d="M 118.739894 151.680708 
C 121.364232 151.680708 123.881438 150.638047 125.737125 148.78236 
C 127.592813 146.926672 128.635474 144.409467 128.635474 141.785128 
C 128.635474 139.16079 127.592813 136.643584 125.737125 134.787897 
C 123.881438 132.932209 121.364232 131.889549 118.739894 131.889549 
C 116.115555 131.889549 113.59835 132.932209 111.742662 134.787897 
C 109.886975 136.643584 108.844314 139.16079 108.844314 141.785128 
C 108.844314 144.409467 109.886975 146.926672 111.742662 148.78236 
C 113.59835 150.638047 116.115555 151.680708 118.739894 151.680708 
z
" clip-path="url(#p85125dd9aa)" style="fill: #e63946; fill-opacity: 0.6; stroke: #ffffff; stroke-opacity: 0.6; stroke-width: 1.5"/>
    <path d="M 112.664636 178.215608 
C 115.288371 178.215608 117.804998 177.173187 119.660259 175.317926 
C 121.515521 173.462665 122.557942 170.946038 122.557942 168.322302 
C 122.557942 165.698567 121.515521 163.18194 119.660259 161.326679 
C 117.804998 159.471417 115.288371 158.428996 112.664636 158.428996 
C 110.0409 158.428996 107.524273 159.471417 105.669012 161.326679 
C 103.813751 163.18194 102.77133 165.698567 102.77133 168.322302 
C 102.77133 170.946038 103.813751 173.462665 105.669012 175.317926 
C 107.524273 177.173187 110.0409 178.215608 112.664636 178.215608 
z
" clip-path="url(#p85125dd9aa)" style="fill: #e63946; fill-opacity: 0.6; stroke: #ffffff; stroke-opacity: 0.6; stroke-width: 1.5"/>
    <path d="M 97.613877 194.894118 
C 100.237612 194.894118 102.754239 193.851697 104.609501 191.996436 
C 106.464762 190.141175 107.507183 187.624548 107.507183 185.000813 
C 107.507183 182.377077 106.464762 179.86045 104.609501 178.005189 
C 102.754239 176.149928 100.237612 175.107507 97.613877 175.107507 
C 94.990142 175.107507 92.473514 176.149928 90.618253 178.005189 
C 88.762992 179.86045 87.720571 182.377077 87.720571 185.000813 
C 87.720571 187.624548 88.762992 190.141175 90.618253 191.996436 
C 92.473514 193.851697 94.990142 194.894118 97.613877 194.894118 
z
" clip-path="url(#p85125dd9aa)" style="fill: #e63946; fill-opacity: 0.6; stroke: #ffffff; stroke-opacity: 0.6; stroke-width: 1.5"/>
    <path d="M 132.070952 217.232415 
C 134.694285 217.232415 137.210527 216.190153 139.065503 214.335176 
C 140.92048 212.4802 141.962742 209.963958 141.962742 207.340625 
C 141.962742 204.717292 140.92048 202.20105 139.065503 200.346074 
C 137.210527 198.491097 134.694285 197.448835 132.070952 197.448835 
C 129.447619 197.448835 126.931377 198.491097 125.076401 200.346074 
C 123.221424 202.20105 122.179162 204.717292 122.179162 207.340625 
C 122.179162 209.963958 123.221424 212.4802 125.076401 214.335176 
C 126.931377 216.190153 129.447619 217.232415 132.070952 217.232415 
z
" clip-path="url(#p85125dd9aa)" style="fill: #e63946; fill-opacity: 0.6; stroke: #ffffff; stroke-opacity: 0.6; stroke-width: 1.5"/>
    <path d="M 83.851194 244.042856 
C 86.474225 244.042856 88.990177 243.000715 90.844941 241.145952 
C 92.699704 239.291188 93.741846 236.775236 93.741846 234.152204 
C 93.741846 231.529173 92.699704 229.013221 90.844941 227.158457 
C 88.990177 225.303694 86.474225 224.261552 83.851194 224.261552 
C 81.228162 224.261552 78.71221 225.303694 76.857446 227.158457 
C 75.002683 229.013221 73.960542 231.529173 73.960542 234.152204 
C 73.960542 236.775236 75.002683 239.291188 76.857446 241.145952 
C 78.71221 243.000715 81.228162 244.042856 83.851194 244.042856 
z
" clip-path="url(#p85125dd9aa)" style="fill: #e63946; fill-opacity: 0.6; stroke: #ffffff; stroke-opacity: 0.6; stroke-width: 1.5"/>
    <path d="M 102.321542 263.764298 
C 104.944574 263.764298 107.460526 262.722156 109.315289 260.867393 
C 111.170053 259.012629 112.212194 256.496677 112.212194 253.873645 
C 112.212194 251.250614 111.170053 248.734662 109.315289 246.879898 
C 107.460526 245.025135 104.944574 243.982993 102.321542 243.982993 
C 99.69851 243.982993 97.182558 245.025135 95.327795 246.879898 
C 93.473031 248.734662 92.43089 251.250614 92.43089 253.873645 
C 92.43089 256.496677 93.473031 259.012629 95.327795 260.867393 
C 97.182558 262.722156 99.69851 263.764298 102.321542 263.764298 
z
" clip-path="url(#p85125dd9aa)" style="fill: #e63946; fill-opacity: 0.6; stroke: #ffffff; stroke-opacity: 0.6; stroke-width: 1.5"/>
    <path d="M 139.979845 253.552109 
C 142.602776 253.552109 145.118632 252.510008 146.973324 250.655316 
C 148.828017 248.800623 149.870118 246.284768 149.870118 243.661836 
C 149.870118 241.038905 148.828017 238.52305 146.973324 236.668357 
C 145.118632 234.813665 142.602776 233.771563 139.979845 233.771563 
C 137.356914 233.771563 134.841058 234.813665 132.986366 236.668357 
C 131.131674 238.52305 130.089572 241.038905 130.089572 243.661836 
C 130.089572 246.284768 131.131674 248.800623 132.986366 250.655316 
C 134.841058 252.510008 137.356914 253.552109 139.979845 253.552109 
z
" clip-path="url(#p85125dd9aa)" style="fill: #e63946; fill-opacity: 0.6; stroke: #ffffff; stroke-opacity: 0.6; stroke-width: 1.5"/>
    <path d="M 153.016415 258.322884 
C 155.638743 258.322884 158.15402 257.281022 160.008285 255.426757 
C 161.862551 253.572491 162.904413 251.057214 162.904413 248.434886 
C 162.904413 245.812559 161.862551 243.297282 160.008285 241.443016 
C 158.15402 239.58875 155.638743 238.546889 153.016415 238.546889 
C 150.394087 238.546889 147.87881 239.58875 146.024545 241.443016 
C 144.170279 243.297282 143.128417 245.812559 143.128417 248.434886 
C 143.128417 251.057214 144.170279 253.572491 146.024545 255.426757 
C 147.87881 257.281022 150.394087 258.322884 153.016415 258.322884 
z
" clip-path="url(#p85125dd9aa)" style="fill: #e63946; fill-opacity: 0.6; stroke: #ffffff; stroke-opacity: 0.6; stroke-width: 1.5"/>
    <path d="M 166.36875 260.524603 
C 168.990977 260.524603 171.506158 259.482782 173.360352 257.628587 
C 175.214547 255.774392 176.256369 253.259212 176.256369 250.636985 
C 176.256369 248.014758 175.214547 245.499577 173.360352 243.645383 
C 171.506158 241.791188 168.990977 240.749366 166.36875 240.749366 
C 163.746523 240.749366 161.231342 241.791188 159.377148 243.645383 
C 157.522953 245.499577 156.481131 248.014758 156.481131 250.636985 
C 156.481131 253.259212 157.522953 255.774392 159.377148 257.628587 
C 161.231342 259.482782 163.746523 260.524603 166.36875 260.524603 
z
" clip-path="url(#p85125dd9aa)" style="fill: #e63946; fill-opacity: 0.6; stroke: #ffffff; stroke-opacity: 0.6; stroke-width: 1.5"/>
    <path d="M 181.811779 264.75586 
C 184.433704 264.75586 186.948595 263.714158 188.802576 261.860177 
C 190.656557 260.006196 191.698259 257.491305 191.698259 254.86938 
C 191.698259 252.247454 190.656557 249.732563 188.802576 247.878582 
C 186.948595 246.024601 184.433704 244.982899 181.811779 244.982899 
C 179.189853 244.982899 176.674962 246.024601 174.820981 247.878582 
C 172.967 249.732563 171.925298 252.247454 171.925298 254.86938 
C 171.925298 257.491305 172.967 260.006196 174.820981 261.860177 
C 176.674962 263.714158 179.189853 264.75586 181.811779 264.75586 
z
" clip-path="url(#p85125dd9aa)" style="fill: #e63946; fill-opacity: 0.6; stroke: #ffffff; stroke-opacity: 0.6; stroke-width: 1.5"/>
    <path d="M 202.906558 267.517084 
C 205.528483 267.517084 208.043374 266.475382 209.897355 264.621401 
C 211.751337 262.76742 212.793039 260.252529 212.793039 257.630603 
C 212.793039 255.008678 211.751337 252.493787 209.897355 250.639806 
C 208.043374 248.785825 205.528483 247.744123 202.906558 247.744123 
C 200.284633 247.744123 197.769742 248.785825 195.91576 250.639806 
C 194.061779 252.493787 193.020077 255.008678 193.020077 257.630603 
C 193.020077 260.252529 194.061779 262.76742 195.91576 264.621401 
C 197.769742 266.475382 200.284633 267.517084 202.906558 267.517084 
z
" clip-path="url(#p85125dd9aa)" style="fill: #e63946; fill-opacity: 0.6; stroke: #ffffff; stroke-opacity: 0.6; stroke-width: 1.5"/>
    <path d="M 212.508955 250.74841 
C 215.130478 250.74841 217.644983 249.706868 219.49868 247.853171 
C 221.352376 245.999474 222.393919 243.484969 222.393919 240.863446 
C 222.393919 238.241923 221.352376 235.727418 219.49868 233.873722 
C 217.644983 232.020025 215.130478 230.978483 212.508955 230.978483 
C 209.887432 230.978483 207.372927 232.020025 205.519231 233.873722 
C 203.665534 235.727418 202.623992 238.241923 202.623992 240.863446 
C 202.623992 243.484969 203.665534 245.999474 205.519231 247.853171 
C 207.372927 249.706868 209.887432 250.74841 212.508955 250.74841 
z
" clip-path="url(#p85125dd9aa)" style="fill: #e63946; fill-opacity: 0.6; stroke: #ffffff; stroke-opacity: 0.6; stroke-width: 1.5"/>
    <path d="M 213.21351 232.445994 
C 215.834933 232.445994 218.349341 231.404492 220.202967 229.550867 
C 222.056592 227.697241 223.098094 225.182833 223.098094 222.56141 
C 223.098094 219.939988 222.056592 217.425579 220.202967 215.571954 
C 218.349341 213.718328 215.834933 212.676826 213.21351 212.676826 
C 210.592088 212.676826 208.077679 213.718328 206.224054 215.571954 
C 204.370429 217.425579 203.328926 219.939988 203.328926 222.56141 
C 203.328926 225.182833 204.370429 227.697241 206.224054 229.550867 
C 208.077679 231.404492 210.592088 232.445994 213.21351 232.445994 
z
" clip-path="url(#p85125dd9aa)" style="fill: #e63946; fill-opacity: 0.6; stroke: #ffffff; stroke-opacity: 0.6; stroke-width: 1.5"/>
   </g>
   <g id="text_1">
    <text style="font-weight: 700; font-size: 6px; font-family: 'Microsoft YaHei', 'PingFang SC', 'WenQuanYi Micro Hei', 'Arial', 'DejaVu Sans', sans-serif; text-anchor: middle; fill: #2c3e50" x="220.228588" y="208.992969" transform="rotate(-0 220.228588 208.992969)">fine</text>
   </g>
   <g id="text_2">
    <text style="font-weight: 700; font-size: 6px; font-family: 'Microsoft YaHei', 'PingFang SC', 'WenQuanYi Micro Hei', 'Arial', 'DejaVu Sans', sans-serif; text-anchor: middle; fill: #2c3e50" x="247.877351" y="182.509219" transform="rotate(-0 247.877351 182.509219)">pere</text>
   </g>
   <g id="text_3">
    <text style="font-weight: 700; font-size: 6px; font-family: 'Microsoft YaHei', 'PingFang SC', 'WenQuanYi Micro Hei', 'Arial', 'DejaVu Sans', sans-serif; text-anchor: middle; fill: #2c3e50" x="225.924708" y="165.69397" transform="rotate(-0 225.924708 165.69397)">gene</text>
   </g>
   <g id="text_4">
    <text style="font-weight: 700; font-size: 6px; font-family: 'Microsoft YaHei', 'PingFang SC', 'WenQuanYi Micro Hei', 'Arial', 'DejaVu Sans', sans-serif; text-anchor: middle; fill: #2c3e50" x="205.307272" y="155.398691" transform="rotate(-0 205.307272 155.398691)">ures</text>
   </g>
   <g id="text_5">
    <text style="font-weight: 700; font-size: 6px; font-family: 'Microsoft YaHei', 'PingFang SC', 'WenQuanYi Micro Hei', 'Arial', 'DejaVu Sans', sans-serif; text-anchor: middle; fill: #2c3e50" x="179.280354" y="169.255139" transform="rotate(-0 179.280354 169.255139)">towa</text>
   </g>
   <g id="text_6">
    <text style="font-weight: 700; font-size: 14px; font-family: 'Microsoft YaHei', 'PingFang SC', 'WenQuanYi Micro Hei', 'Arial', 'DejaVu Sans', sans-serif; text-anchor: start; fill: #2c3e50" x="7.2" y="57.955625" transform="rotate(-0 7.2 57.955625)">f</text>
   </g>
   <g id="text_7">
    <text style="font-weight: 700; font-size: 9px; font-family: 'Microsoft YaHei', 'PingFang SC', 'WenQuanYi Micro Hei', 'Arial', 'DejaVu Sans', sans-serif; text-anchor: middle" x="166.36875" y="64.7" transform="rotate(-0 166.36875 64.7)">噪声振动与粉尘污染</text>
   </g>
  </g>
  <g id="axes_2">
   <g id="PathCollection_2">
    <path d="M 530.593501 217.17119 
C 533.200597 217.17119 535.701264 216.135379 537.54476 214.291884 
C 539.388255 212.448388 540.424066 209.947721 540.424066 207.340625 
C 540.424066 204.733529 539.388255 202.232862 537.54476 200.389366 
C 535.701264 198.545871 533.200597 197.51006 530.593501 197.51006 
C 527.986405 197.51006 525.485737 198.545871 523.642242 200.389366 
C 521.798747 202.232862 520.762936 204.733529 520.762936 207.340625 
C 520.762936 209.947721 521.798747 212.448388 523.642242 214.291884 
C 525.485737 216.135379 527.986405 217.17119 530.593501 217.17119 
z
" clip-path="url(#pf4e449ba25)" style="fill: #f77f00; fill-opacity: 0.6; stroke: #ffffff; stroke-opacity: 0.6; stroke-width: 1.5"/>
    <path d="M 554.625553 196.512703 
C 557.230119 196.512703 559.728359 195.477898 561.570065 193.636191 
C 563.411771 191.794485 564.446576 189.296245 564.446576 186.691679 
C 564.446576 184.087113 563.411771 181.588873 561.570065 179.747167 
C 559.728359 177.905461 557.230119 176.870656 554.625553 176.870656 
C 552.020987 176.870656 549.522747 177.905461 547.681041 179.747167 
C 545.839335 181.588873 544.80453 184.087113 544.80453 186.691679 
C 544.80453 189.296245 545.839335 191.794485 547.681041 193.636191 
C 549.522747 195.477898 552.020987 196.512703 554.625553 196.512703 
z
" clip-path="url(#pf4e449ba25)" style="fill: #f77f00; fill-opacity: 0.6; stroke: #ffffff; stroke-opacity: 0.6; stroke-width: 1.5"/>
    <path d="M 523.865924 193.334708 
C 526.46978 193.334708 528.967341 192.300184 530.808545 190.458979 
C 532.64975 188.617775 533.684274 186.120214 533.684274 183.516357 
C 533.684274 180.912501 532.64975 178.41494 530.808545 176.573735 
C 528.967341 174.732531 526.46978 173.698007 523.865924 173.698007 
C 521.262067 173.698007 518.764506 174.732531 516.923302 176.573735 
C 515.082097 178.41494 514.047573 180.912501 514.047573 183.516357 
C 514.047573 186.120214 515.082097 188.617775 516.923302 190.458979 
C 518.764506 192.300184 521.262067 193.334708 523.865924 193.334708 
z
" clip-path="url(#pf4e449ba25)" style="fill: #f77f00; fill-opacity: 0.6; stroke: #ffffff; stroke-opacity: 0.6; stroke-width: 1.5"/>
    <path d="M 518.381257 179.573484 
C 520.98481 179.573484 523.482079 178.539082 525.323069 176.698092 
C 527.164059 174.857102 528.198462 172.359833 528.198462 169.75628 
C 528.198462 167.152727 527.164059 164.655458 525.323069 162.814468 
C 523.482079 160.973478 520.98481 159.939076 518.381257 159.939076 
C 515.777704 159.939076 513.280436 160.973478 511.439446 162.814468 
C 509.598456 164.655458 508.564053 167.152727 508.564053 169.75628 
C 508.564053 172.359833 509.598456 174.857102 511.439446 176.698092 
C 513.280436 178.539082 515.777704 179.573484 518.381257 179.573484 
z
" clip-path="url(#pf4e449ba25)" style="fill: #f77f00; fill-opacity: 0.6; stroke: #ffffff; stroke-opacity: 0.6; stroke-width: 1.5"/>
    <path d="M 506.908702 168.424045 
C 509.51185 168.424045 512.00873 167.389803 513.849433 165.5491 
C 515.690137 163.708396 516.724379 161.211516 516.724379 158.608369 
C 516.724379 156.005221 515.690137 153.508341 513.849433 151.667637 
C 512.00873 149.826934 509.51185 148.792692 506.908702 148.792692 
C 504.305554 148.792692 501.808674 149.826934 499.967971 151.667637 
C 498.127268 153.508341 497.093026 156.005221 497.093026 158.608369 
C 497.093026 161.211516 498.127268 163.708396 499.967971 165.5491 
C 501.808674 167.389803 504.305554 168.424045 506.908702 168.424045 
z
" clip-path="url(#pf4e449ba25)" style="fill: #f77f00; fill-opacity: 0.6; stroke: #ffffff; stroke-opacity: 0.6; stroke-width: 1.5"/>
    <path d="M 491.074632 136.513874 
C 493.677679 136.513874 496.174462 135.479673 498.015093 133.639041 
C 499.855725 131.798409 500.889927 129.301626 500.889927 126.69858 
C 500.889927 124.095533 499.855725 121.59875 498.015093 119.758119 
C 496.174462 117.917487 493.677679 116.883285 491.074632 116.883285 
C 488.471586 116.883285 485.974803 117.917487 484.134171 119.758119 
C 482.293539 121.59875 481.259338 124.095533 481.259338 126.69858 
C 481.259338 129.301626 482.293539 131.798409 484.134171 133.639041 
C 485.974803 135.479673 488.471586 136.513874 491.074632 136.513874 
z
" clip-path="url(#pf4e449ba25)" style="fill: #f77f00; fill-opacity: 0.6; stroke: #ffffff; stroke-opacity: 0.6; stroke-width: 1.5"/>
    <path d="M 469.451812 150.604665 
C 472.054048 150.604665 474.550053 149.570786 476.390112 147.730727 
C 478.23017 145.890669 479.26405 143.394663 479.26405 140.792428 
C 479.26405 138.190192 478.23017 135.694187 476.390112 133.854128 
C 474.550053 132.01407 472.054048 130.980191 469.451812 130.980191 
C 466.849577 130.980191 464.353571 132.01407 462.513513 133.854128 
C 460.673454 135.694187 459.639575 138.190192 459.639575 140.792428 
C 459.639575 143.394663 460.673454 145.890669 462.513513 147.730727 
C 464.353571 149.570786 466.849577 150.604665 469.451812 150.604665 
z
" clip-path="url(#pf4e449ba25)" style="fill: #f77f00; fill-opacity: 0.6; stroke: #ffffff; stroke-opacity: 0.6; stroke-width: 1.5"/>
    <path d="M 454.003881 166.127822 
C 456.605712 166.127822 459.101328 165.094104 460.9411 163.254332 
C 462.780872 161.41456 463.81459 158.918944 463.81459 156.317113 
C 463.81459 153.715283 462.780872 151.219667 460.9411 149.379895 
C 459.101328 147.540123 456.605712 146.506405 454.003881 146.506405 
C 451.402051 146.506405 448.906435 147.540123 447.066663 149.379895 
C 445.226891 151.219667 444.193173 153.715283 444.193173 156.317113 
C 444.193173 158.918944 445.226891 161.41456 447.066663 163.254332 
C 448.906435 165.094104 451.402051 166.127822 454.003881 166.127822 
z
" clip-path="url(#pf4e449ba25)" style="fill: #f77f00; fill-opacity: 0.6; stroke: #ffffff; stroke-opacity: 0.6; stroke-width: 1.5"/>
    <path d="M 462.95024 196.716619 
C 465.551766 196.716619 468.04709 195.683022 469.886647 193.843465 
C 471.726204 192.003908 472.759801 189.508584 472.759801 186.907058 
C 472.759801 184.305531 471.726204 181.810207 469.886647 179.97065 
C 468.04709 178.131093 465.551766 177.097496 462.95024 177.097496 
C 460.348714 177.097496 457.853389 178.131093 456.013832 179.97065 
C 454.174275 181.810207 453.140678 184.305531 453.140678 186.907058 
C 453.140678 189.508584 454.174275 192.003908 456.013832 193.843465 
C 457.853389 195.683022 460.348714 196.716619 462.95024 196.716619 
z
" clip-path="url(#pf4e449ba25)" style="fill: #f77f00; fill-opacity: 0.6; stroke: #ffffff; stroke-opacity: 0.6; stroke-width: 1.5"/>
    <path d="M 420.970193 194.370727 
C 423.571415 194.370727 426.066448 193.33725 427.905789 191.497908 
C 429.745131 189.658567 430.778608 187.163534 430.778608 184.562312 
C 430.778608 181.96109 429.745131 179.466057 427.905789 177.626715 
C 426.066448 175.787374 423.571415 174.753897 420.970193 174.753897 
C 418.368971 174.753897 415.873938 175.787374 414.034596 177.626715 
C 412.195255 179.466057 411.161778 181.96109 411.161778 184.562312 
C 411.161778 187.163534 412.195255 189.658567 414.034596 191.497908 
C 415.873938 193.33725 418.368971 194.370727 420.970193 194.370727 
z
" clip-path="url(#pf4e449ba25)" style="fill: #f77f00; fill-opacity: 0.6; stroke: #ffffff; stroke-opacity: 0.6; stroke-width: 1.5"/>
    <path d="M 436.086802 217.146363 
C 438.687314 217.146363 441.181666 216.113169 443.020506 214.274329 
C 444.859346 212.435489 445.89254 209.941137 445.89254 207.340625 
C 445.89254 204.740113 444.859346 202.245761 443.020506 200.406921 
C 441.181666 198.568081 438.687314 197.534887 436.086802 197.534887 
C 433.48629 197.534887 430.991938 198.568081 429.153098 200.406921 
C 427.314259 202.245761 426.281064 204.740113 426.281064 207.340625 
C 426.281064 209.941137 427.314259 212.435489 429.153098 214.274329 
C 430.991938 216.113169 433.48629 217.146363 436.086802 217.146363 
z
" clip-path="url(#pf4e449ba25)" style="fill: #f77f00; fill-opacity: 0.6; stroke: #ffffff; stroke-opacity: 0.6; stroke-width: 1.5"/>
    <path d="M 417.380272 241.09073 
C 419.980683 241.09073 422.474938 240.057576 424.313706 238.218808 
C 426.152474 236.38004 427.185628 233.885785 427.185628 231.285374 
C 427.185628 228.684963 426.152474 226.190709 424.313706 224.351941 
C 422.474938 222.513173 419.980683 221.480018 417.380272 221.480018 
C 414.779861 221.480018 412.285607 222.513173 410.446839 224.351941 
C 408.608071 226.190709 407.574916 228.684963 407.574916 231.285374 
C 407.574916 233.885785 408.608071 236.38004 410.446839 238.218808 
C 412.285607 240.057576 414.779861 241.09073 417.380272 241.09073 
z
" clip-path="url(#pf4e449ba25)" style="fill: #f77f00; fill-opacity: 0.6; stroke: #ffffff; stroke-opacity: 0.6; stroke-width: 1.5"/>
    <path d="M 452.871855 244.901541 
C 455.472164 244.901541 457.966321 243.868427 459.805018 242.029731 
C 461.643714 240.191034 462.676828 237.696877 462.676828 235.096568 
C 462.676828 232.496258 461.643714 230.002101 459.805018 228.163405 
C 457.966321 226.324708 455.472164 225.291594 452.871855 225.291594 
C 450.271545 225.291594 447.777388 226.324708 445.938692 228.163405 
C 444.099995 230.002101 443.066882 232.496258 443.066882 235.096568 
C 443.066882 237.696877 444.099995 240.191034 445.938692 242.029731 
C 447.777388 243.868427 450.271545 244.901541 452.871855 244.901541 
z
" clip-path="url(#pf4e449ba25)" style="fill: #f77f00; fill-opacity: 0.6; stroke: #ffffff; stroke-opacity: 0.6; stroke-width: 1.5"/>
    <path d="M 469.73567 246.515396 
C 472.335776 246.515396 474.829739 245.482363 476.668292 243.64381 
C 478.506845 241.805257 479.539878 239.311294 479.539878 236.711188 
C 479.539878 234.111081 478.506845 231.617118 476.668292 229.778565 
C 474.829739 227.940013 472.335776 226.906979 469.73567 226.906979 
C 467.135563 226.906979 464.6416 227.940013 462.803047 229.778565 
C 460.964495 231.617118 459.931461 234.111081 459.931461 236.711188 
C 459.931461 239.311294 460.964495 241.805257 462.803047 243.64381 
C 464.6416 245.482363 467.135563 246.515396 469.73567 246.515396 
z
" clip-path="url(#pf4e449ba25)" style="fill: #f77f00; fill-opacity: 0.6; stroke: #ffffff; stroke-opacity: 0.6; stroke-width: 1.5"/>
    <path d="M 466.026591 294.234394 
C 468.626596 294.234394 471.120462 293.201401 472.958943 291.36292 
C 474.797424 289.524439 475.830417 287.030574 475.830417 284.430569 
C 475.830417 281.830564 474.797424 279.336698 472.958943 277.498217 
C 471.120462 275.659736 468.626596 274.626743 466.026591 274.626743 
C 463.426586 274.626743 460.932721 275.659736 459.09424 277.498217 
C 457.255758 279.336698 456.222766 281.830564 456.222766 284.430569 
C 456.222766 287.030574 457.255758 289.524439 459.09424 291.36292 
C 460.932721 293.201401 463.426586 294.234394 466.026591 294.234394 
z
" clip-path="url(#pf4e449ba25)" style="fill: #f77f00; fill-opacity: 0.6; stroke: #ffffff; stroke-opacity: 0.6; stroke-width: 1.5"/>
    <path d="M 491.074632 262.519818 
C 493.674536 262.519818 496.168304 261.486865 498.006714 259.648456 
C 499.845123 257.810046 500.878076 255.316278 500.878076 252.716375 
C 500.878076 250.116471 499.845123 247.622703 498.006714 245.784293 
C 496.168304 243.945884 493.674536 242.912931 491.074632 242.912931 
C 488.474729 242.912931 485.980961 243.945884 484.142551 245.784293 
C 482.304142 247.622703 481.271189 250.116471 481.271189 252.716375 
C 481.271189 255.316278 482.304142 257.810046 484.142551 259.648456 
C 485.980961 261.486865 488.474729 262.519818 491.074632 262.519818 
z
" clip-path="url(#pf4e449ba25)" style="fill: #f77f00; fill-opacity: 0.6; stroke: #ffffff; stroke-opacity: 0.6; stroke-width: 1.5"/>
    <path d="M 508.238264 269.966764 
C 510.837762 269.966764 513.331141 268.933973 515.169263 267.095851 
C 517.007386 265.257728 518.040177 262.764349 518.040177 260.164851 
C 518.040177 257.565354 517.007386 255.071975 515.169263 253.233852 
C 513.331141 251.39573 510.837762 250.362938 508.238264 250.362938 
C 505.638766 250.362938 503.145387 251.39573 501.307265 253.233852 
C 499.469142 255.071975 498.436351 257.565354 498.436351 260.164851 
C 498.436351 262.764349 499.469142 265.257728 501.307265 267.095851 
C 503.145387 268.933973 505.638766 269.966764 508.238264 269.966764 
z
" clip-path="url(#pf4e449ba25)" style="fill: #f77f00; fill-opacity: 0.6; stroke: #ffffff; stroke-opacity: 0.6; stroke-width: 1.5"/>
    <path d="M 520.834104 258.101789 
C 523.433297 258.101789 525.926384 257.069118 527.764291 255.231211 
C 529.602199 253.393304 530.634869 250.900217 530.634869 248.301023 
C 530.634869 245.70183 529.602199 243.208743 527.764291 241.370836 
C 525.926384 239.532929 523.433297 238.500258 520.834104 238.500258 
C 518.23491 238.500258 515.741823 239.532929 513.903916 241.370836 
C 512.066009 243.208743 511.033339 245.70183 511.033339 248.301023 
C 511.033339 250.900217 512.066009 253.393304 513.903916 255.231211 
C 515.741823 257.069118 518.23491 258.101789 520.834104 258.101789 
z
" clip-path="url(#pf4e449ba25)" style="fill: #f77f00; fill-opacity: 0.6; stroke: #ffffff; stroke-opacity: 0.6; stroke-width: 1.5"/>
    <path d="M 521.329496 239.122835 
C 523.928689 239.122835 526.421776 238.090165 528.259684 236.252258 
C 530.097591 234.41435 531.130261 231.921263 531.130261 229.32207 
C 531.130261 226.722877 530.097591 224.22979 528.259684 222.391883 
C 526.421776 220.553975 523.928689 219.521305 521.329496 219.521305 
C 518.730303 219.521305 516.237216 220.553975 514.399308 222.391883 
C 512.561401 224.22979 511.528731 226.722877 511.528731 229.32207 
C 511.528731 231.921263 512.561401 234.41435 514.399308 236.252258 
C 516.237216 238.090165 518.730303 239.122835 521.329496 239.122835 
z
" clip-path="url(#pf4e449ba25)" style="fill: #f77f00; fill-opacity: 0.6; stroke: #ffffff; stroke-opacity: 0.6; stroke-width: 1.5"/>
    <path d="M 566.933367 241.789005 
C 569.532459 241.789005 572.025449 240.756375 573.863284 238.918539 
C 575.70112 237.080704 576.73375 234.587714 576.73375 231.988622 
C 576.73375 229.38953 575.70112 226.89654 573.863284 225.058705 
C 572.025449 223.22087 569.532459 222.188239 566.933367 222.188239 
C 564.334275 222.188239 561.841286 223.22087 560.00345 225.058705 
C 558.165615 226.89654 557.132984 229.38953 557.132984 231.988622 
C 557.132984 234.587714 558.165615 237.080704 560.00345 238.918539 
C 561.841286 240.756375 564.334275 241.789005 566.933367 241.789005 
z
" clip-path="url(#pf4e449ba25)" style="fill: #f77f00; fill-opacity: 0.6; stroke: #ffffff; stroke-opacity: 0.6; stroke-width: 1.5"/>
   </g>
   <g id="text_8">
    <text style="font-weight: 700; font-size: 6px; font-family: 'Microsoft YaHei', 'PingFang SC', 'WenQuanYi Micro Hei', 'Arial', 'DejaVu Sans', sans-serif; text-anchor: middle; fill: #2c3e50" x="530.593501" y="208.992969" transform="rotate(-0 530.593501 208.992969)">silk</text>
   </g>
   <g id="text_9">
    <text style="font-weight: 700; font-size: 6px; font-family: 'Microsoft YaHei', 'PingFang SC', 'WenQuanYi Micro Hei', 'Arial', 'DejaVu Sans', sans-serif; text-anchor: middle; fill: #2c3e50" x="554.625553" y="188.344023" transform="rotate(-0 554.625553 188.344023)">chos</text>
   </g>
   <g id="text_10">
    <text style="font-weight: 700; font-size: 6px; font-family: 'Microsoft YaHei', 'PingFang SC', 'WenQuanYi Micro Hei', 'Arial', 'DejaVu Sans', sans-serif; text-anchor: middle; fill: #2c3e50" x="523.865924" y="185.168701" transform="rotate(-0 523.865924 185.168701)">rain</text>
   </g>
   <g id="text_11">
    <text style="font-weight: 700; font-size: 6px; font-family: 'Microsoft YaHei', 'PingFang SC', 'WenQuanYi Micro Hei', 'Arial', 'DejaVu Sans', sans-serif; text-anchor: middle; fill: #2c3e50" x="518.381257" y="171.408624" transform="rotate(-0 518.381257 171.408624)">inst</text>
   </g>
   <g id="text_12">
    <text style="font-weight: 700; font-size: 6px; font-family: 'Microsoft YaHei', 'PingFang SC', 'WenQuanYi Micro Hei', 'Arial', 'DejaVu Sans', sans-serif; text-anchor: middle; fill: #2c3e50" x="506.908702" y="160.260712" transform="rotate(-0 506.908702 160.260712)">prol</text>
   </g>
   <g id="text_13">
    <text style="font-weight: 700; font-size: 9px; font-family: 'Microsoft YaHei', 'PingFang SC', 'WenQuanYi Micro Hei', 'Arial', 'DejaVu Sans', sans-serif; text-anchor: middle" x="491.074632" y="64.7" transform="rotate(-0 491.074632 64.7)">土壤退化与重金属污染</text>
   </g>
  </g>
  <g id="axes_3">
   <g id="PathCollection_3">
    <path d="M 895.079831 217.212682 
C 897.697931 217.212682 900.209153 216.172499 902.060429 214.321223 
C 903.911705 212.469947 904.951888 209.958725 904.951888 207.340625 
C 904.951888 204.722525 903.911705 202.211303 902.060429 200.360027 
C 900.209153 198.508751 897.697931 197.468568 895.079831 197.468568 
C 892.461731 197.468568 889.950509 198.508751 888.099233 200.360027 
C 886.247957 202.211303 885.207775 204.722525 885.207775 207.340625 
C 885.207775 209.958725 886.247957 212.469947 888.099233 214.321223 
C 889.950509 216.172499 892.461731 217.212682 895.079831 217.212682 
z
" clip-path="url(#pde7dec1522)" style="fill: #073b4c; fill-opacity: 0.6; stroke: #ffffff; stroke-opacity: 0.6; stroke-width: 1.5"/>
    <path d="M 852.825987 205.175118 
C 855.443886 205.175118 857.954914 204.135016 859.806048 202.283882 
C 861.657182 200.432748 862.697284 197.92172 862.697284 195.303821 
C 862.697284 192.685923 861.657182 190.174894 859.806048 188.32376 
C 857.954914 186.472627 855.443886 185.432525 852.825987 185.432525 
C 850.208089 185.432525 847.69706 186.472627 845.845926 188.32376 
C 843.994793 190.174894 842.95469 192.685923 842.95469 195.303821 
C 842.95469 197.92172 843.994793 200.432748 845.845926 202.283882 
C 847.69706 204.135016 850.208089 205.175118 852.825987 205.175118 
z
" clip-path="url(#pde7dec1522)" style="fill: #073b4c; fill-opacity: 0.6; stroke: #ffffff; stroke-opacity: 0.6; stroke-width: 1.5"/>
    <path d="M 875.901923 173.529262 
C 878.519318 173.529262 881.029863 172.48936 882.880641 170.638583 
C 884.731418 168.787805 885.77132 166.27726 885.77132 163.659865 
C 885.77132 161.04247 884.731418 158.531925 882.880641 156.681147 
C 881.029863 154.83037 878.519318 153.790468 875.901923 153.790468 
C 873.284528 153.790468 870.773983 154.83037 868.923205 156.681147 
C 867.072428 158.531925 866.032526 161.04247 866.032526 163.659865 
C 866.032526 166.27726 867.072428 168.787805 868.923205 170.638583 
C 870.773983 172.48936 873.284528 173.529262 875.901923 173.529262 
z
" clip-path="url(#pde7dec1522)" style="fill: #073b4c; fill-opacity: 0.6; stroke: #ffffff; stroke-opacity: 0.6; stroke-width: 1.5"/>
    <path d="M 846.982466 174.260421 
C 849.598853 174.260421 852.108431 173.220919 853.958496 171.370854 
C 855.808561 169.520789 856.848062 167.011211 856.848062 164.394824 
C 856.848062 161.778437 855.808561 159.268858 853.958496 157.418793 
C 852.108431 155.568728 849.598853 154.529227 846.982466 154.529227 
C 844.366079 154.529227 841.8565 155.568728 840.006435 157.418793 
C 838.15637 159.268858 837.116869 161.778437 837.116869 164.394824 
C 837.116869 167.011211 838.15637 169.520789 840.006435 171.370854 
C 841.8565 173.220919 844.366079 174.260421 846.982466 174.260421 
z
" clip-path="url(#pde7dec1522)" style="fill: #073b4c; fill-opacity: 0.6; stroke: #ffffff; stroke-opacity: 0.6; stroke-width: 1.5"/>
    <path d="M 832.164028 166.781052 
C 834.779911 166.781052 837.289006 165.741751 839.138714 163.892043 
C 840.988423 162.042334 842.027724 159.533239 842.027724 156.917356 
C 842.027724 154.301474 840.988423 151.792379 839.138714 149.94267 
C 837.289006 148.092962 834.779911 147.05366 832.164028 147.05366 
C 829.548145 147.05366 827.03905 148.092962 825.189341 149.94267 
C 823.339633 151.792379 822.300332 154.301474 822.300332 156.917356 
C 822.300332 159.533239 823.339633 162.042334 825.189341 163.892043 
C 827.03905 165.741751 829.548145 166.781052 832.164028 166.781052 
z
" clip-path="url(#pde7dec1522)" style="fill: #073b4c; fill-opacity: 0.6; stroke: #ffffff; stroke-opacity: 0.6; stroke-width: 1.5"/>
    <path d="M 815.780515 150.368488 
C 818.395086 150.368488 820.902924 149.329708 822.751705 147.480926 
C 824.600487 145.632145 825.639267 143.124307 825.639267 140.509736 
C 825.639267 137.895164 824.600487 135.387326 822.751705 133.538545 
C 820.902924 131.689763 818.395086 130.650983 815.780515 130.650983 
C 813.165943 130.650983 810.658105 131.689763 808.809324 133.538545 
C 806.960543 135.387326 805.921762 137.895164 805.921762 140.509736 
C 805.921762 143.124307 806.960543 145.632145 808.809324 147.480926 
C 810.658105 149.329708 813.165943 150.368488 815.780515 150.368488 
z
" clip-path="url(#pde7dec1522)" style="fill: #073b4c; fill-opacity: 0.6; stroke: #ffffff; stroke-opacity: 0.6; stroke-width: 1.5"/>
    <path d="M 798.80833 164.963985 
C 801.422801 164.963985 803.930542 163.925245 805.779252 162.076535 
C 807.627962 160.227825 808.666703 157.720084 808.666703 155.105613 
C 808.666703 152.491142 807.627962 149.983401 805.779252 148.134691 
C 803.930542 146.285981 801.422801 145.247241 798.80833 145.247241 
C 796.19386 145.247241 793.686119 146.285981 791.837409 148.134691 
C 789.988699 149.983401 788.949958 152.491142 788.949958 155.105613 
C 788.949958 157.720084 789.988699 160.227825 791.837409 162.076535 
C 793.686119 163.925245 796.19386 164.963985 798.80833 164.963985 
z
" clip-path="url(#pde7dec1522)" style="fill: #073b4c; fill-opacity: 0.6; stroke: #ffffff; stroke-opacity: 0.6; stroke-width: 1.5"/>
    <path d="M 783.000706 172.079558 
C 785.614672 172.079558 788.121929 171.041018 789.970282 169.192665 
C 791.818636 167.344312 792.857175 164.837055 792.857175 162.223088 
C 792.857175 159.609122 791.818636 157.101865 789.970282 155.253512 
C 788.121929 153.405158 785.614672 152.366618 783.000706 152.366618 
C 780.386739 152.366618 777.879482 153.405158 776.031129 155.253512 
C 774.182775 157.101865 773.144236 159.609122 773.144236 162.223088 
C 773.144236 164.837055 774.182775 167.344312 776.031129 169.192665 
C 777.879482 171.041018 780.386739 172.079558 783.000706 172.079558 
z
" clip-path="url(#pde7dec1522)" style="fill: #073b4c; fill-opacity: 0.6; stroke: #ffffff; stroke-opacity: 0.6; stroke-width: 1.5"/>
    <path d="M 766.154688 181.141441 
C 768.768553 181.141441 771.275713 180.102941 773.123995 178.254659 
C 774.972277 176.406377 776.010777 173.899217 776.010777 171.285351 
C 776.010777 168.671486 774.972277 166.164326 773.123995 164.316044 
C 771.275713 162.467762 768.768553 161.429262 766.154688 161.429262 
C 763.540822 161.429262 761.033662 162.467762 759.18538 164.316044 
C 757.337098 166.164326 756.298598 168.671486 756.298598 171.285351 
C 756.298598 173.899217 757.337098 176.406377 759.18538 178.254659 
C 761.033662 180.102941 763.540822 181.141441 766.154688 181.141441 
z
" clip-path="url(#pde7dec1522)" style="fill: #073b4c; fill-opacity: 0.6; stroke: #ffffff; stroke-opacity: 0.6; stroke-width: 1.5"/>
    <path d="M 746.916554 194.820696 
C 749.530217 194.820696 752.037184 193.782277 753.885323 191.934137 
C 755.733463 190.085998 756.771882 187.579031 756.771882 184.965368 
C 756.771882 182.351704 755.733463 179.844737 753.885323 177.996598 
C 752.037184 176.148459 749.530217 175.110039 746.916554 175.110039 
C 744.30289 175.110039 741.795923 176.148459 739.947784 177.996598 
C 738.099645 179.844737 737.061225 182.351704 737.061225 184.965368 
C 737.061225 187.579031 738.099645 190.085998 739.947784 191.934137 
C 741.795923 193.782277 744.30289 194.820696 746.916554 194.820696 
z
" clip-path="url(#pde7dec1522)" style="fill: #073b4c; fill-opacity: 0.6; stroke: #ffffff; stroke-opacity: 0.6; stroke-width: 1.5"/>
    <path d="M 729.535026 217.194812 
C 732.148387 217.194812 734.655063 216.156513 736.502988 214.308587 
C 738.350913 212.460662 739.389213 209.953986 739.389213 207.340625 
C 739.389213 204.727264 738.350913 202.220588 736.502988 200.372663 
C 734.655063 198.524737 732.148387 197.486438 729.535026 197.486438 
C 726.921665 197.486438 724.414988 198.524737 722.567063 200.372663 
C 720.719138 202.220588 719.680839 204.727264 719.680839 207.340625 
C 719.680839 209.953986 720.719138 212.460662 722.567063 214.308587 
C 724.414988 216.156513 726.921665 217.194812 729.535026 217.194812 
z
" clip-path="url(#pde7dec1522)" style="fill: #073b4c; fill-opacity: 0.6; stroke: #ffffff; stroke-opacity: 0.6; stroke-width: 1.5"/>
    <path d="M 760.242426 235.240231 
C 762.855787 235.240231 765.362464 234.201931 767.210389 232.354006 
C 769.058314 230.506081 770.096613 227.999405 770.096613 225.386044 
C 770.096613 222.772683 769.058314 220.266007 767.210389 218.418081 
C 765.362464 216.570156 762.855787 215.531857 760.242426 215.531857 
C 757.629066 215.531857 755.122389 216.570156 753.274464 218.418081 
C 751.426539 220.266007 750.38824 222.772683 750.38824 225.386044 
C 750.38824 227.999405 751.426539 230.506081 753.274464 232.354006 
C 755.122389 234.201931 757.629066 235.240231 760.242426 235.240231 
z
" clip-path="url(#pde7dec1522)" style="fill: #073b4c; fill-opacity: 0.6; stroke: #ffffff; stroke-opacity: 0.6; stroke-width: 1.5"/>
    <path d="M 769.83228 250.577778 
C 772.44554 250.577778 774.952119 249.539519 776.799973 247.691665 
C 778.647827 245.843811 779.686086 243.337232 779.686086 240.723972 
C 779.686086 238.110712 778.647827 235.604132 776.799973 233.756278 
C 774.952119 231.908425 772.44554 230.870165 769.83228 230.870165 
C 767.21902 230.870165 764.71244 231.908425 762.864587 233.756278 
C 761.016733 235.604132 759.978474 238.110712 759.978474 240.723972 
C 759.978474 243.337232 761.016733 245.843811 762.864587 247.691665 
C 764.71244 249.539519 767.21902 250.577778 769.83228 250.577778 
z
" clip-path="url(#pde7dec1522)" style="fill: #073b4c; fill-opacity: 0.6; stroke: #ffffff; stroke-opacity: 0.6; stroke-width: 1.5"/>
    <path d="M 792.603586 249.094356 
C 795.216745 249.094356 797.723228 248.056137 799.57101 246.208355 
C 801.418793 244.360572 802.457012 241.85409 802.457012 239.240931 
C 802.457012 236.627772 801.418793 234.121289 799.57101 232.273506 
C 797.723228 230.425724 795.216745 229.387505 792.603586 229.387505 
C 789.990427 229.387505 787.483944 230.425724 785.636162 232.273506 
C 783.788379 234.121289 782.75016 236.627772 782.75016 239.240931 
C 782.75016 241.85409 783.788379 244.360572 785.636162 246.208355 
C 787.483944 248.056137 789.990427 249.094356 792.603586 249.094356 
z
" clip-path="url(#pde7dec1522)" style="fill: #073b4c; fill-opacity: 0.6; stroke: #ffffff; stroke-opacity: 0.6; stroke-width: 1.5"/>
    <path d="M 801.812095 260.182905 
C 804.42485 260.182905 806.930945 259.144846 808.778442 257.297349 
C 810.625939 255.449852 811.663998 252.943757 811.663998 250.331002 
C 811.663998 247.718246 810.625939 245.212151 808.778442 243.364654 
C 806.930945 241.517157 804.42485 240.479098 801.812095 240.479098 
C 799.199339 240.479098 796.693244 241.517157 794.845747 243.364654 
C 792.99825 245.212151 791.960191 247.718246 791.960191 250.331002 
C 791.960191 252.943757 792.99825 255.449852 794.845747 257.297349 
C 796.693244 259.144846 799.199339 260.182905 801.812095 260.182905 
z
" clip-path="url(#pde7dec1522)" style="fill: #073b4c; fill-opacity: 0.6; stroke: #ffffff; stroke-opacity: 0.6; stroke-width: 1.5"/>
    <path d="M 815.780515 303.268843 
C 818.393169 303.268843 820.899168 302.230824 822.746593 300.383399 
C 824.594019 298.535973 825.632037 296.029975 825.632037 293.41732 
C 825.632037 290.804666 824.594019 288.298667 822.746593 286.451242 
C 820.899168 284.603816 818.393169 283.565798 815.780515 283.565798 
C 813.16786 283.565798 810.661862 284.603816 808.814436 286.451242 
C 806.967011 288.298667 805.928992 290.804666 805.928992 293.41732 
C 805.928992 296.029975 806.967011 298.535973 808.814436 300.383399 
C 810.661862 302.230824 813.16786 303.268843 815.780515 303.268843 
z
" clip-path="url(#pde7dec1522)" style="fill: #073b4c; fill-opacity: 0.6; stroke: #ffffff; stroke-opacity: 0.6; stroke-width: 1.5"/>
    <path d="M 842.138506 298.313704 
C 844.75116 298.313704 847.257159 297.275685 849.104585 295.42826 
C 850.95201 293.580834 851.990029 291.074835 851.990029 288.462181 
C 851.990029 285.849527 850.95201 283.343528 849.104585 281.496102 
C 847.257159 279.648677 844.75116 278.610658 842.138506 278.610658 
C 839.525852 278.610658 837.019853 279.648677 835.172428 281.496102 
C 833.325002 283.343528 832.286983 285.849527 832.286983 288.462181 
C 832.286983 291.074835 833.325002 293.580834 835.172428 295.42826 
C 837.019853 297.275685 839.525852 298.313704 842.138506 298.313704 
z
" clip-path="url(#pde7dec1522)" style="fill: #073b4c; fill-opacity: 0.6; stroke: #ffffff; stroke-opacity: 0.6; stroke-width: 1.5"/>
    <path d="M 863.917702 283.445399 
C 866.529852 283.445399 869.035366 282.40758 870.882435 280.560512 
C 872.729503 278.713443 873.767321 276.207929 873.767321 273.595779 
C 873.767321 270.98363 872.729503 268.478115 870.882435 266.631047 
C 869.035366 264.783978 866.529852 263.74616 863.917702 263.74616 
C 861.305552 263.74616 858.800038 264.783978 856.952969 266.631047 
C 855.105901 268.478115 854.068083 270.98363 854.068083 273.595779 
C 854.068083 276.207929 855.105901 278.713443 856.952969 280.560512 
C 858.800038 282.40758 861.305552 283.445399 863.917702 283.445399 
z
" clip-path="url(#pde7dec1522)" style="fill: #073b4c; fill-opacity: 0.6; stroke: #ffffff; stroke-opacity: 0.6; stroke-width: 1.5"/>
    <path d="M 871.509878 257.679616 
C 874.121927 257.679616 876.627344 256.641838 878.474342 254.794841 
C 880.321339 252.947844 881.359117 250.442426 881.359117 247.830378 
C 881.359117 245.218329 880.321339 242.712912 878.474342 240.865914 
C 876.627344 239.018917 874.121927 237.981139 871.509878 237.981139 
C 868.89783 237.981139 866.392412 239.018917 864.545415 240.865914 
C 862.698418 242.712912 861.66064 245.218329 861.66064 247.830378 
C 861.66064 250.442426 862.698418 252.947844 864.545415 254.794841 
C 866.392412 256.641838 868.89783 257.679616 871.509878 257.679616 
z
" clip-path="url(#pde7dec1522)" style="fill: #073b4c; fill-opacity: 0.6; stroke: #ffffff; stroke-opacity: 0.6; stroke-width: 1.5"/>
    <path d="M 858.556751 231.087944 
C 861.168598 231.087944 863.673821 230.050246 865.520676 228.203392 
C 867.36753 226.356537 868.405228 223.851313 868.405228 221.239467 
C 868.405228 218.62762 867.36753 216.122396 865.520676 214.275542 
C 863.673821 212.428687 861.168598 211.39099 858.556751 211.39099 
C 855.944904 211.39099 853.439681 212.428687 851.592826 214.275542 
C 849.745972 216.122396 848.708274 218.62762 848.708274 221.239467 
C 848.708274 223.851313 849.745972 226.356537 851.592826 228.203392 
C 853.439681 230.050246 855.944904 231.087944 858.556751 231.087944 
z
" clip-path="url(#pde7dec1522)" style="fill: #073b4c; fill-opacity: 0.6; stroke: #ffffff; stroke-opacity: 0.6; stroke-width: 1.5"/>
   </g>
   <g id="text_14">
    <text style="font-weight: 700; font-size: 6px; font-family: 'Microsoft YaHei', 'PingFang SC', 'WenQuanYi Micro Hei', 'Arial', 'DejaVu Sans', sans-serif; text-anchor: middle; fill: #2c3e50" x="895.079831" y="208.963906" transform="rotate(-0 895.079831 208.963906)">synt</text>
   </g>
   <g id="text_15">
    <text style="font-weight: 700; font-size: 6px; font-family: 'Microsoft YaHei', 'PingFang SC', 'WenQuanYi Micro Hei', 'Arial', 'DejaVu Sans', sans-serif; text-anchor: middle; fill: #2c3e50" x="852.825987" y="196.956165" transform="rotate(-0 852.825987 196.956165)">unre</text>
   </g>
   <g id="text_16">
    <text style="font-weight: 700; font-size: 6px; font-family: 'Microsoft YaHei', 'PingFang SC', 'WenQuanYi Micro Hei', 'Arial', 'DejaVu Sans', sans-serif; text-anchor: middle; fill: #2c3e50" x="875.901923" y="165.312209" transform="rotate(-0 875.901923 165.312209)">noti</text>
   </g>
   <g id="text_17">
    <text style="font-weight: 700; font-size: 6px; font-family: 'Microsoft YaHei', 'PingFang SC', 'WenQuanYi Micro Hei', 'Arial', 'DejaVu Sans', sans-serif; text-anchor: middle; fill: #2c3e50" x="846.982466" y="166.047168" transform="rotate(-0 846.982466 166.047168)">requ</text>
   </g>
   <g id="text_18">
    <text style="font-weight: 700; font-size: 6px; font-family: 'Microsoft YaHei', 'PingFang SC', 'WenQuanYi Micro Hei', 'Arial', 'DejaVu Sans', sans-serif; text-anchor: middle; fill: #2c3e50" x="832.164028" y="158.5697" transform="rotate(-0 832.164028 158.5697)">mand</text>
   </g>
   <g id="text_19">
    <text style="font-weight: 700; font-size: 9px; font-family: 'Microsoft YaHei', 'PingFang SC', 'WenQuanYi Micro Hei', 'Arial', 'DejaVu Sans', sans-serif; text-anchor: middle" x="815.780515" y="64.7" transform="rotate(-0 815.780515 64.7)">工程环保管理与生态评估</text>
   </g>
  </g>
  <g id="axes_4">
   <g id="PathCollection_4">
    <path d="M 254.188533 509.739649 
C 256.803509 509.739649 259.311733 508.700708 261.1608 506.851641 
C 263.009867 505.002575 264.048807 502.49435 264.048807 499.879375 
C 264.048807 497.2644 263.009867 494.756175 261.1608 492.907109 
C 259.311733 491.058042 256.803509 490.019101 254.188533 490.019101 
C 251.573558 490.019101 249.065334 491.058042 247.216267 492.907109 
C 245.3672 494.756175 244.32826 497.2644 244.32826 499.879375 
C 244.32826 502.49435 245.3672 505.002575 247.216267 506.851641 
C 249.065334 508.700708 251.573558 509.739649 254.188533 509.739649 
z
" clip-path="url(#p9049ef8eb6)" style="fill: #06a77d; fill-opacity: 0.6; stroke: #ffffff; stroke-opacity: 0.6; stroke-width: 1.5"/>
    <path d="M 226.791087 490.100774 
C 229.404347 490.100774 231.910926 489.062515 233.75878 487.214661 
C 235.606634 485.366807 236.644893 482.860228 236.644893 480.246968 
C 236.644893 477.633708 235.606634 475.127128 233.75878 473.279274 
C 231.910926 471.431421 229.404347 470.393161 226.791087 470.393161 
C 224.177827 470.393161 221.671247 471.431421 219.823393 473.279274 
C 217.97554 475.127128 216.93728 477.633708 216.93728 480.246968 
C 216.93728 482.860228 217.97554 485.366807 219.823393 487.214661 
C 221.671247 489.062515 224.177827 490.100774 226.791087 490.100774 
z
" clip-path="url(#p9049ef8eb6)" style="fill: #06a77d; fill-opacity: 0.6; stroke: #ffffff; stroke-opacity: 0.6; stroke-width: 1.5"/>
    <path d="M 205.779919 481.098911 
C 208.393078 481.098911 210.899561 480.060691 212.747343 478.212909 
C 214.595126 476.365126 215.633345 473.858644 215.633345 471.245485 
C 215.633345 468.632326 214.595126 466.125843 212.747343 464.278061 
C 210.899561 462.430278 208.393078 461.392059 205.779919 461.392059 
C 203.16676 461.392059 200.660277 462.430278 198.812495 464.278061 
C 196.964712 466.125843 195.926493 468.632326 195.926493 471.245485 
C 195.926493 473.858644 196.964712 476.365126 198.812495 478.212909 
C 200.660277 480.060691 203.16676 481.098911 205.779919 481.098911 
z
" clip-path="url(#p9049ef8eb6)" style="fill: #06a77d; fill-opacity: 0.6; stroke: #ffffff; stroke-opacity: 0.6; stroke-width: 1.5"/>
    <path d="M 188.370559 479.445722 
C 190.982608 479.445722 193.488025 478.407944 195.335022 476.560946 
C 197.18202 474.713949 198.219797 472.208532 198.219797 469.596483 
C 198.219797 466.984434 197.18202 464.479017 195.335022 462.63202 
C 193.488025 460.785022 190.982608 459.747244 188.370559 459.747244 
C 185.75851 459.747244 183.253093 460.785022 181.406096 462.63202 
C 179.559098 464.479017 178.52132 466.984434 178.52132 469.596483 
C 178.52132 472.208532 179.559098 474.713949 181.406096 476.560946 
C 183.253093 478.407944 185.75851 479.445722 188.370559 479.445722 
z
" clip-path="url(#p9049ef8eb6)" style="fill: #06a77d; fill-opacity: 0.6; stroke: #ffffff; stroke-opacity: 0.6; stroke-width: 1.5"/>
    <path d="M 184.206638 454.828477 
C 186.818485 454.828477 189.323709 453.790779 191.170563 451.943924 
C 193.017418 450.09707 194.055115 447.591846 194.055115 444.979999 
C 194.055115 442.368153 193.017418 439.862929 191.170563 438.016075 
C 189.323709 436.16922 186.818485 435.131522 184.206638 435.131522 
C 181.594792 435.131522 179.089568 436.16922 177.242714 438.016075 
C 175.395859 439.862929 174.358161 442.368153 174.358161 444.979999 
C 174.358161 447.591846 175.395859 450.09707 177.242714 451.943924 
C 179.089568 453.790779 181.594792 454.828477 184.206638 454.828477 
z
" clip-path="url(#p9049ef8eb6)" style="fill: #06a77d; fill-opacity: 0.6; stroke: #ffffff; stroke-opacity: 0.6; stroke-width: 1.5"/>
    <path d="M 166.36875 450.436291 
C 168.980395 450.436291 171.485425 449.398673 173.332136 447.551962 
C 175.178848 445.70525 176.216465 443.20022 176.216465 440.588575 
C 176.216465 437.97693 175.178848 435.4719 173.332136 433.625189 
C 171.485425 431.778477 168.980395 430.74086 166.36875 430.74086 
C 163.757105 430.74086 161.252075 431.778477 159.405364 433.625189 
C 157.558652 435.4719 156.521035 437.97693 156.521035 440.588575 
C 156.521035 443.20022 157.558652 445.70525 159.405364 447.551962 
C 161.252075 449.398673 163.757105 450.436291 166.36875 450.436291 
z
" clip-path="url(#p9049ef8eb6)" style="fill: #06a77d; fill-opacity: 0.6; stroke: #ffffff; stroke-opacity: 0.6; stroke-width: 1.5"/>
    <path d="M 155.293019 475.639496 
C 157.904664 475.639496 160.409694 474.601878 162.256405 472.755167 
C 164.103117 470.908455 165.140735 468.403425 165.140735 465.79178 
C 165.140735 463.180136 164.103117 460.675106 162.256405 458.828394 
C 160.409694 456.981682 157.904664 455.944065 155.293019 455.944065 
C 152.681374 455.944065 150.176344 456.981682 148.329633 458.828394 
C 146.482921 460.675106 145.445304 463.180136 145.445304 465.79178 
C 145.445304 468.403425 146.482921 470.908455 148.329633 472.755167 
C 150.176344 474.601878 152.681374 475.639496 155.293019 475.639496 
z
" clip-path="url(#p9049ef8eb6)" style="fill: #06a77d; fill-opacity: 0.6; stroke: #ffffff; stroke-opacity: 0.6; stroke-width: 1.5"/>
    <path d="M 141.572091 475.596655 
C 144.183533 475.596655 146.68837 474.559118 148.534938 472.712549 
C 150.381507 470.86598 151.419045 468.361144 151.419045 465.749701 
C 151.419045 463.138259 150.381507 460.633422 148.534938 458.786854 
C 146.68837 456.940285 144.183533 455.902748 141.572091 455.902748 
C 138.960648 455.902748 136.455812 456.940285 134.609243 458.786854 
C 132.762674 460.633422 131.725137 463.138259 131.725137 465.749701 
C 131.725137 468.361144 132.762674 470.86598 134.609243 472.712549 
C 136.455812 474.559118 138.960648 475.596655 141.572091 475.596655 
z
" clip-path="url(#p9049ef8eb6)" style="fill: #06a77d; fill-opacity: 0.6; stroke: #ffffff; stroke-opacity: 0.6; stroke-width: 1.5"/>
    <path d="M 134.357245 486.466705 
C 136.968183 486.466705 139.472535 485.429369 141.318747 483.583157 
C 143.164958 481.736945 144.202295 479.232593 144.202295 476.621656 
C 144.202295 474.010718 143.164958 471.506366 141.318747 469.660154 
C 139.472535 467.813943 136.968183 466.776606 134.357245 466.776606 
C 131.746308 466.776606 129.241956 467.813943 127.395744 469.660154 
C 125.549532 471.506366 124.512196 474.010718 124.512196 476.621656 
C 124.512196 479.232593 125.549532 481.736945 127.395744 483.583157 
C 129.241956 485.429369 131.746308 486.466705 134.357245 486.466705 
z
" clip-path="url(#p9049ef8eb6)" style="fill: #06a77d; fill-opacity: 0.6; stroke: #ffffff; stroke-opacity: 0.6; stroke-width: 1.5"/>
    <path d="M 101.854624 488.760991 
C 104.465157 488.760991 106.969122 487.723815 108.815048 485.877889 
C 110.660974 484.031963 111.69815 481.527998 111.69815 478.917465 
C 111.69815 476.306931 110.660974 473.802967 108.815048 471.957041 
C 106.969122 470.111115 104.465157 469.073939 101.854624 469.073939 
C 99.24409 469.073939 96.740126 470.111115 94.8942 471.957041 
C 93.048274 473.802967 92.011098 476.306931 92.011098 478.917465 
C 92.011098 481.527998 93.048274 484.031963 94.8942 485.877889 
C 96.740126 487.723815 99.24409 488.760991 101.854624 488.760991 
z
" clip-path="url(#p9049ef8eb6)" style="fill: #06a77d; fill-opacity: 0.6; stroke: #ffffff; stroke-opacity: 0.6; stroke-width: 1.5"/>
    <path d="M 85.890043 509.717566 
C 88.499162 509.717566 91.001769 508.680952 92.846694 506.836026 
C 94.69162 504.991101 95.728234 502.488494 95.728234 499.879375 
C 95.728234 497.270256 94.69162 494.767649 92.846694 492.922724 
C 91.001769 491.077798 88.499162 490.041184 85.890043 490.041184 
C 83.280924 490.041184 80.778317 491.077798 78.933391 492.922724 
C 77.088466 494.767649 76.051852 497.270256 76.051852 499.879375 
C 76.051852 502.488494 77.088466 504.991101 78.933391 506.836026 
C 80.778317 508.680952 83.280924 509.717566 85.890043 509.717566 
z
" clip-path="url(#p9049ef8eb6)" style="fill: #06a77d; fill-opacity: 0.6; stroke: #ffffff; stroke-opacity: 0.6; stroke-width: 1.5"/>
    <path d="M 100.660903 531.066577 
C 103.269819 531.066577 105.772232 530.030044 107.617015 528.185261 
C 109.461798 526.340479 110.498331 523.838065 110.498331 521.229149 
C 110.498331 518.620232 109.461798 516.117819 107.617015 514.273036 
C 105.772232 512.428254 103.269819 511.39172 100.660903 511.39172 
C 98.051986 511.39172 95.549573 512.428254 93.70479 514.273036 
C 91.860008 516.117819 90.823474 518.620232 90.823474 521.229149 
C 90.823474 523.838065 91.860008 526.340479 93.70479 528.185261 
C 95.549573 530.030044 98.051986 531.066577 100.660903 531.066577 
z
" clip-path="url(#p9049ef8eb6)" style="fill: #06a77d; fill-opacity: 0.6; stroke: #ffffff; stroke-opacity: 0.6; stroke-width: 1.5"/>
    <path d="M 95.244588 561.391532 
C 97.853504 561.391532 100.355918 560.354999 102.2007 558.510216 
C 104.045483 556.665433 105.082016 554.16302 105.082016 551.554104 
C 105.082016 548.945187 104.045483 546.442774 102.2007 544.597991 
C 100.355918 542.753209 97.853504 541.716675 95.244588 541.716675 
C 92.635671 541.716675 90.133258 542.753209 88.288475 544.597991 
C 86.443693 546.442774 85.407159 548.945187 85.407159 551.554104 
C 85.407159 554.16302 86.443693 556.665433 88.288475 558.510216 
C 90.133258 560.354999 92.635671 561.391532 95.244588 561.391532 
z
" clip-path="url(#p9049ef8eb6)" style="fill: #06a77d; fill-opacity: 0.6; stroke: #ffffff; stroke-opacity: 0.6; stroke-width: 1.5"/>
    <path d="M 131.598315 557.574201 
C 134.207232 557.574201 136.709645 556.537668 138.554428 554.692885 
C 140.39921 552.848103 141.435744 550.345689 141.435744 547.736773 
C 141.435744 545.127856 140.39921 542.625443 138.554428 540.78066 
C 136.709645 538.935878 134.207232 537.899344 131.598315 537.899344 
C 128.989399 537.899344 126.486985 538.935878 124.642203 540.78066 
C 122.79742 542.625443 121.760887 545.127856 121.760887 547.736773 
C 121.760887 550.345689 122.79742 552.848103 124.642203 554.692885 
C 126.486985 556.537668 128.989399 557.574201 131.598315 557.574201 
z
" clip-path="url(#p9049ef8eb6)" style="fill: #06a77d; fill-opacity: 0.6; stroke: #ffffff; stroke-opacity: 0.6; stroke-width: 1.5"/>
    <path d="M 145.562205 573.752382 
C 148.171021 573.752382 150.673337 572.715888 152.518048 570.871177 
C 154.362759 569.026466 155.399253 566.52415 155.399253 563.915334 
C 155.399253 561.306519 154.362759 558.804203 152.518048 556.959492 
C 150.673337 555.114781 148.171021 554.078287 145.562205 554.078287 
C 142.95339 554.078287 140.451074 555.114781 138.606363 556.959492 
C 136.761652 558.804203 135.725158 561.306519 135.725158 563.915334 
C 135.725158 566.52415 136.761652 569.026466 138.606363 570.871177 
C 140.451074 572.715888 142.95339 573.752382 145.562205 573.752382 
z
" clip-path="url(#p9049ef8eb6)" style="fill: #06a77d; fill-opacity: 0.6; stroke: #ffffff; stroke-opacity: 0.6; stroke-width: 1.5"/>
    <path d="M 166.36875 558.497583 
C 168.977262 558.497583 171.479288 557.46121 173.323784 555.616713 
C 175.168281 553.772217 176.204654 551.270191 176.204654 548.661679 
C 176.204654 546.053167 175.168281 543.551142 173.323784 541.706645 
C 171.479288 539.862148 168.977262 538.825776 166.36875 538.825776 
C 163.760238 538.825776 161.258212 539.862148 159.413716 541.706645 
C 157.569219 543.551142 156.532846 546.053167 156.532846 548.661679 
C 156.532846 551.270191 157.569219 553.772217 159.413716 555.616713 
C 161.258212 557.46121 163.760238 558.497583 166.36875 558.497583 
z
" clip-path="url(#p9049ef8eb6)" style="fill: #06a77d; fill-opacity: 0.6; stroke: #ffffff; stroke-opacity: 0.6; stroke-width: 1.5"/>
    <path d="M 193.284396 592.552357 
C 195.892706 592.552357 198.394537 591.516064 200.238891 589.671711 
C 202.083245 587.827357 203.119537 585.325526 203.119537 582.717216 
C 203.119537 580.108906 202.083245 577.607074 200.238891 575.762721 
C 198.394537 573.918367 195.892706 572.882075 193.284396 572.882075 
C 190.676086 572.882075 188.174255 573.918367 186.329901 575.762721 
C 184.485548 577.607074 183.449255 580.108906 183.449255 582.717216 
C 183.449255 585.325526 184.485548 587.827357 186.329901 589.671711 
C 188.174255 591.516064 190.676086 592.552357 193.284396 592.552357 
z
" clip-path="url(#p9049ef8eb6)" style="fill: #06a77d; fill-opacity: 0.6; stroke: #ffffff; stroke-opacity: 0.6; stroke-width: 1.5"/>
    <path d="M 207.724472 566.635403 
C 210.332681 566.635403 212.834415 565.59915 214.678697 563.754868 
C 216.522979 561.910586 217.559232 559.408852 217.559232 556.800643 
C 217.559232 554.192434 216.522979 551.6907 214.678697 549.846417 
C 212.834415 548.002135 210.332681 546.965883 207.724472 546.965883 
C 205.116263 546.965883 202.614529 548.002135 200.770246 549.846417 
C 198.925964 551.6907 197.889712 554.192434 197.889712 556.800643 
C 197.889712 559.408852 198.925964 561.910586 200.770246 563.754868 
C 202.614529 565.59915 205.116263 566.635403 207.724472 566.635403 
z
" clip-path="url(#p9049ef8eb6)" style="fill: #06a77d; fill-opacity: 0.6; stroke: #ffffff; stroke-opacity: 0.6; stroke-width: 1.5"/>
    <path d="M 212.892846 543.515106 
C 215.500852 543.515106 218.002393 542.478934 219.846532 540.634795 
C 221.690671 538.790656 222.726843 536.289116 222.726843 533.681109 
C 222.726843 531.073103 221.690671 528.571562 219.846532 526.727423 
C 218.002393 524.883284 215.500852 523.847112 212.892846 523.847112 
C 210.284839 523.847112 207.783299 524.883284 205.93916 526.727423 
C 204.09502 528.571562 203.058848 531.073103 203.058848 533.681109 
C 203.058848 536.289116 204.09502 538.790656 205.93916 540.634795 
C 207.783299 542.478934 210.284839 543.515106 212.892846 543.515106 
z
" clip-path="url(#p9049ef8eb6)" style="fill: #06a77d; fill-opacity: 0.6; stroke: #ffffff; stroke-opacity: 0.6; stroke-width: 1.5"/>
    <path d="M 213.13247 524.907445 
C 215.740376 524.907445 218.241819 523.871313 220.085887 522.027245 
C 221.929954 520.183178 222.966086 517.681734 222.966086 515.073829 
C 222.966086 512.465923 221.929954 509.96448 220.085887 508.120412 
C 218.241819 506.276345 215.740376 505.240213 213.13247 505.240213 
C 210.524565 505.240213 208.023121 506.276345 206.179054 508.120412 
C 204.334986 509.96448 203.298854 512.465923 203.298854 515.073829 
C 203.298854 517.681734 204.334986 520.183178 206.179054 522.027245 
C 208.023121 523.871313 210.524565 524.907445 213.13247 524.907445 
z
" clip-path="url(#p9049ef8eb6)" style="fill: #06a77d; fill-opacity: 0.6; stroke: #ffffff; stroke-opacity: 0.6; stroke-width: 1.5"/>
   </g>
   <g id="text_20">
    <text style="font-weight: 700; font-size: 6px; font-family: 'Microsoft YaHei', 'PingFang SC', 'WenQuanYi Micro Hei', 'Arial', 'DejaVu Sans', sans-serif; text-anchor: middle; fill: #2c3e50" x="254.188533" y="501.531719" transform="rotate(-0 254.188533 501.531719)">corr</text>
   </g>
   <g id="text_21">
    <text style="font-weight: 700; font-size: 6px; font-family: 'Microsoft YaHei', 'PingFang SC', 'WenQuanYi Micro Hei', 'Arial', 'DejaVu Sans', sans-serif; text-anchor: middle; fill: #2c3e50" x="226.791087" y="481.899311" transform="rotate(-0 226.791087 481.899311)">frce</text>
   </g>
   <g id="text_22">
    <text style="font-weight: 700; font-size: 6px; font-family: 'Microsoft YaHei', 'PingFang SC', 'WenQuanYi Micro Hei', 'Arial', 'DejaVu Sans', sans-serif; text-anchor: middle; fill: #2c3e50" x="205.779919" y="472.897829" transform="rotate(-0 205.779919 472.897829)">qiud</text>
   </g>
   <g id="text_23">
    <text style="font-weight: 700; font-size: 6px; font-family: 'Microsoft YaHei', 'PingFang SC', 'WenQuanYi Micro Hei', 'Arial', 'DejaVu Sans', sans-serif; text-anchor: middle; fill: #2c3e50" x="188.370559" y="471.248827" transform="rotate(-0 188.370559 471.248827)">cinu</text>
   </g>
   <g id="text_24">
    <text style="font-weight: 700; font-size: 6px; font-family: 'Microsoft YaHei', 'PingFang SC', 'WenQuanYi Micro Hei', 'Arial', 'DejaVu Sans', sans-serif; text-anchor: middle; fill: #2c3e50" x="184.206638" y="446.603281" transform="rotate(-0 184.206638 446.603281)">wang</text>
   </g>
   <g id="text_25">
    <text style="font-weight: 700; font-size: 9px; font-family: 'Microsoft YaHei', 'PingFang SC', 'WenQuanYi Micro Hei', 'Arial', 'DejaVu Sans', sans-serif; text-anchor: middle" x="166.36875" y="357.23875" transform="rotate(-0 166.36875 357.23875)">景观格局与栖息地破碎化</text>
   </g>
  </g>
  <g id="axes_5">
   <g id="PathCollection_5">
    <path d="M 567.554794 509.67057 
C 570.151449 509.67057 572.642102 508.638908 574.478214 506.802795 
C 576.314327 504.966683 577.345989 502.47603 577.345989 499.879375 
C 577.345989 497.28272 576.314327 494.792067 574.478214 492.955955 
C 572.642102 491.119842 570.151449 490.08818 567.554794 490.08818 
C 564.958139 490.08818 562.467486 491.119842 560.631374 492.955955 
C 558.795261 494.792067 557.763599 497.28272 557.763599 499.879375 
C 557.763599 502.47603 558.795261 504.966683 560.631374 506.802795 
C 562.467486 508.638908 564.958139 509.67057 567.554794 509.67057 
z
" clip-path="url(#pe4dc7b9b97)" style="fill: #118ab2; fill-opacity: 0.6; stroke: #ffffff; stroke-opacity: 0.6; stroke-width: 1.5"/>
    <path d="M 555.979926 488.572749 
C 558.574244 488.572749 561.062655 487.542015 562.897115 485.707555 
C 564.731575 483.873096 565.762308 481.384685 565.762308 478.790367 
C 565.762308 476.196049 564.731575 473.707638 562.897115 471.873178 
C 561.062655 470.038718 558.574244 469.007985 555.979926 469.007985 
C 553.385608 469.007985 550.897197 470.038718 549.062737 471.873178 
C 547.228277 473.707638 546.197544 476.196049 546.197544 478.790367 
C 546.197544 481.384685 547.228277 483.873096 549.062737 485.707555 
C 550.897197 487.542015 553.385608 488.572749 555.979926 488.572749 
z
" clip-path="url(#pe4dc7b9b97)" style="fill: #118ab2; fill-opacity: 0.6; stroke: #ffffff; stroke-opacity: 0.6; stroke-width: 1.5"/>
    <path d="M 529.036948 482.069397 
C 531.628316 482.069397 534.113897 481.039836 535.946271 479.207462 
C 537.778645 477.375088 538.808207 474.889506 538.808207 472.298138 
C 538.808207 469.70677 537.778645 467.221189 535.946271 465.388815 
C 534.113897 463.556441 531.628316 462.526879 529.036948 462.526879 
C 526.44558 462.526879 523.959999 463.556441 522.127625 465.388815 
C 520.295251 467.221189 519.265689 469.70677 519.265689 472.298138 
C 519.265689 474.889506 520.295251 477.375088 522.127625 479.207462 
C 523.959999 481.039836 526.44558 482.069397 529.036948 482.069397 
z
" clip-path="url(#pe4dc7b9b97)" style="fill: #118ab2; fill-opacity: 0.6; stroke: #ffffff; stroke-opacity: 0.6; stroke-width: 1.5"/>
    <path d="M 535.191842 448.910835 
C 537.778524 448.910835 540.25961 447.883135 542.088671 446.054074 
C 543.917731 444.225014 544.945431 441.743928 544.945431 439.157246 
C 544.945431 436.570563 543.917731 434.089477 542.088671 432.260417 
C 540.25961 430.431356 537.778524 429.403656 535.191842 429.403656 
C 532.60516 429.403656 530.124073 430.431356 528.295013 432.260417 
C 526.465952 434.089477 525.438253 436.570563 525.438253 439.157246 
C 525.438253 441.743928 526.465952 444.225014 528.295013 446.054074 
C 530.124073 447.883135 532.60516 448.910835 535.191842 448.910835 
z
" clip-path="url(#pe4dc7b9b97)" style="fill: #118ab2; fill-opacity: 0.6; stroke: #ffffff; stroke-opacity: 0.6; stroke-width: 1.5"/>
    <path d="M 506.668543 461.638303 
C 509.254818 461.638303 511.735513 460.610765 513.564285 458.781993 
C 515.393057 456.953221 516.420595 454.472526 516.420595 451.886251 
C 516.420595 449.299977 515.393057 446.819282 513.564285 444.99051 
C 511.735513 443.161738 509.254818 442.1342 506.668543 442.1342 
C 504.082269 442.1342 501.601574 443.161738 499.772802 444.99051 
C 497.94403 446.819282 496.916492 449.299977 496.916492 451.886251 
C 496.916492 454.472526 497.94403 456.953221 499.772802 458.781993 
C 501.601574 460.610765 504.082269 461.638303 506.668543 461.638303 
z
" clip-path="url(#pe4dc7b9b97)" style="fill: #118ab2; fill-opacity: 0.6; stroke: #ffffff; stroke-opacity: 0.6; stroke-width: 1.5"/>
    <path d="M 491.074632 424.667271 
C 493.659376 424.667271 496.138604 423.640342 497.966294 421.812652 
C 499.793984 419.984962 500.820914 417.505734 500.820914 414.92099 
C 500.820914 412.336246 499.793984 409.857018 497.966294 408.029328 
C 496.138604 406.201638 493.659376 405.174709 491.074632 405.174709 
C 488.489888 405.174709 486.010661 406.201638 484.182971 408.029328 
C 482.355281 409.857018 481.328351 412.336246 481.328351 414.92099 
C 481.328351 417.505734 482.355281 419.984962 484.182971 421.812652 
C 486.010661 423.640342 488.489888 424.667271 491.074632 424.667271 
z
" clip-path="url(#pe4dc7b9b97)" style="fill: #118ab2; fill-opacity: 0.6; stroke: #ffffff; stroke-opacity: 0.6; stroke-width: 1.5"/>
    <path d="M 480.095506 475.834996 
C 482.680148 475.834996 485.159278 474.808107 486.986896 472.980489 
C 488.814514 471.152872 489.841403 468.673742 489.841403 466.0891 
C 489.841403 463.504458 488.814514 461.025328 486.986896 459.19771 
C 485.159278 457.370092 482.680148 456.343203 480.095506 456.343203 
C 477.510864 456.343203 475.031735 457.370092 473.204117 459.19771 
C 471.376499 461.025328 470.34961 463.504458 470.34961 466.0891 
C 470.34961 468.673742 471.376499 471.152872 473.204117 472.980489 
C 475.031735 474.808107 477.510864 475.834996 480.095506 475.834996 
z
" clip-path="url(#pe4dc7b9b97)" style="fill: #118ab2; fill-opacity: 0.6; stroke: #ffffff; stroke-opacity: 0.6; stroke-width: 1.5"/>
    <path d="M 457.261973 463.084599 
C 459.846207 463.084599 462.324945 462.057873 464.152274 460.230543 
C 465.979603 458.403214 467.00633 455.924476 467.00633 453.340242 
C 467.00633 450.756008 465.979603 448.27727 464.152274 446.449941 
C 462.324945 444.622612 459.846207 443.595885 457.261973 443.595885 
C 454.677739 443.595885 452.199001 444.622612 450.371672 446.449941 
C 448.544343 448.27727 447.517616 450.756008 447.517616 453.340242 
C 447.517616 455.924476 448.544343 458.403214 450.371672 460.230543 
C 452.199001 462.057873 454.677739 463.084599 457.261973 463.084599 
z
" clip-path="url(#pe4dc7b9b97)" style="fill: #118ab2; fill-opacity: 0.6; stroke: #ffffff; stroke-opacity: 0.6; stroke-width: 1.5"/>
    <path d="M 423.43797 460.482821 
C 426.022204 460.482821 428.500942 459.456094 430.328271 457.628764 
C 432.1556 455.801435 433.182327 453.322697 433.182327 450.738463 
C 433.182327 448.15423 432.1556 445.675491 430.328271 443.848162 
C 428.500942 442.020833 426.022204 440.994106 423.43797 440.994106 
C 420.853736 440.994106 418.374998 442.020833 416.547669 443.848162 
C 414.72034 445.675491 413.693613 448.15423 413.693613 450.738463 
C 413.693613 453.322697 414.72034 455.801435 416.547669 457.628764 
C 418.374998 459.456094 420.853736 460.482821 423.43797 460.482821 
z
" clip-path="url(#pe4dc7b9b97)" style="fill: #118ab2; fill-opacity: 0.6; stroke: #ffffff; stroke-opacity: 0.6; stroke-width: 1.5"/>
    <path d="M 435.621547 491.602853 
C 438.204964 491.602853 440.682919 490.576451 442.509671 488.749699 
C 444.336422 486.922947 445.362825 484.444992 445.362825 481.861575 
C 445.362825 479.278158 444.336422 476.800203 442.509671 474.973451 
C 440.682919 473.1467 438.204964 472.120297 435.621547 472.120297 
C 433.03813 472.120297 430.560175 473.1467 428.733423 474.973451 
C 426.906671 476.800203 425.880269 479.278158 425.880269 481.861575 
C 425.880269 484.444992 426.906671 486.922947 428.733423 488.749699 
C 430.560175 490.576451 433.03813 491.602853 435.621547 491.602853 
z
" clip-path="url(#pe4dc7b9b97)" style="fill: #118ab2; fill-opacity: 0.6; stroke: #ffffff; stroke-opacity: 0.6; stroke-width: 1.5"/>
    <path d="M 429.842506 509.618728 
C 432.425413 509.618728 434.902878 508.592528 436.729269 506.766138 
C 438.555659 504.939747 439.581859 502.462282 439.581859 499.879375 
C 439.581859 497.296468 438.555659 494.819003 436.729269 492.992612 
C 434.902878 491.166222 432.425413 490.140022 429.842506 490.140022 
C 427.259599 490.140022 424.782134 491.166222 422.955743 492.992612 
C 421.129352 494.819003 420.103153 497.296468 420.103153 499.879375 
C 420.103153 502.462282 421.129352 504.939747 422.955743 506.766138 
C 424.782134 508.592528 427.259599 509.618728 429.842506 509.618728 
z
" clip-path="url(#pe4dc7b9b97)" style="fill: #118ab2; fill-opacity: 0.6; stroke: #ffffff; stroke-opacity: 0.6; stroke-width: 1.5"/>
    <path d="M 455.07452 521.315489 
C 457.657325 521.315489 460.134692 520.28933 461.961011 518.463011 
C 463.787329 516.636692 464.813488 514.159325 464.813488 511.576521 
C 464.813488 508.993716 463.787329 506.516349 461.961011 504.69003 
C 460.134692 502.863712 457.657325 501.837552 455.07452 501.837552 
C 452.491716 501.837552 450.014348 502.863712 448.18803 504.69003 
C 446.361711 506.516349 445.335552 508.993716 445.335552 511.576521 
C 445.335552 514.159325 446.361711 516.636692 448.18803 518.463011 
C 450.014348 520.28933 452.491716 521.315489 455.07452 521.315489 
z
" clip-path="url(#pe4dc7b9b97)" style="fill: #118ab2; fill-opacity: 0.6; stroke: #ffffff; stroke-opacity: 0.6; stroke-width: 1.5"/>
    <path d="M 445.1846 542.959403 
C 447.767405 542.959403 450.244772 541.933244 452.071091 540.106925 
C 453.897409 538.280607 454.923568 535.803239 454.923568 533.220435 
C 454.923568 530.63763 453.897409 528.160263 452.071091 526.333944 
C 450.244772 524.507626 447.767405 523.481467 445.1846 523.481467 
C 442.601796 523.481467 440.124429 524.507626 438.29811 526.333944 
C 436.471791 528.160263 435.445632 530.63763 435.445632 533.220435 
C 435.445632 535.803239 436.471791 538.280607 438.29811 540.106925 
C 440.124429 541.933244 442.601796 542.959403 445.1846 542.959403 
z
" clip-path="url(#pe4dc7b9b97)" style="fill: #118ab2; fill-opacity: 0.6; stroke: #ffffff; stroke-opacity: 0.6; stroke-width: 1.5"/>
    <path d="M 447.358903 569.787498 
C 449.941605 569.787498 452.418875 568.761379 454.245121 566.935133 
C 456.071367 565.108886 457.097486 562.631617 457.097486 560.048915 
C 457.097486 557.466212 456.071367 554.988943 454.245121 553.162696 
C 452.418875 551.33645 449.941605 550.310332 447.358903 550.310332 
C 444.776201 550.310332 442.298931 551.33645 440.472685 553.162696 
C 438.646438 554.988943 437.62032 557.466212 437.62032 560.048915 
C 437.62032 562.631617 438.646438 565.108886 440.472685 566.935133 
C 442.298931 568.761379 444.776201 569.787498 447.358903 569.787498 
z
" clip-path="url(#pe4dc7b9b97)" style="fill: #118ab2; fill-opacity: 0.6; stroke: #ffffff; stroke-opacity: 0.6; stroke-width: 1.5"/>
    <path d="M 466.019201 586.727567 
C 468.601086 586.727567 471.077571 585.701773 472.90324 583.876104 
C 474.728909 582.050436 475.754703 579.57395 475.754703 576.992065 
C 475.754703 574.41018 474.728909 571.933694 472.90324 570.108025 
C 471.077571 568.282357 468.601086 567.256563 466.019201 567.256563 
C 463.437315 567.256563 460.96083 568.282357 459.135161 570.108025 
C 457.309492 571.933694 456.283699 574.41018 456.283699 576.992065 
C 456.283699 579.57395 457.309492 582.050436 459.135161 583.876104 
C 460.96083 585.701773 463.437315 586.727567 466.019201 586.727567 
z
" clip-path="url(#pe4dc7b9b97)" style="fill: #118ab2; fill-opacity: 0.6; stroke: #ffffff; stroke-opacity: 0.6; stroke-width: 1.5"/>
    <path d="M 491.074632 560.660352 
C 493.655803 560.660352 496.131602 559.634842 497.956765 557.80968 
C 499.781928 555.984517 500.807438 553.508717 500.807438 550.927547 
C 500.807438 548.346377 499.781928 545.870577 497.956765 544.045414 
C 496.131602 542.220251 493.655803 541.194742 491.074632 541.194742 
C 488.493462 541.194742 486.017663 542.220251 484.1925 544.045414 
C 482.367337 545.870577 481.341827 548.346377 481.341827 550.927547 
C 481.341827 553.508717 482.367337 555.984517 484.1925 557.80968 
C 486.017663 559.634842 488.493462 560.660352 491.074632 560.660352 
z
" clip-path="url(#pe4dc7b9b97)" style="fill: #118ab2; fill-opacity: 0.6; stroke: #ffffff; stroke-opacity: 0.6; stroke-width: 1.5"/>
    <path d="M 503.09911 546.618177 
C 505.679872 546.618177 508.155279 545.59283 509.980153 543.767956 
C 511.805027 541.943082 512.830374 539.467675 512.830374 536.886913 
C 512.830374 534.306152 511.805027 531.830744 509.980153 530.00587 
C 508.155279 528.180996 505.679872 527.155649 503.09911 527.155649 
C 500.518349 527.155649 498.042941 528.180996 496.218068 530.00587 
C 494.393194 531.830744 493.367846 534.306152 493.367846 536.886913 
C 493.367846 539.467675 494.393194 541.943082 496.218068 543.767956 
C 498.042941 545.59283 500.518349 546.618177 503.09911 546.618177 
z
" clip-path="url(#pe4dc7b9b97)" style="fill: #118ab2; fill-opacity: 0.6; stroke: #ffffff; stroke-opacity: 0.6; stroke-width: 1.5"/>
    <path d="M 536.622231 572.30076 
C 539.202788 572.30076 541.677999 571.275493 543.502729 569.450764 
C 545.327458 567.626035 546.352724 565.150823 546.352724 562.570266 
C 546.352724 559.989709 545.327458 557.514498 543.502729 555.689768 
C 541.677999 553.865039 539.202788 552.839773 536.622231 552.839773 
C 534.041674 552.839773 531.566463 553.865039 529.741733 555.689768 
C 527.917004 557.514498 526.891738 559.989709 526.891738 562.570266 
C 526.891738 565.150823 527.917004 567.626035 529.741733 569.450764 
C 531.566463 571.275493 534.041674 572.30076 536.622231 572.30076 
z
" clip-path="url(#pe4dc7b9b97)" style="fill: #118ab2; fill-opacity: 0.6; stroke: #ffffff; stroke-opacity: 0.6; stroke-width: 1.5"/>
    <path d="M 535.555442 541.926298 
C 538.135795 541.926298 540.61081 540.901113 542.435395 539.076528 
C 544.25998 537.251943 545.285165 534.776928 545.285165 532.196575 
C 545.285165 529.616223 544.25998 527.141207 542.435395 525.316622 
C 540.61081 523.492038 538.135795 522.466853 535.555442 522.466853 
C 532.97509 522.466853 530.500074 523.492038 528.67549 525.316622 
C 526.850905 527.141207 525.82572 529.616223 525.82572 532.196575 
C 525.82572 534.776928 526.850905 537.251943 528.67549 539.076528 
C 530.500074 540.901113 532.97509 541.926298 535.555442 541.926298 
z
" clip-path="url(#pe4dc7b9b97)" style="fill: #118ab2; fill-opacity: 0.6; stroke: #ffffff; stroke-opacity: 0.6; stroke-width: 1.5"/>
    <path d="M 555.608543 530.577051 
C 558.188794 530.577051 560.663711 529.551906 562.488223 527.727394 
C 564.312736 525.902881 565.33788 523.427964 565.33788 520.847714 
C 565.33788 518.267463 564.312736 515.792546 562.488223 513.968033 
C 560.663711 512.143521 558.188794 511.118377 555.608543 511.118377 
C 553.028293 511.118377 550.553375 512.143521 548.728863 513.968033 
C 546.90435 515.792546 545.879206 518.267463 545.879206 520.847714 
C 545.879206 523.427964 546.90435 525.902881 548.728863 527.727394 
C 550.553375 529.551906 553.028293 530.577051 555.608543 530.577051 
z
" clip-path="url(#pe4dc7b9b97)" style="fill: #118ab2; fill-opacity: 0.6; stroke: #ffffff; stroke-opacity: 0.6; stroke-width: 1.5"/>
   </g>
   <g id="text_26">
    <text style="font-weight: 700; font-size: 6px; font-family: 'Microsoft YaHei', 'PingFang SC', 'WenQuanYi Micro Hei', 'Arial', 'DejaVu Sans', sans-serif; text-anchor: middle; fill: #2c3e50" x="567.554794" y="501.531719" transform="rotate(-0 567.554794 501.531719)">unpr</text>
   </g>
   <g id="text_27">
    <text style="font-weight: 700; font-size: 6px; font-family: 'Microsoft YaHei', 'PingFang SC', 'WenQuanYi Micro Hei', 'Arial', 'DejaVu Sans', sans-serif; text-anchor: middle; fill: #2c3e50" x="555.979926" y="480.413648" transform="rotate(-0 555.979926 480.413648)">meng</text>
   </g>
   <g id="text_28">
    <text style="font-weight: 700; font-size: 6px; font-family: 'Microsoft YaHei', 'PingFang SC', 'WenQuanYi Micro Hei', 'Arial', 'DejaVu Sans', sans-serif; text-anchor: middle; fill: #2c3e50" x="529.036948" y="473.950482" transform="rotate(-0 529.036948 473.950482)">allo</text>
   </g>
   <g id="text_29">
    <text style="font-weight: 700; font-size: 6px; font-family: 'Microsoft YaHei', 'PingFang SC', 'WenQuanYi Micro Hei', 'Arial', 'DejaVu Sans', sans-serif; text-anchor: middle; fill: #2c3e50" x="535.191842" y="440.809589" transform="rotate(-0 535.191842 440.809589)">wate</text>
   </g>
   <g id="text_30">
    <text style="font-weight: 700; font-size: 6px; font-family: 'Microsoft YaHei', 'PingFang SC', 'WenQuanYi Micro Hei', 'Arial', 'DejaVu Sans', sans-serif; text-anchor: middle; fill: #2c3e50" x="506.668543" y="453.538595" transform="rotate(-0 506.668543 453.538595)">melo</text>
   </g>
   <g id="text_31">
    <text style="font-weight: 700; font-size: 9px; font-family: 'Microsoft YaHei', 'PingFang SC', 'WenQuanYi Micro Hei', 'Arial', 'DejaVu Sans', sans-serif; text-anchor: middle" x="491.074632" y="357.23875" transform="rotate(-0 491.074632 357.23875)">水文情势与水环境扰动</text>
   </g>
  </g>
  <g id="axes_6">
   <g id="PathCollection_6">
    <path d="M 855.21283 509.714516 
C 857.82114 509.714516 860.322971 508.678224 862.167325 506.83387 
C 864.011679 504.989516 865.047971 502.487685 865.047971 499.879375 
C 865.047971 497.271065 864.011679 494.769234 862.167325 492.92488 
C 860.322971 491.080526 857.82114 490.044234 855.21283 490.044234 
C 852.60452 490.044234 850.102689 491.080526 848.258335 492.92488 
C 846.413981 494.769234 845.377689 497.271065 845.377689 499.879375 
C 845.377689 502.487685 846.413981 504.989516 848.258335 506.83387 
C 850.102689 508.678224 852.60452 509.714516 855.21283 509.714516 
z
" clip-path="url(#p83117689ad)" style="fill: #9d4edd; fill-opacity: 0.6; stroke: #ffffff; stroke-opacity: 0.6; stroke-width: 1.5"/>
    <path d="M 898.53845 482.817204 
C 901.144736 482.817204 903.644627 481.781716 905.48755 479.938793 
C 907.330473 478.09587 908.365962 475.595979 908.365962 472.989692 
C 908.365962 470.383405 907.330473 467.883514 905.48755 466.040591 
C 903.644627 464.197668 901.144736 463.16218 898.53845 463.16218 
C 895.932163 463.16218 893.432272 464.197668 891.589349 466.040591 
C 889.746426 467.883514 888.710937 470.383405 888.710937 472.989692 
C 888.710937 475.595979 889.746426 478.09587 891.589349 479.938793 
C 893.432272 481.781716 895.932163 482.817204 898.53845 482.817204 
z
" clip-path="url(#p83117689ad)" style="fill: #9d4edd; fill-opacity: 0.6; stroke: #ffffff; stroke-opacity: 0.6; stroke-width: 1.5"/>
    <path d="M 875.190742 466.535196 
C 877.795005 466.535196 880.292953 465.500511 882.134445 463.65902 
C 883.975936 461.817529 885.01062 459.31958 885.01062 456.715318 
C 885.01062 454.111056 883.975936 451.613107 882.134445 449.771616 
C 880.292953 447.930124 877.795005 446.89544 875.190742 446.89544 
C 872.58648 446.89544 870.088532 447.930124 868.24704 449.771616 
C 866.405549 451.613107 865.370865 454.111056 865.370865 456.715318 
C 865.370865 459.31958 866.405549 461.817529 868.24704 463.65902 
C 870.088532 465.500511 872.58648 466.535196 875.190742 466.535196 
z
" clip-path="url(#p83117689ad)" style="fill: #9d4edd; fill-opacity: 0.6; stroke: #ffffff; stroke-opacity: 0.6; stroke-width: 1.5"/>
    <path d="M 846.689027 467.156572 
C 849.293086 467.156572 851.790841 466.121968 853.632189 464.28062 
C 855.473537 462.439272 856.508141 459.941517 856.508141 457.337458 
C 856.508141 454.733398 855.473537 452.235644 853.632189 450.394295 
C 851.790841 448.552947 849.293086 447.518344 846.689027 447.518344 
C 844.084967 447.518344 841.587213 448.552947 839.745865 450.394295 
C 837.904517 452.235644 836.869913 454.733398 836.869913 457.337458 
C 836.869913 459.941517 837.904517 462.439272 839.745865 464.28062 
C 841.587213 466.121968 844.084967 467.156572 846.689027 467.156572 
z
" clip-path="url(#p83117689ad)" style="fill: #9d4edd; fill-opacity: 0.6; stroke: #ffffff; stroke-opacity: 0.6; stroke-width: 1.5"/>
    <path d="M 838.112344 440.967422 
C 840.716201 440.967422 843.213761 439.932898 845.054966 438.091693 
C 846.896171 436.250489 847.930694 433.752928 847.930694 431.149071 
C 847.930694 428.545215 846.896171 426.047654 845.054966 424.206449 
C 843.213761 422.365245 840.716201 421.330721 838.112344 421.330721 
C 835.508487 421.330721 833.010927 422.365245 831.169722 424.206449 
C 829.328517 426.047654 828.293994 428.545215 828.293994 431.149071 
C 828.293994 433.752928 829.328517 436.250489 831.169722 438.091693 
C 833.010927 439.932898 835.508487 440.967422 838.112344 440.967422 
z
" clip-path="url(#p83117689ad)" style="fill: #9d4edd; fill-opacity: 0.6; stroke: #ffffff; stroke-opacity: 0.6; stroke-width: 1.5"/>
    <path d="M 815.780515 432.339385 
C 818.382649 432.339385 820.878557 431.305546 822.718544 429.465559 
C 824.558531 427.625572 825.59237 425.129664 825.59237 422.52753 
C 825.59237 419.925395 824.558531 417.429487 822.718544 415.5895 
C 820.878557 413.749513 818.382649 412.715674 815.780515 412.715674 
C 813.17838 412.715674 810.682472 413.749513 808.842485 415.5895 
C 807.002499 417.429487 805.96866 419.925395 805.96866 422.52753 
C 805.96866 425.129664 807.002499 427.625572 808.842485 429.465559 
C 810.682472 431.305546 813.17838 432.339385 815.780515 432.339385 
z
" clip-path="url(#p83117689ad)" style="fill: #9d4edd; fill-opacity: 0.6; stroke: #ffffff; stroke-opacity: 0.6; stroke-width: 1.5"/>
    <path d="M 794.508287 444.221662 
C 797.11032 444.221662 799.60613 443.187863 801.446046 441.347948 
C 803.285961 439.508033 804.319759 437.012222 804.319759 434.410189 
C 804.319759 431.808156 803.285961 429.312345 801.446046 427.47243 
C 799.60613 425.632515 797.11032 424.598716 794.508287 424.598716 
C 791.906254 424.598716 789.410443 425.632515 787.570528 427.47243 
C 785.730612 429.312345 784.696814 431.808156 784.696814 434.410189 
C 784.696814 437.012222 785.730612 439.508033 787.570528 441.347948 
C 789.410443 443.187863 791.906254 444.221662 794.508287 444.221662 
z
" clip-path="url(#p83117689ad)" style="fill: #9d4edd; fill-opacity: 0.6; stroke: #ffffff; stroke-opacity: 0.6; stroke-width: 1.5"/>
    <path d="M 782.821161 464.323513 
C 785.422484 464.323513 787.917614 463.289996 789.757027 461.450583 
C 791.596441 459.611169 792.629958 457.116039 792.629958 454.514716 
C 792.629958 451.913392 791.596441 449.418262 789.757027 447.578849 
C 787.917614 445.739435 785.422484 444.705919 782.821161 444.705919 
C 780.219837 444.705919 777.724707 445.739435 775.885294 447.578849 
C 774.04588 449.418262 773.012363 451.913392 773.012363 454.514716 
C 773.012363 457.116039 774.04588 459.611169 775.885294 461.450583 
C 777.724707 463.289996 780.219837 464.323513 782.821161 464.323513 
z
" clip-path="url(#p83117689ad)" style="fill: #9d4edd; fill-opacity: 0.6; stroke: #ffffff; stroke-opacity: 0.6; stroke-width: 1.5"/>
    <path d="M 757.385409 467.260879 
C 759.986529 467.260879 762.481465 466.227443 764.320735 464.388173 
C 766.160005 462.548903 767.193441 460.053968 767.193441 457.452847 
C 767.193441 454.851726 766.160005 452.356791 764.320735 450.517521 
C 762.481465 448.678251 759.986529 447.644815 757.385409 447.644815 
C 754.784288 447.644815 752.289352 448.678251 750.450082 450.517521 
C 748.610812 452.356791 747.577376 454.851726 747.577376 457.452847 
C 747.577376 460.053968 748.610812 462.548903 750.450082 464.388173 
C 752.289352 466.227443 754.784288 467.260879 757.385409 467.260879 
z
" clip-path="url(#p83117689ad)" style="fill: #9d4edd; fill-opacity: 0.6; stroke: #ffffff; stroke-opacity: 0.6; stroke-width: 1.5"/>
    <path d="M 771.278954 495.226827 
C 773.879771 495.226827 776.374415 494.193512 778.213469 492.354457 
C 780.052524 490.515402 781.08584 488.020758 781.08584 485.419942 
C 781.08584 482.819125 780.052524 480.324481 778.213469 478.485426 
C 776.374415 476.646371 773.879771 475.613056 771.278954 475.613056 
C 768.678138 475.613056 766.183494 476.646371 764.344439 478.485426 
C 762.505384 480.324481 761.472069 482.819125 761.472069 485.419942 
C 761.472069 488.020758 762.505384 490.515402 764.344439 492.354457 
C 766.183494 494.193512 768.678138 495.226827 771.278954 495.226827 
z
" clip-path="url(#p83117689ad)" style="fill: #9d4edd; fill-opacity: 0.6; stroke: #ffffff; stroke-opacity: 0.6; stroke-width: 1.5"/>
    <path d="M 768.472443 509.685113 
C 771.072956 509.685113 773.567308 508.651919 775.406147 506.813079 
C 777.244987 504.974239 778.278182 502.479887 778.278182 499.879375 
C 778.278182 497.278863 777.244987 494.784511 775.406147 492.945671 
C 773.567308 491.106831 771.072956 490.073637 768.472443 490.073637 
C 765.871931 490.073637 763.377579 491.106831 761.53874 492.945671 
C 759.6999 494.784511 758.666705 497.278863 758.666705 499.879375 
C 758.666705 502.479887 759.6999 504.974239 761.53874 506.813079 
C 763.377579 508.651919 765.871931 509.685113 768.472443 509.685113 
z
" clip-path="url(#p83117689ad)" style="fill: #9d4edd; fill-opacity: 0.6; stroke: #ffffff; stroke-opacity: 0.6; stroke-width: 1.5"/>
    <path d="M 782.981248 520.341858 
C 785.581659 520.341858 788.075913 519.308704 789.914681 517.469936 
C 791.753449 515.631168 792.786604 513.136914 792.786604 510.536503 
C 792.786604 507.936092 791.753449 505.441837 789.914681 503.603069 
C 788.075913 501.764301 785.581659 500.731147 782.981248 500.731147 
C 780.380837 500.731147 777.886582 501.764301 776.047814 503.603069 
C 774.209046 505.441837 773.175892 507.936092 773.175892 510.536503 
C 773.175892 513.136914 774.209046 515.631168 776.047814 517.469936 
C 777.886582 519.308704 780.380837 520.341858 782.981248 520.341858 
z
" clip-path="url(#p83117689ad)" style="fill: #9d4edd; fill-opacity: 0.6; stroke: #ffffff; stroke-opacity: 0.6; stroke-width: 1.5"/>
    <path d="M 784.539161 532.377547 
C 787.138152 532.377547 789.631044 531.344957 791.468808 529.507193 
C 793.306572 527.66943 794.339161 525.176537 794.339161 522.577547 
C 794.339161 519.978556 793.306572 517.485664 791.468808 515.6479 
C 789.631044 513.810137 787.138152 512.777547 784.539161 512.777547 
C 781.940171 512.777547 779.447279 513.810137 777.609515 515.6479 
C 775.771751 517.485664 774.739161 519.978556 774.739161 522.577547 
C 774.739161 525.176537 775.771751 527.66943 777.609515 529.507193 
C 779.447279 531.344957 781.940171 532.377547 784.539161 532.377547 
z
" clip-path="url(#p83117689ad)" style="fill: #9d4edd; fill-opacity: 0.6; stroke: #ffffff; stroke-opacity: 0.6; stroke-width: 1.5"/>
    <path d="M 786.529761 549.939584 
C 789.128751 549.939584 791.621644 548.906994 793.459407 547.06923 
C 795.297171 545.231466 796.329761 542.738574 796.329761 540.139584 
C 796.329761 537.540593 795.297171 535.047701 793.459407 533.209937 
C 791.621644 531.372174 789.128751 530.339584 786.529761 530.339584 
C 783.93077 530.339584 781.437878 531.372174 779.600114 533.209937 
C 777.762351 535.047701 776.729761 537.540593 776.729761 540.139584 
C 776.729761 542.738574 777.762351 545.231466 779.600114 547.06923 
C 781.437878 548.906994 783.93077 549.939584 786.529761 549.939584 
z
" clip-path="url(#p83117689ad)" style="fill: #9d4edd; fill-opacity: 0.6; stroke: #ffffff; stroke-opacity: 0.6; stroke-width: 1.5"/>
    <path d="M 794.588661 574.901195 
C 797.187651 574.901195 799.680543 573.868606 801.518307 572.030842 
C 803.356071 570.193078 804.388661 567.700186 804.388661 565.101195 
C 804.388661 562.502205 803.356071 560.009313 801.518307 558.171549 
C 799.680543 556.333785 797.187651 555.301195 794.588661 555.301195 
C 791.98967 555.301195 789.496778 556.333785 787.659014 558.171549 
C 785.82125 560.009313 784.788661 562.502205 784.788661 565.101195 
C 784.788661 567.700186 785.82125 570.193078 787.659014 572.030842 
C 789.496778 573.868606 791.98967 574.901195 794.588661 574.901195 
z
" clip-path="url(#p83117689ad)" style="fill: #9d4edd; fill-opacity: 0.6; stroke: #ffffff; stroke-opacity: 0.6; stroke-width: 1.5"/>
    <path d="M 815.780515 560.645826 
C 818.379201 560.645826 820.871801 559.613358 822.709349 557.775809 
C 824.546898 555.938261 825.579367 553.44566 825.579367 550.846974 
C 825.579367 548.248289 824.546898 545.755688 822.709349 543.91814 
C 820.871801 542.080591 818.379201 541.048122 815.780515 541.048122 
C 813.181829 541.048122 810.689228 542.080591 808.85168 543.91814 
C 807.014132 545.755688 805.981663 548.248289 805.981663 550.846974 
C 805.981663 553.44566 807.014132 555.938261 808.85168 557.775809 
C 810.689228 559.613358 813.181829 560.645826 815.780515 560.645826 
z
" clip-path="url(#p83117689ad)" style="fill: #9d4edd; fill-opacity: 0.6; stroke: #ffffff; stroke-opacity: 0.6; stroke-width: 1.5"/>
    <path d="M 829.195513 550.964964 
C 831.794098 550.964964 834.286601 549.932536 836.124077 548.095059 
C 837.961554 546.257583 838.993983 543.76508 838.993983 541.166495 
C 838.993983 538.567911 837.961554 536.075408 836.124077 534.237931 
C 834.286601 532.400454 831.794098 531.368026 829.195513 531.368026 
C 826.596929 531.368026 824.104426 532.400454 822.266949 534.237931 
C 820.429473 536.075408 819.397044 538.567911 819.397044 541.166495 
C 819.397044 543.76508 820.429473 546.257583 822.266949 548.095059 
C 824.104426 549.932536 826.596929 550.964964 829.195513 550.964964 
z
" clip-path="url(#p83117689ad)" style="fill: #9d4edd; fill-opacity: 0.6; stroke: #ffffff; stroke-opacity: 0.6; stroke-width: 1.5"/>
    <path d="M 865.066676 577.514042 
C 867.665159 577.514042 870.157564 576.481654 871.994969 574.644249 
C 873.832374 572.806844 874.864762 570.314439 874.864762 567.715956 
C 874.864762 565.117473 873.832374 562.625067 871.994969 560.787662 
C 870.157564 558.950257 867.665159 557.917869 865.066676 557.917869 
C 862.468193 557.917869 859.975787 558.950257 858.138382 560.787662 
C 856.300977 562.625067 855.268589 565.117473 855.268589 567.715956 
C 855.268589 570.314439 856.300977 572.806844 858.138382 574.644249 
C 859.975787 576.481654 862.468193 577.514042 865.066676 577.514042 
z
" clip-path="url(#p83117689ad)" style="fill: #9d4edd; fill-opacity: 0.6; stroke: #ffffff; stroke-opacity: 0.6; stroke-width: 1.5"/>
    <path d="M 854.721024 537.968632 
C 857.319304 537.968632 859.811515 536.936325 861.648776 535.099063 
C 863.486037 533.261802 864.518345 530.769591 864.518345 528.171311 
C 864.518345 525.573031 863.486037 523.08082 861.648776 521.243559 
C 859.811515 519.406298 857.319304 518.37399 854.721024 518.37399 
C 852.122744 518.37399 849.630533 519.406298 847.793272 521.243559 
C 845.95601 523.08082 844.923703 525.573031 844.923703 528.171311 
C 844.923703 530.769591 845.95601 533.261802 847.793272 535.099063 
C 849.630533 536.936325 852.122744 537.968632 854.721024 537.968632 
z
" clip-path="url(#p83117689ad)" style="fill: #9d4edd; fill-opacity: 0.6; stroke: #ffffff; stroke-opacity: 0.6; stroke-width: 1.5"/>
    <path d="M 861.695914 524.594365 
C 864.293889 524.594365 866.785808 523.562179 868.622854 521.725133 
C 870.4599 519.888087 871.492086 517.396168 871.492086 514.798193 
C 871.492086 512.200217 870.4599 509.708298 868.622854 507.871252 
C 866.785808 506.034206 864.293889 505.00202 861.695914 505.00202 
C 859.097938 505.00202 856.60602 506.034206 854.768974 507.871252 
C 852.931928 509.708298 851.899741 512.200217 851.899741 514.798193 
C 851.899741 517.396168 852.931928 519.888087 854.768974 521.725133 
C 856.60602 523.562179 859.097938 524.594365 861.695914 524.594365 
z
" clip-path="url(#p83117689ad)" style="fill: #9d4edd; fill-opacity: 0.6; stroke: #ffffff; stroke-opacity: 0.6; stroke-width: 1.5"/>
   </g>
   <g id="text_32">
    <text style="font-weight: 700; font-size: 6px; font-family: 'Microsoft YaHei', 'PingFang SC', 'WenQuanYi Micro Hei', 'Arial', 'DejaVu Sans', sans-serif; text-anchor: middle; fill: #2c3e50" x="855.21283" y="501.531719" transform="rotate(-0 855.21283 501.531719)">rats</text>
   </g>
   <g id="text_33">
    <text style="font-weight: 700; font-size: 6px; font-family: 'Microsoft YaHei', 'PingFang SC', 'WenQuanYi Micro Hei', 'Arial', 'DejaVu Sans', sans-serif; text-anchor: middle; fill: #2c3e50" x="898.53845" y="474.642036" transform="rotate(-0 898.53845 474.642036)">back</text>
   </g>
   <g id="text_34">
    <text style="font-weight: 700; font-size: 6px; font-family: 'Microsoft YaHei', 'PingFang SC', 'WenQuanYi Micro Hei', 'Arial', 'DejaVu Sans', sans-serif; text-anchor: middle; fill: #2c3e50" x="875.190742" y="458.367662" transform="rotate(-0 875.190742 458.367662)">seam</text>
   </g>
   <g id="text_35">
    <text style="font-weight: 700; font-size: 6px; font-family: 'Microsoft YaHei', 'PingFang SC', 'WenQuanYi Micro Hei', 'Arial', 'DejaVu Sans', sans-serif; text-anchor: middle; fill: #2c3e50" x="846.689027" y="458.989801" transform="rotate(-0 846.689027 458.989801)">nerv</text>
   </g>
   <g id="text_36">
    <text style="font-weight: 700; font-size: 6px; font-family: 'Microsoft YaHei', 'PingFang SC', 'WenQuanYi Micro Hei', 'Arial', 'DejaVu Sans', sans-serif; text-anchor: middle; fill: #2c3e50" x="838.112344" y="432.801415" transform="rotate(-0 838.112344 432.801415)">asse</text>
   </g>
   <g id="text_37">
    <text style="font-weight: 700; font-size: 9px; font-family: 'Microsoft YaHei', 'PingFang SC', 'WenQuanYi Micro Hei', 'Arial', 'DejaVu Sans', sans-serif; text-anchor: middle" x="815.780515" y="357.23875" transform="rotate(-0 815.780515 357.23875)">采矿活动与地质破坏</text>
   </g>
  </g>
  <g id="text_38">
   <text style="font-weight: 700; font-size: 14px; font-family: 'Microsoft YaHei', 'PingFang SC', 'WenQuanYi Micro Hei', 'Arial', 'DejaVu Sans', sans-serif; text-anchor: middle" x="480.475809" y="18.39125" transform="rotate(-0 480.475809 18.39125)">风险语义扩展分布</text>
  </g>
 </g>
 <defs>
  <clipPath id="p85125dd9aa">
   <rect x="33.728125" y="74.7" width="265.28125" height="265.28125"/>
  </clipPath>
  <clipPath id="pf4e449ba25">
   <rect x="358.434007" y="74.7" width="265.28125" height="265.28125"/>
  </clipPath>
  <clipPath id="pde7dec1522">
   <rect x="683.13989" y="74.7" width="265.28125" height="265.28125"/>
  </clipPath>
  <clipPath id="p9049ef8eb6">
   <rect x="33.728125" y="367.23875" width="265.28125" height="265.28125"/>
  </clipPath>
  <clipPath id="pe4dc7b9b97">
   <rect x="358.434007" y="367.23875" width="265.28125" height="265.28125"/>
  </clipPath>
  <clipPath id="p83117689ad">
   <rect x="683.13989" y="367.23875" width="265.28125" height="265.28125"/>
  </clipPath>
 </defs>
</svg>
