<?xml version="1.0" encoding="utf-8" standalone="no"?>
<!DOCTYPE svg PUBLIC "-//W3C//DTD SVG 1.1//EN"
  "http://www.w3.org/Graphics/SVG/1.1/DTD/svg11.dtd">
<svg xmlns:xlink="http://www.w3.org/1999/xlink" width="516.48pt" height="369.810237pt" viewBox="0 0 516.48 369.810237" xmlns="http://www.w3.org/2000/svg" version="1.1">
 <metadata>
  <rdf:RDF xmlns:dc="http://purl.org/dc/elements/1.1/" xmlns:cc="http://creativecommons.org/ns#" xmlns:rdf="http://www.w3.org/1999/02/22-rdf-syntax-ns#">
   <cc:Work>
    <dc:type rdf:resource="http://purl.org/dc/dcmitype/StillImage"/>
    <dc:date>2026-05-05T13:07:37.209866</dc:date>
    <dc:format>image/svg+xml</dc:format>
    <dc:creator>
     <cc:Agent>
      <dc:title>Matplotlib v3.10.0, https://matplotlib.org/</dc:title>
     </cc:Agent>
    </dc:creator>
   </cc:Work>
  </rdf:RDF>
 </metadata>
 <defs>
  <style type="text/css">*{stroke-linejoin: round; stroke-linecap: butt}</style>
 </defs>
 <g id="figure_1">
  <g id="patch_1">
   <path d="M 0 369.810237 
L 516.48 369.810237 
L 516.48 0 
L 0 0 
z
" style="fill: #ffffff"/>
  </g>
  <g id="axes_1">
   <g id="patch_2">
    <path d="M 77.2 334.796487 
L 501.28 334.796487 
L 501.28 29.876487 
L 77.2 29.876487 
z
" style="fill: #ffffff"/>
   </g>
   <g id="matplotlib.axis_1">
    <g id="xtick_1">
     <g id="line2d_1">
      <path d="M 93.398714 334.796487 
L 93.398714 29.876487 
" clip-path="url(#p33a34724ff)" style="fill: none; stroke: #d9dee3; stroke-width: 0.55; stroke-linecap: square"/>
     </g>
     <g id="line2d_2">
      <defs>
       <path id="m89599bc480" d="M 0 0 
L 0 3.5 
" style="stroke: #222222; stroke-width: 0.8"/>
      </defs>
      <g>
       <use xlink:href="#m89599bc480" x="93.398714" y="334.796487" style="fill: #222222; stroke: #222222; stroke-width: 0.8"/>
      </g>
     </g>
     <g id="text_1">
      <text style="font-size: 8px; font-family: 'Microsoft YaHei'; text-anchor: middle; fill: #222222" x="93.398714" y="348.191487" transform="rotate(-0 93.398714 348.191487)">0.65</text>
     </g>
    </g>
    <g id="xtick_2">
     <g id="line2d_3">
      <path d="M 151.667469 334.796487 
L 151.667469 29.876487 
" clip-path="url(#p33a34724ff)" style="fill: none; stroke: #d9dee3; stroke-width: 0.55; stroke-linecap: square"/>
     </g>
     <g id="line2d_4">
      <g>
       <use xlink:href="#m89599bc480" x="151.667469" y="334.796487" style="fill: #222222; stroke: #222222; stroke-width: 0.8"/>
      </g>
     </g>
     <g id="text_2">
      <text style="font-size: 8px; font-family: 'Microsoft YaHei'; text-anchor: middle; fill: #222222" x="151.667469" y="348.191487" transform="rotate(-0 151.667469 348.191487)">0.70</text>
     </g>
    </g>
    <g id="xtick_3">
     <g id="line2d_5">
      <path d="M 209.936224 334.796487 
L 209.936224 29.876487 
" clip-path="url(#p33a34724ff)" style="fill: none; stroke: #d9dee3; stroke-width: 0.55; stroke-linecap: square"/>
     </g>
     <g id="line2d_6">
      <g>
       <use xlink:href="#m89599bc480" x="209.936224" y="334.796487" style="fill: #222222; stroke: #222222; stroke-width: 0.8"/>
      </g>
     </g>
     <g id="text_3">
      <text style="font-size: 8px; font-family: 'Microsoft YaHei'; text-anchor: middle; fill: #222222" x="209.936224" y="348.191487" transform="rotate(-0 209.936224 348.191487)">0.75</text>
     </g>
    </g>
    <g id="xtick_4">
     <g id="line2d_7">
      <path d="M 268.204979 334.796487 
L 268.204979 29.876487 
" clip-path="url(#p33a34724ff)" style="fill: none; stroke: #d9dee3; stroke-width: 0.55; stroke-linecap: square"/>
     </g>
     <g id="line2d_8">
      <g>
       <use xlink:href="#m89599bc480" x="268.204979" y="334.796487" style="fill: #222222; stroke: #222222; stroke-width: 0.8"/>
      </g>
     </g>
     <g id="text_4">
      <text style="font-size: 8px; font-family: 'Microsoft YaHei'; text-anchor: middle; fill: #222222" x="268.204979" y="348.191487" transform="rotate(-0 268.204979 348.191487)">0.80</text>
     </g>
    </g>
    <g id="xtick_5">
     <g id="line2d_9">
      <path d="M 326.473735 334.796487 
L 326.473735 29.876487 
" clip-path="url(#p33a34724ff)" style="fill: none; stroke: #d9dee3; stroke-width: 0.55; stroke-linecap: square"/>
     </g>
     <g id="line2d_10">
      <g>
       <use xlink:href="#m89599bc480" x="326.473735" y="334.796487" style="fill: #222222; stroke: #222222; stroke-width: 0.8"/>
      </g>
     </g>
     <g id="text_5">
      <text style="font-size: 8px; font-family: 'Microsoft YaHei'; text-anchor: middle; fill: #222222" x="326.473735" y="348.191487" transform="rotate(-0 326.473735 348.191487)">0.85</text>
     </g>
    </g>
    <g id="xtick_6">
     <g id="line2d_11">
      <path d="M 384.74249 334.796487 
L 384.74249 29.876487 
" clip-path="url(#p33a34724ff)" style="fill: none; stroke: #d9dee3; stroke-width: 0.55; stroke-linecap: square"/>
     </g>
     <g id="line2d_12">
      <g>
       <use xlink:href="#m89599bc480" x="384.74249" y="334.796487" style="fill: #222222; stroke: #222222; stroke-width: 0.8"/>
      </g>
     </g>
     <g id="text_6">
      <text style="font-size: 8px; font-family: 'Microsoft YaHei'; text-anchor: middle; fill: #222222" x="384.74249" y="348.191487" transform="rotate(-0 384.74249 348.191487)">0.90</text>
     </g>
    </g>
    <g id="xtick_7">
     <g id="line2d_13">
      <path d="M 443.011245 334.796487 
L 443.011245 29.876487 
" clip-path="url(#p33a34724ff)" style="fill: none; stroke: #d9dee3; stroke-width: 0.55; stroke-linecap: square"/>
     </g>
     <g id="line2d_14">
      <g>
       <use xlink:href="#m89599bc480" x="443.011245" y="334.796487" style="fill: #222222; stroke: #222222; stroke-width: 0.8"/>
      </g>
     </g>
     <g id="text_7">
      <text style="font-size: 8px; font-family: 'Microsoft YaHei'; text-anchor: middle; fill: #222222" x="443.011245" y="348.191487" transform="rotate(-0 443.011245 348.191487)">0.95</text>
     </g>
    </g>
    <g id="xtick_8">
     <g id="line2d_15">
      <path d="M 501.28 334.796487 
L 501.28 29.876487 
" clip-path="url(#p33a34724ff)" style="fill: none; stroke: #d9dee3; stroke-width: 0.55; stroke-linecap: square"/>
     </g>
     <g id="line2d_16">
      <g>
       <use xlink:href="#m89599bc480" x="501.28" y="334.796487" style="fill: #222222; stroke: #222222; stroke-width: 0.8"/>
      </g>
     </g>
     <g id="text_8">
      <text style="font-size: 8px; font-family: 'Microsoft YaHei'; text-anchor: middle; fill: #222222" x="501.28" y="348.191487" transform="rotate(-0 501.28 348.191487)">1.00</text>
     </g>
    </g>
    <g id="text_9">
     <text style="font-size: 8px; font-family: 'Microsoft YaHei'; text-anchor: middle; fill: #222222" x="289.24" y="360.575237" transform="rotate(-0 289.24 360.575237)">Word2Vec similarity to seed terms</text>
    </g>
   </g>
   <g id="matplotlib.axis_2">
    <g id="ytick_1">
     <g id="line2d_17">
      <defs>
       <path id="m18e5ddce8c" d="M 0 0 
L -3.5 0 
" style="stroke: #222222; stroke-width: 0.8"/>
      </defs>
      <g>
       <use xlink:href="#m18e5ddce8c" x="77.2" y="320.936487" style="fill: #222222; stroke: #222222; stroke-width: 0.8"/>
      </g>
     </g>
     <g id="text_10">
      <text style="font-size: 7px; font-family: 'Microsoft YaHei'; text-anchor: end; fill: #222222" x="70.2" y="323.7343" transform="rotate(-0 70.2 323.7343)">景观格局破坏</text>
     </g>
    </g>
    <g id="ytick_2">
     <g id="line2d_18">
      <g>
       <use xlink:href="#m18e5ddce8c" x="77.2" y="290.136487" style="fill: #222222; stroke: #222222; stroke-width: 0.8"/>
      </g>
     </g>
     <g id="text_11">
      <text style="font-size: 7px; font-family: 'Microsoft YaHei'; text-anchor: end; fill: #222222" x="70.2" y="292.9343" transform="rotate(-0 70.2 292.9343)">大气污染与碳排放</text>
     </g>
    </g>
    <g id="ytick_3">
     <g id="line2d_19">
      <g>
       <use xlink:href="#m18e5ddce8c" x="77.2" y="259.336487" style="fill: #222222; stroke: #222222; stroke-width: 0.8"/>
      </g>
     </g>
     <g id="text_12">
      <text style="font-size: 7px; font-family: 'Microsoft YaHei'; text-anchor: end; fill: #222222" x="70.2" y="262.1343" transform="rotate(-0 70.2 262.1343)">水体污染</text>
     </g>
    </g>
    <g id="ytick_4">
     <g id="line2d_20">
      <g>
       <use xlink:href="#m18e5ddce8c" x="77.2" y="228.536487" style="fill: #222222; stroke: #222222; stroke-width: 0.8"/>
      </g>
     </g>
     <g id="text_13">
      <text style="font-size: 7px; font-family: 'Microsoft YaHei'; text-anchor: end; fill: #222222" x="70.2" y="231.3343" transform="rotate(-0 70.2 231.3343)">栖息地破碎化</text>
     </g>
    </g>
    <g id="ytick_5">
     <g id="line2d_21">
      <g>
       <use xlink:href="#m18e5ddce8c" x="77.2" y="197.736487" style="fill: #222222; stroke: #222222; stroke-width: 0.8"/>
      </g>
     </g>
     <g id="text_14">
      <text style="font-size: 7px; font-family: 'Microsoft YaHei'; text-anchor: end; fill: #222222" x="70.2" y="200.5343" transform="rotate(-0 70.2 200.5343)">土壤污染与退化</text>
     </g>
    </g>
    <g id="ytick_6">
     <g id="line2d_22">
      <g>
       <use xlink:href="#m18e5ddce8c" x="77.2" y="166.936487" style="fill: #222222; stroke: #222222; stroke-width: 0.8"/>
      </g>
     </g>
     <g id="text_15">
      <text style="font-size: 7px; font-family: 'Microsoft YaHei'; text-anchor: end; fill: #222222" x="70.2" y="169.7343" transform="rotate(-0 70.2 169.7343)">工程弃渣与固废风险</text>
     </g>
    </g>
    <g id="ytick_7">
     <g id="line2d_23">
      <g>
       <use xlink:href="#m18e5ddce8c" x="77.2" y="136.136487" style="fill: #222222; stroke: #222222; stroke-width: 0.8"/>
      </g>
     </g>
     <g id="text_16">
      <text style="font-size: 7px; font-family: 'Microsoft YaHei'; text-anchor: end; fill: #222222" x="70.2" y="138.9343" transform="rotate(-0 70.2 138.9343)">噪声与振动干扰</text>
     </g>
    </g>
    <g id="ytick_8">
     <g id="line2d_24">
      <g>
       <use xlink:href="#m18e5ddce8c" x="77.2" y="105.336487" style="fill: #222222; stroke: #222222; stroke-width: 0.8"/>
      </g>
     </g>
     <g id="text_17">
      <text style="font-size: 7px; font-family: 'Microsoft YaHei'; text-anchor: end; fill: #222222" x="70.2" y="108.1343" transform="rotate(-0 70.2 108.1343)">水文过程改变</text>
     </g>
    </g>
    <g id="ytick_9">
     <g id="line2d_25">
      <g>
       <use xlink:href="#m18e5ddce8c" x="77.2" y="74.536487" style="fill: #222222; stroke: #222222; stroke-width: 0.8"/>
      </g>
     </g>
     <g id="text_18">
      <text style="font-size: 7px; font-family: 'Microsoft YaHei'; text-anchor: end; fill: #222222" x="70.2" y="77.3343" transform="rotate(-0 70.2 77.3343)">生态补偿与管理措施</text>
     </g>
    </g>
    <g id="ytick_10">
     <g id="line2d_26">
      <g>
       <use xlink:href="#m18e5ddce8c" x="77.2" y="43.736487" style="fill: #222222; stroke: #222222; stroke-width: 0.8"/>
      </g>
     </g>
     <g id="text_19">
      <text style="font-size: 7px; font-family: 'Microsoft YaHei'; text-anchor: end; fill: #222222" x="70.2" y="46.5343" transform="rotate(-0 70.2 46.5343)">植被破坏与生态恢复</text>
     </g>
    </g>
   </g>
   <g id="PathCollection_1">
    <path d="M 346.052036 140.472384 
C 347.20193 140.472384 348.304881 140.015527 349.117978 139.202429 
C 349.931076 138.389332 350.387933 137.286381 350.387933 136.136487 
C 350.387933 134.986594 349.931076 133.883643 349.117978 133.070546 
C 348.304881 132.257448 347.20193 131.800591 346.052036 131.800591 
C 344.902143 131.800591 343.799192 132.257448 342.986094 133.070546 
C 342.172997 133.883643 341.71614 134.986594 341.71614 136.136487 
C 341.71614 137.286381 342.172997 138.389332 342.986094 139.202429 
C 343.799192 140.015527 344.902143 140.472384 346.052036 140.472384 
z
" clip-path="url(#p33a34724ff)" style="fill: #6e7781; fill-opacity: 0.78; stroke: #ffffff; stroke-opacity: 0.78; stroke-width: 0.35"/>
    <path d="M 323.210684 140.331723 
C 324.323274 140.331723 325.390444 139.889686 326.177164 139.102967 
C 326.963883 138.316247 327.40592 137.249077 327.40592 136.136487 
C 327.40592 135.023898 326.963883 133.956728 326.177164 133.170008 
C 325.390444 132.383289 324.323274 131.941252 323.210684 131.941252 
C 322.098095 131.941252 321.030924 132.383289 320.244205 133.170008 
C 319.457485 133.956728 319.015449 135.023898 319.015449 136.136487 
C 319.015449 137.249077 319.457485 138.316247 320.244205 139.102967 
C 321.030924 139.889686 322.098095 140.331723 323.210684 140.331723 
z
" clip-path="url(#p33a34724ff)" style="fill: #6e7781; fill-opacity: 0.78; stroke: #ffffff; stroke-opacity: 0.78; stroke-width: 0.35"/>
    <path d="M 311.556933 140.186179 
C 312.630924 140.186179 313.661071 139.759478 314.420497 139.000052 
C 315.179924 138.240626 315.606625 137.210478 315.606625 136.136487 
C 315.606625 135.062497 315.179924 134.032349 314.420497 133.272923 
C 313.661071 132.513497 312.630924 132.086796 311.556933 132.086796 
C 310.482943 132.086796 309.452795 132.513497 308.693369 133.272923 
C 307.933943 134.032349 307.507242 135.062497 307.507242 136.136487 
C 307.507242 137.210478 307.933943 138.240626 308.693369 139.000052 
C 309.452795 139.759478 310.482943 140.186179 311.556933 140.186179 
z
" clip-path="url(#p33a34724ff)" style="fill: #6e7781; fill-opacity: 0.78; stroke: #ffffff; stroke-opacity: 0.78; stroke-width: 0.35"/>
    <path d="M 307.47812 140.035205 
C 308.512072 140.035205 309.503816 139.624412 310.23493 138.893297 
C 310.966045 138.162183 311.376838 137.17044 311.376838 136.136487 
C 311.376838 135.102535 310.966045 134.110792 310.23493 133.379678 
C 309.503816 132.648563 308.512072 132.23777 307.47812 132.23777 
C 306.444168 132.23777 305.452425 132.648563 304.721311 133.379678 
C 303.990196 134.110792 303.579403 135.102535 303.579403 136.136487 
C 303.579403 137.17044 303.990196 138.162183 304.721311 138.893297 
C 305.452425 139.624412 306.444168 140.035205 307.47812 140.035205 
z
" clip-path="url(#p33a34724ff)" style="fill: #6e7781; fill-opacity: 0.78; stroke: #ffffff; stroke-opacity: 0.78; stroke-width: 0.35"/>
    <path d="M 301.068557 139.878145 
C 302.060856 139.878145 303.012647 139.4839 303.714309 138.782239 
C 304.41597 138.080577 304.810215 137.128787 304.810215 136.136487 
C 304.810215 135.144188 304.41597 134.192398 303.714309 133.490736 
C 303.012647 132.789075 302.060856 132.39483 301.068557 132.39483 
C 300.076258 132.39483 299.124467 132.789075 298.422806 133.490736 
C 297.721145 134.192398 297.3269 135.144188 297.3269 136.136487 
C 297.3269 137.128787 297.721145 138.080577 298.422806 138.782239 
C 299.124467 139.4839 300.076258 139.878145 301.068557 139.878145 
z
" clip-path="url(#p33a34724ff)" style="fill: #6e7781; fill-opacity: 0.78; stroke: #ffffff; stroke-opacity: 0.78; stroke-width: 0.35"/>
    <path d="M 292.444782 139.714196 
C 293.393601 139.714196 294.303687 139.337226 294.974604 138.66631 
C 295.64552 137.995393 296.02249 137.085307 296.02249 136.136487 
C 296.02249 135.187668 295.64552 134.277582 294.974604 133.606665 
C 294.303687 132.935749 293.393601 132.558779 292.444782 132.558779 
C 291.495962 132.558779 290.585876 132.935749 289.914959 133.606665 
C 289.244043 134.277582 288.867073 135.187668 288.867073 136.136487 
C 288.867073 137.085307 289.244043 137.995393 289.914959 138.66631 
C 290.585876 139.337226 291.495962 139.714196 292.444782 139.714196 
z
" clip-path="url(#p33a34724ff)" style="fill: #6e7781; fill-opacity: 0.78; stroke: #ffffff; stroke-opacity: 0.78; stroke-width: 0.35"/>
    <path d="M 290.813256 139.542365 
C 291.716506 139.542365 292.582882 139.1835 293.221575 138.544806 
C 293.860269 137.906113 294.219134 137.039737 294.219134 136.136487 
C 294.219134 135.233238 293.860269 134.366862 293.221575 133.728169 
C 292.582882 133.089475 291.716506 132.73061 290.813256 132.73061 
C 289.910007 132.73061 289.043631 133.089475 288.404937 133.728169 
C 287.766244 134.366862 287.407379 135.233238 287.407379 136.136487 
C 287.407379 137.039737 287.766244 137.906113 288.404937 138.544806 
C 289.043631 139.1835 289.910007 139.542365 290.813256 139.542365 
z
" clip-path="url(#p33a34724ff)" style="fill: #6e7781; fill-opacity: 0.78; stroke: #ffffff; stroke-opacity: 0.78; stroke-width: 0.35"/>
    <path d="M 290.114031 139.361391 
C 290.969286 139.361391 291.789626 139.021594 292.394382 138.416838 
C 292.999138 137.812082 293.338934 136.991742 293.338934 136.136487 
C 293.338934 135.281233 292.999138 134.460893 292.394382 133.856137 
C 291.789626 133.251381 290.969286 132.911584 290.114031 132.911584 
C 289.258777 132.911584 288.438437 133.251381 287.83368 133.856137 
C 287.228924 134.460893 286.889128 135.281233 286.889128 136.136487 
C 286.889128 136.991742 287.228924 137.812082 287.83368 138.416838 
C 288.438437 139.021594 289.258777 139.361391 290.114031 139.361391 
z
" clip-path="url(#p33a34724ff)" style="fill: #6e7781; fill-opacity: 0.78; stroke: #ffffff; stroke-opacity: 0.78; stroke-width: 0.35"/>
    <path d="M 266.223842 139.169638 
C 267.028243 139.169638 267.799805 138.850046 268.368603 138.281249 
C 268.9374 137.712451 269.256992 136.940888 269.256992 136.136487 
C 269.256992 135.332087 268.9374 134.560524 268.368603 133.991726 
C 267.799805 133.422929 267.028243 133.103337 266.223842 133.103337 
C 265.419441 133.103337 264.647878 133.422929 264.079081 133.991726 
C 263.510283 134.560524 263.190692 135.332087 263.190692 136.136487 
C 263.190692 136.940888 263.510283 137.712451 264.079081 138.281249 
C 264.647878 138.850046 265.419441 139.169638 266.223842 139.169638 
z
" clip-path="url(#p33a34724ff)" style="fill: #f28e2b; fill-opacity: 0.78; stroke: #ffffff; stroke-opacity: 0.78; stroke-width: 0.35"/>
    <path d="M 257.600066 138.964915 
C 258.350174 138.964915 259.06966 138.666894 259.600066 138.136487 
C 260.130472 137.606081 260.428493 136.886595 260.428493 136.136487 
C 260.428493 135.38638 260.130472 134.666894 259.600066 134.136487 
C 259.06966 133.606081 258.350174 133.30806 257.600066 133.30806 
C 256.849958 133.30806 256.130472 133.606081 255.600066 134.136487 
C 255.06966 134.666894 254.771639 135.38638 254.771639 136.136487 
C 254.771639 136.886595 255.06966 137.606081 255.600066 138.136487 
C 256.130472 138.666894 256.849958 138.964915 257.600066 138.964915 
z
" clip-path="url(#p33a34724ff)" style="fill: #6e7781; fill-opacity: 0.78; stroke: #ffffff; stroke-opacity: 0.78; stroke-width: 0.35"/>
    <path d="M 333.23291 202.072384 
C 334.382803 202.072384 335.485755 201.615527 336.298852 200.802429 
C 337.111949 199.989332 337.568807 198.886381 337.568807 197.736487 
C 337.568807 196.586594 337.111949 195.483643 336.298852 194.670546 
C 335.485755 193.857448 334.382803 193.400591 333.23291 193.400591 
C 332.083017 193.400591 330.980066 193.857448 330.166968 194.670546 
C 329.353871 195.483643 328.897013 196.586594 328.897013 197.736487 
C 328.897013 198.886381 329.353871 199.989332 330.166968 200.802429 
C 330.980066 201.615527 332.083017 202.072384 333.23291 202.072384 
z
" clip-path="url(#p33a34724ff)" style="fill: #6e7781; fill-opacity: 0.78; stroke: #ffffff; stroke-opacity: 0.78; stroke-width: 0.35"/>
    <path d="M 305.14737 201.931723 
C 306.25996 201.931723 307.32713 201.489686 308.11385 200.702967 
C 308.900569 199.916247 309.342606 198.849077 309.342606 197.736487 
C 309.342606 196.623898 308.900569 195.556728 308.11385 194.770008 
C 307.32713 193.983289 306.25996 193.541252 305.14737 193.541252 
C 304.034781 193.541252 302.96761 193.983289 302.180891 194.770008 
C 301.394171 195.556728 300.952135 196.623898 300.952135 197.736487 
C 300.952135 198.849077 301.394171 199.916247 302.180891 200.702967 
C 302.96761 201.489686 304.034781 201.931723 305.14737 201.931723 
z
" clip-path="url(#p33a34724ff)" style="fill: #6e7781; fill-opacity: 0.78; stroke: #ffffff; stroke-opacity: 0.78; stroke-width: 0.35"/>
    <path d="M 299.320495 201.786179 
C 300.394485 201.786179 301.424633 201.359478 302.184059 200.600052 
C 302.943485 199.840626 303.370186 198.810478 303.370186 197.736487 
C 303.370186 196.662497 302.943485 195.632349 302.184059 194.872923 
C 301.424633 194.113497 300.394485 193.686796 299.320495 193.686796 
C 298.246504 193.686796 297.216357 194.113497 296.45693 194.872923 
C 295.697504 195.632349 295.270803 196.662497 295.270803 197.736487 
C 295.270803 198.810478 295.697504 199.840626 296.45693 200.600052 
C 297.216357 201.359478 298.246504 201.786179 299.320495 201.786179 
z
" clip-path="url(#p33a34724ff)" style="fill: #6e7781; fill-opacity: 0.78; stroke: #ffffff; stroke-opacity: 0.78; stroke-width: 0.35"/>
    <path d="M 293.260544 201.635205 
C 294.294496 201.635205 295.286239 201.224412 296.017354 200.493297 
C 296.748468 199.762183 297.159262 198.77044 297.159262 197.736487 
C 297.159262 196.702535 296.748468 195.710792 296.017354 194.979678 
C 295.286239 194.248563 294.294496 193.83777 293.260544 193.83777 
C 292.226592 193.83777 291.234849 194.248563 290.503734 194.979678 
C 289.77262 195.710792 289.361826 196.702535 289.361826 197.736487 
C 289.361826 198.77044 289.77262 199.762183 290.503734 200.493297 
C 291.234849 201.224412 292.226592 201.635205 293.260544 201.635205 
z
" clip-path="url(#p33a34724ff)" style="fill: #6e7781; fill-opacity: 0.78; stroke: #ffffff; stroke-opacity: 0.78; stroke-width: 0.35"/>
    <path d="M 293.027469 201.478145 
C 294.019768 201.478145 294.971559 201.0839 295.67322 200.382239 
C 296.374882 199.680577 296.769126 198.728787 296.769126 197.736487 
C 296.769126 196.744188 296.374882 195.792398 295.67322 195.090736 
C 294.971559 194.389075 294.019768 193.99483 293.027469 193.99483 
C 292.03517 193.99483 291.083379 194.389075 290.381718 195.090736 
C 289.680056 195.792398 289.285812 196.744188 289.285812 197.736487 
C 289.285812 198.728787 289.680056 199.680577 290.381718 200.382239 
C 291.083379 201.0839 292.03517 201.478145 293.027469 201.478145 
z
" clip-path="url(#p33a34724ff)" style="fill: #6e7781; fill-opacity: 0.78; stroke: #ffffff; stroke-opacity: 0.78; stroke-width: 0.35"/>
    <path d="M 292.328244 201.314196 
C 293.277063 201.314196 294.187149 200.937226 294.858066 200.26631 
C 295.528983 199.595393 295.905953 198.685307 295.905953 197.736487 
C 295.905953 196.787668 295.528983 195.877582 294.858066 195.206665 
C 294.187149 194.535749 293.277063 194.158779 292.328244 194.158779 
C 291.379425 194.158779 290.469339 194.535749 289.798422 195.206665 
C 289.127505 195.877582 288.750535 196.787668 288.750535 197.736487 
C 288.750535 198.685307 289.127505 199.595393 289.798422 200.26631 
C 290.469339 200.937226 291.379425 201.314196 292.328244 201.314196 
z
" clip-path="url(#p33a34724ff)" style="fill: #6e7781; fill-opacity: 0.78; stroke: #ffffff; stroke-opacity: 0.78; stroke-width: 0.35"/>
    <path d="M 290.580181 201.142365 
C 291.483431 201.142365 292.349807 200.7835 292.9885 200.144806 
C 293.627194 199.506113 293.986059 198.639737 293.986059 197.736487 
C 293.986059 196.833238 293.627194 195.966862 292.9885 195.328169 
C 292.349807 194.689475 291.483431 194.33061 290.580181 194.33061 
C 289.676932 194.33061 288.810556 194.689475 288.171862 195.328169 
C 287.533169 195.966862 287.174304 196.833238 287.174304 197.736487 
C 287.174304 198.639737 287.533169 199.506113 288.171862 200.144806 
C 288.810556 200.7835 289.676932 201.142365 290.580181 201.142365 
z
" clip-path="url(#p33a34724ff)" style="fill: #6e7781; fill-opacity: 0.78; stroke: #ffffff; stroke-opacity: 0.78; stroke-width: 0.35"/>
    <path d="M 290.114031 200.961391 
C 290.969286 200.961391 291.789626 200.621594 292.394382 200.016838 
C 292.999138 199.412082 293.338934 198.591742 293.338934 197.736487 
C 293.338934 196.881233 292.999138 196.060893 292.394382 195.456137 
C 291.789626 194.851381 290.969286 194.511584 290.114031 194.511584 
C 289.258777 194.511584 288.438437 194.851381 287.83368 195.456137 
C 287.228924 196.060893 286.889128 196.881233 286.889128 197.736487 
C 286.889128 198.591742 287.228924 199.412082 287.83368 200.016838 
C 288.438437 200.621594 289.258777 200.961391 290.114031 200.961391 
z
" clip-path="url(#p33a34724ff)" style="fill: #6e7781; fill-opacity: 0.78; stroke: #ffffff; stroke-opacity: 0.78; stroke-width: 0.35"/>
    <path d="M 289.764419 200.769638 
C 290.56882 200.769638 291.340383 200.450046 291.90918 199.881249 
C 292.477977 199.312451 292.797569 198.540888 292.797569 197.736487 
C 292.797569 196.932087 292.477977 196.160524 291.90918 195.591726 
C 291.340383 195.022929 290.56882 194.703337 289.764419 194.703337 
C 288.960018 194.703337 288.188455 195.022929 287.619658 195.591726 
C 287.05086 196.160524 286.731269 196.932087 286.731269 197.736487 
C 286.731269 198.540888 287.05086 199.312451 287.619658 199.881249 
C 288.188455 200.450046 288.960018 200.769638 289.764419 200.769638 
z
" clip-path="url(#p33a34724ff)" style="fill: #6e7781; fill-opacity: 0.78; stroke: #ffffff; stroke-opacity: 0.78; stroke-width: 0.35"/>
    <path d="M 288.365969 200.564915 
C 289.116076 200.564915 289.835562 200.266894 290.365969 199.736487 
C 290.896375 199.206081 291.194396 198.486595 291.194396 197.736487 
C 291.194396 196.98638 290.896375 196.266894 290.365969 195.736487 
C 289.835562 195.206081 289.116076 194.90806 288.365969 194.90806 
C 287.615861 194.90806 286.896375 195.206081 286.365969 195.736487 
C 285.835562 196.266894 285.537542 196.98638 285.537542 197.736487 
C 285.537542 198.486595 285.835562 199.206081 286.365969 199.736487 
C 286.896375 200.266894 287.615861 200.564915 288.365969 200.564915 
z
" clip-path="url(#p33a34724ff)" style="fill: #6e7781; fill-opacity: 0.78; stroke: #ffffff; stroke-opacity: 0.78; stroke-width: 0.35"/>
    <path d="M 252.006265 294.472384 
C 253.156159 294.472384 254.25911 294.015527 255.072207 293.202429 
C 255.885305 292.389332 256.342162 291.286381 256.342162 290.136487 
C 256.342162 288.986594 255.885305 287.883643 255.072207 287.070546 
C 254.25911 286.257448 253.156159 285.800591 252.006265 285.800591 
C 250.856372 285.800591 249.753421 286.257448 248.940324 287.070546 
C 248.127226 287.883643 247.670369 288.986594 247.670369 290.136487 
C 247.670369 291.286381 248.127226 292.389332 248.940324 293.202429 
C 249.753421 294.015527 250.856372 294.472384 252.006265 294.472384 
z
" clip-path="url(#p33a34724ff)" style="fill: #6e7781; fill-opacity: 0.78; stroke: #ffffff; stroke-opacity: 0.78; stroke-width: 0.35"/>
    <path d="M 251.423578 294.331723 
C 252.536167 294.331723 253.603338 293.889686 254.390057 293.102967 
C 255.176777 292.316247 255.618813 291.249077 255.618813 290.136487 
C 255.618813 289.023898 255.176777 287.956728 254.390057 287.170008 
C 253.603338 286.383289 252.536167 285.941252 251.423578 285.941252 
C 250.310988 285.941252 249.243818 286.383289 248.457099 287.170008 
C 247.670379 287.956728 247.228343 289.023898 247.228343 290.136487 
C 247.228343 291.249077 247.670379 292.316247 248.457099 293.102967 
C 249.243818 293.889686 250.310988 294.331723 251.423578 294.331723 
z
" clip-path="url(#p33a34724ff)" style="fill: #6e7781; fill-opacity: 0.78; stroke: #ffffff; stroke-opacity: 0.78; stroke-width: 0.35"/>
    <path d="M 235.924089 294.186179 
C 236.99808 294.186179 238.028227 293.759478 238.787653 293.000052 
C 239.547079 292.240626 239.97378 291.210478 239.97378 290.136487 
C 239.97378 289.062497 239.547079 288.032349 238.787653 287.272923 
C 238.028227 286.513497 236.99808 286.086796 235.924089 286.086796 
C 234.850098 286.086796 233.819951 286.513497 233.060525 287.272923 
C 232.301099 288.032349 231.874398 289.062497 231.874398 290.136487 
C 231.874398 291.210478 232.301099 292.240626 233.060525 293.000052 
C 233.819951 293.759478 234.850098 294.186179 235.924089 294.186179 
z
" clip-path="url(#p33a34724ff)" style="fill: #6e7781; fill-opacity: 0.78; stroke: #ffffff; stroke-opacity: 0.78; stroke-width: 0.35"/>
    <path d="M 229.864138 294.035205 
C 230.898091 294.035205 231.889834 293.624412 232.620948 292.893297 
C 233.352063 292.162183 233.762856 291.17044 233.762856 290.136487 
C 233.762856 289.102535 233.352063 288.110792 232.620948 287.379678 
C 231.889834 286.648563 230.898091 286.23777 229.864138 286.23777 
C 228.830186 286.23777 227.838443 286.648563 227.107329 287.379678 
C 226.376214 288.110792 225.965421 289.102535 225.965421 290.136487 
C 225.965421 291.17044 226.376214 292.162183 227.107329 292.893297 
C 227.838443 293.624412 228.830186 294.035205 229.864138 294.035205 
z
" clip-path="url(#p33a34724ff)" style="fill: #6e7781; fill-opacity: 0.78; stroke: #ffffff; stroke-opacity: 0.78; stroke-width: 0.35"/>
    <path d="M 227.766463 293.878145 
C 228.758762 293.878145 229.710553 293.4839 230.412215 292.782239 
C 231.113876 292.080577 231.508121 291.128787 231.508121 290.136487 
C 231.508121 289.144188 231.113876 288.192398 230.412215 287.490736 
C 229.710553 286.789075 228.758762 286.39483 227.766463 286.39483 
C 226.774164 286.39483 225.822373 286.789075 225.120712 287.490736 
C 224.419051 288.192398 224.024806 289.144188 224.024806 290.136487 
C 224.024806 291.128787 224.419051 292.080577 225.120712 292.782239 
C 225.822373 293.4839 226.774164 293.878145 227.766463 293.878145 
z
" clip-path="url(#p33a34724ff)" style="fill: #6e7781; fill-opacity: 0.78; stroke: #ffffff; stroke-opacity: 0.78; stroke-width: 0.35"/>
    <path d="M 225.202638 293.714196 
C 226.151458 293.714196 227.061544 293.337226 227.73246 292.66631 
C 228.403377 291.995393 228.780347 291.085307 228.780347 290.136487 
C 228.780347 289.187668 228.403377 288.277582 227.73246 287.606665 
C 227.061544 286.935749 226.151458 286.558779 225.202638 286.558779 
C 224.253819 286.558779 223.343733 286.935749 222.672816 287.606665 
C 222.001899 288.277582 221.624929 289.187668 221.624929 290.136487 
C 221.624929 291.085307 222.001899 291.995393 222.672816 292.66631 
C 223.343733 293.337226 224.253819 293.714196 225.202638 293.714196 
z
" clip-path="url(#p33a34724ff)" style="fill: #6e7781; fill-opacity: 0.78; stroke: #ffffff; stroke-opacity: 0.78; stroke-width: 0.35"/>
    <path d="M 224.853026 293.542365 
C 225.756275 293.542365 226.622651 293.1835 227.261344 292.544806 
C 227.900038 291.906113 228.258903 291.039737 228.258903 290.136487 
C 228.258903 289.233238 227.900038 288.366862 227.261344 287.728169 
C 226.622651 287.089475 225.756275 286.73061 224.853026 286.73061 
C 223.949776 286.73061 223.0834 287.089475 222.444707 287.728169 
C 221.806013 288.366862 221.447148 289.233238 221.447148 290.136487 
C 221.447148 291.039737 221.806013 291.906113 222.444707 292.544806 
C 223.0834 293.1835 223.949776 293.542365 224.853026 293.542365 
z
" clip-path="url(#p33a34724ff)" style="fill: #6e7781; fill-opacity: 0.78; stroke: #ffffff; stroke-opacity: 0.78; stroke-width: 0.35"/>
    <path d="M 224.853026 293.361391 
C 225.70828 293.361391 226.52862 293.021594 227.133376 292.416838 
C 227.738133 291.812082 228.077929 290.991742 228.077929 290.136487 
C 228.077929 289.281233 227.738133 288.460893 227.133376 287.856137 
C 226.52862 287.251381 225.70828 286.911584 224.853026 286.911584 
C 223.997771 286.911584 223.177431 287.251381 222.572675 287.856137 
C 221.967919 288.460893 221.628122 289.281233 221.628122 290.136487 
C 221.628122 290.991742 221.967919 291.812082 222.572675 292.416838 
C 223.177431 293.021594 223.997771 293.361391 224.853026 293.361391 
z
" clip-path="url(#p33a34724ff)" style="fill: #6e7781; fill-opacity: 0.78; stroke: #ffffff; stroke-opacity: 0.78; stroke-width: 0.35"/>
    <path d="M 220.774213 293.169638 
C 221.578614 293.169638 222.350176 292.850046 222.918974 292.281249 
C 223.487771 291.712451 223.807363 290.940888 223.807363 290.136487 
C 223.807363 289.332087 223.487771 288.560524 222.918974 287.991726 
C 222.350176 287.422929 221.578614 287.103337 220.774213 287.103337 
C 219.969812 287.103337 219.198249 287.422929 218.629452 287.991726 
C 218.060654 288.560524 217.741063 289.332087 217.741063 290.136487 
C 217.741063 290.940888 218.060654 291.712451 218.629452 292.281249 
C 219.198249 292.850046 219.969812 293.169638 220.774213 293.169638 
z
" clip-path="url(#p33a34724ff)" style="fill: #6e7781; fill-opacity: 0.78; stroke: #ffffff; stroke-opacity: 0.78; stroke-width: 0.35"/>
    <path d="M 219.375763 292.964915 
C 220.12587 292.964915 220.845356 292.666894 221.375763 292.136487 
C 221.906169 291.606081 222.20419 290.886595 222.20419 290.136487 
C 222.20419 289.38638 221.906169 288.666894 221.375763 288.136487 
C 220.845356 287.606081 220.12587 287.30806 219.375763 287.30806 
C 218.625655 287.30806 217.906169 287.606081 217.375763 288.136487 
C 216.845356 288.666894 216.547335 289.38638 216.547335 290.136487 
C 216.547335 290.886595 216.845356 291.606081 217.375763 292.136487 
C 217.906169 292.666894 218.625655 292.964915 219.375763 292.964915 
z
" clip-path="url(#p33a34724ff)" style="fill: #6e7781; fill-opacity: 0.78; stroke: #ffffff; stroke-opacity: 0.78; stroke-width: 0.35"/>
    <path d="M 333.23291 171.272384 
C 334.382803 171.272384 335.485755 170.815527 336.298852 170.002429 
C 337.111949 169.189332 337.568807 168.086381 337.568807 166.936487 
C 337.568807 165.786594 337.111949 164.683643 336.298852 163.870546 
C 335.485755 163.057448 334.382803 162.600591 333.23291 162.600591 
C 332.083017 162.600591 330.980066 163.057448 330.166968 163.870546 
C 329.353871 164.683643 328.897013 165.786594 328.897013 166.936487 
C 328.897013 168.086381 329.353871 169.189332 330.166968 170.002429 
C 330.980066 170.815527 332.083017 171.272384 333.23291 171.272384 
z
" clip-path="url(#p33a34724ff)" style="fill: #6e7781; fill-opacity: 0.78; stroke: #ffffff; stroke-opacity: 0.78; stroke-width: 0.35"/>
    <path d="M 329.154097 171.131723 
C 330.266687 171.131723 331.333857 170.689686 332.120577 169.902967 
C 332.907296 169.116247 333.349333 168.049077 333.349333 166.936487 
C 333.349333 165.823898 332.907296 164.756728 332.120577 163.970008 
C 331.333857 163.183289 330.266687 162.741252 329.154097 162.741252 
C 328.041508 162.741252 326.974337 163.183289 326.187618 163.970008 
C 325.400898 164.756728 324.958862 165.823898 324.958862 166.936487 
C 324.958862 168.049077 325.400898 169.116247 326.187618 169.902967 
C 326.974337 170.689686 328.041508 171.131723 329.154097 171.131723 
z
" clip-path="url(#p33a34724ff)" style="fill: #6e7781; fill-opacity: 0.78; stroke: #ffffff; stroke-opacity: 0.78; stroke-width: 0.35"/>
    <path d="M 327.289497 170.986179 
C 328.363488 170.986179 329.393635 170.559478 330.153061 169.800052 
C 330.912487 169.040626 331.339188 168.010478 331.339188 166.936487 
C 331.339188 165.862497 330.912487 164.832349 330.153061 164.072923 
C 329.393635 163.313497 328.363488 162.886796 327.289497 162.886796 
C 326.215506 162.886796 325.185359 163.313497 324.425933 164.072923 
C 323.666507 164.832349 323.239806 165.862497 323.239806 166.936487 
C 323.239806 168.010478 323.666507 169.040626 324.425933 169.800052 
C 325.185359 170.559478 326.215506 170.986179 327.289497 170.986179 
z
" clip-path="url(#p33a34724ff)" style="fill: #6e7781; fill-opacity: 0.78; stroke: #ffffff; stroke-opacity: 0.78; stroke-width: 0.35"/>
    <path d="M 323.793372 170.835205 
C 324.827324 170.835205 325.819067 170.424412 326.550182 169.693297 
C 327.281296 168.962183 327.69209 167.97044 327.69209 166.936487 
C 327.69209 165.902535 327.281296 164.910792 326.550182 164.179678 
C 325.819067 163.448563 324.827324 163.03777 323.793372 163.03777 
C 322.75942 163.03777 321.767677 163.448563 321.036562 164.179678 
C 320.305448 164.910792 319.894654 165.902535 319.894654 166.936487 
C 319.894654 167.97044 320.305448 168.962183 321.036562 169.693297 
C 321.767677 170.424412 322.75942 170.835205 323.793372 170.835205 
z
" clip-path="url(#p33a34724ff)" style="fill: #6e7781; fill-opacity: 0.78; stroke: #ffffff; stroke-opacity: 0.78; stroke-width: 0.35"/>
    <path d="M 320.530322 170.678145 
C 321.522621 170.678145 322.474411 170.2839 323.176073 169.582239 
C 323.877734 168.880577 324.271979 167.928787 324.271979 166.936487 
C 324.271979 165.944188 323.877734 164.992398 323.176073 164.290736 
C 322.474411 163.589075 321.522621 163.19483 320.530322 163.19483 
C 319.538022 163.19483 318.586232 163.589075 317.88457 164.290736 
C 317.182909 164.992398 316.788664 165.944188 316.788664 166.936487 
C 316.788664 167.928787 317.182909 168.880577 317.88457 169.582239 
C 318.586232 170.2839 319.538022 170.678145 320.530322 170.678145 
z
" clip-path="url(#p33a34724ff)" style="fill: #6e7781; fill-opacity: 0.78; stroke: #ffffff; stroke-opacity: 0.78; stroke-width: 0.35"/>
    <path d="M 320.413784 170.514196 
C 321.362603 170.514196 322.272689 170.137226 322.943606 169.46631 
C 323.614523 168.795393 323.991493 167.885307 323.991493 166.936487 
C 323.991493 165.987668 323.614523 165.077582 322.943606 164.406665 
C 322.272689 163.735749 321.362603 163.358779 320.413784 163.358779 
C 319.464965 163.358779 318.554879 163.735749 317.883962 164.406665 
C 317.213045 165.077582 316.836075 165.987668 316.836075 166.936487 
C 316.836075 167.885307 317.213045 168.795393 317.883962 169.46631 
C 318.554879 170.137226 319.464965 170.514196 320.413784 170.514196 
z
" clip-path="url(#p33a34724ff)" style="fill: #6e7781; fill-opacity: 0.78; stroke: #ffffff; stroke-opacity: 0.78; stroke-width: 0.35"/>
    <path d="M 317.500346 170.342365 
C 318.403595 170.342365 319.269972 169.9835 319.908665 169.344806 
C 320.547359 168.706113 320.906224 167.839737 320.906224 166.936487 
C 320.906224 166.033238 320.547359 165.166862 319.908665 164.528169 
C 319.269972 163.889475 318.403595 163.53061 317.500346 163.53061 
C 316.597097 163.53061 315.730721 163.889475 315.092027 164.528169 
C 314.453334 165.166862 314.094469 166.033238 314.094469 166.936487 
C 314.094469 167.839737 314.453334 168.706113 315.092027 169.344806 
C 315.730721 169.9835 316.597097 170.342365 317.500346 170.342365 
z
" clip-path="url(#p33a34724ff)" style="fill: #6e7781; fill-opacity: 0.78; stroke: #ffffff; stroke-opacity: 0.78; stroke-width: 0.35"/>
    <path d="M 316.917659 170.161391 
C 317.772913 170.161391 318.593253 169.821594 319.19801 169.216838 
C 319.802766 168.612082 320.142562 167.791742 320.142562 166.936487 
C 320.142562 166.081233 319.802766 165.260893 319.19801 164.656137 
C 318.593253 164.051381 317.772913 163.711584 316.917659 163.711584 
C 316.062404 163.711584 315.242064 164.051381 314.637308 164.656137 
C 314.032552 165.260893 313.692756 166.081233 313.692756 166.936487 
C 313.692756 167.791742 314.032552 168.612082 314.637308 169.216838 
C 315.242064 169.821594 316.062404 170.161391 316.917659 170.161391 
z
" clip-path="url(#p33a34724ff)" style="fill: #6e7781; fill-opacity: 0.78; stroke: #ffffff; stroke-opacity: 0.78; stroke-width: 0.35"/>
    <path d="M 316.334971 169.969638 
C 317.139372 169.969638 317.910935 169.650046 318.479732 169.081249 
C 319.048529 168.512451 319.368121 167.740888 319.368121 166.936487 
C 319.368121 166.132087 319.048529 165.360524 318.479732 164.791726 
C 317.910935 164.222929 317.139372 163.903337 316.334971 163.903337 
C 315.53057 163.903337 314.759007 164.222929 314.19021 164.791726 
C 313.621413 165.360524 313.301821 166.132087 313.301821 166.936487 
C 313.301821 167.740888 313.621413 168.512451 314.19021 169.081249 
C 314.759007 169.650046 315.53057 169.969638 316.334971 169.969638 
z
" clip-path="url(#p33a34724ff)" style="fill: #6e7781; fill-opacity: 0.78; stroke: #ffffff; stroke-opacity: 0.78; stroke-width: 0.35"/>
    <path d="M 312.256158 169.764915 
C 313.006266 169.764915 313.725752 169.466894 314.256158 168.936487 
C 314.786564 168.406081 315.084585 167.686595 315.084585 166.936487 
C 315.084585 166.18638 314.786564 165.466894 314.256158 164.936487 
C 313.725752 164.406081 313.006266 164.10806 312.256158 164.10806 
C 311.506051 164.10806 310.786564 164.406081 310.256158 164.936487 
C 309.725752 165.466894 309.427731 166.18638 309.427731 166.936487 
C 309.427731 167.686595 309.725752 168.406081 310.256158 168.936487 
C 310.786564 169.466894 311.506051 169.764915 312.256158 169.764915 
z
" clip-path="url(#p33a34724ff)" style="fill: #6e7781; fill-opacity: 0.78; stroke: #ffffff; stroke-opacity: 0.78; stroke-width: 0.35"/>
    <path d="M 166.58427 325.272384 
C 167.734164 325.272384 168.837115 324.815527 169.650212 324.002429 
C 170.46331 323.189332 170.920167 322.086381 170.920167 320.936487 
C 170.920167 319.786594 170.46331 318.683643 169.650212 317.870546 
C 168.837115 317.057448 167.734164 316.600591 166.58427 316.600591 
C 165.434377 316.600591 164.331426 317.057448 163.518328 317.870546 
C 162.705231 318.683643 162.248374 319.786594 162.248374 320.936487 
C 162.248374 322.086381 162.705231 323.189332 163.518328 324.002429 
C 164.331426 324.815527 165.434377 325.272384 166.58427 325.272384 
z
" clip-path="url(#p33a34724ff)" style="fill: #6e7781; fill-opacity: 0.78; stroke: #ffffff; stroke-opacity: 0.78; stroke-width: 0.35"/>
    <path d="M 166.351195 325.131723 
C 167.463785 325.131723 168.530955 324.689686 169.317675 323.902967 
C 170.104394 323.116247 170.546431 322.049077 170.546431 320.936487 
C 170.546431 319.823898 170.104394 318.756728 169.317675 317.970008 
C 168.530955 317.183289 167.463785 316.741252 166.351195 316.741252 
C 165.238606 316.741252 164.171436 317.183289 163.384716 317.970008 
C 162.597996 318.756728 162.15596 319.823898 162.15596 320.936487 
C 162.15596 322.049077 162.597996 323.116247 163.384716 323.902967 
C 164.171436 324.689686 165.238606 325.131723 166.351195 325.131723 
z
" clip-path="url(#p33a34724ff)" style="fill: #6e7781; fill-opacity: 0.78; stroke: #ffffff; stroke-opacity: 0.78; stroke-width: 0.35"/>
    <path d="M 159.59202 324.986179 
C 160.66601 324.986179 161.696158 324.559478 162.455584 323.800052 
C 163.21501 323.040626 163.641711 322.010478 163.641711 320.936487 
C 163.641711 319.862497 163.21501 318.832349 162.455584 318.072923 
C 161.696158 317.313497 160.66601 316.886796 159.59202 316.886796 
C 158.518029 316.886796 157.487882 317.313497 156.728456 318.072923 
C 155.969029 318.832349 155.542328 319.862497 155.542328 320.936487 
C 155.542328 322.010478 155.969029 323.040626 156.728456 323.800052 
C 157.487882 324.559478 158.518029 324.986179 159.59202 324.986179 
z
" clip-path="url(#p33a34724ff)" style="fill: #6e7781; fill-opacity: 0.78; stroke: #ffffff; stroke-opacity: 0.78; stroke-width: 0.35"/>
    <path d="M 139.547568 324.835205 
C 140.58152 324.835205 141.573263 324.424412 142.304378 323.693297 
C 143.035492 322.962183 143.446286 321.97044 143.446286 320.936487 
C 143.446286 319.902535 143.035492 318.910792 142.304378 318.179678 
C 141.573263 317.448563 140.58152 317.03777 139.547568 317.03777 
C 138.513616 317.03777 137.521873 317.448563 136.790758 318.179678 
C 136.059644 318.910792 135.64885 319.902535 135.64885 320.936487 
C 135.64885 321.97044 136.059644 322.962183 136.790758 323.693297 
C 137.521873 324.424412 138.513616 324.835205 139.547568 324.835205 
z
" clip-path="url(#p33a34724ff)" style="fill: #6e7781; fill-opacity: 0.78; stroke: #ffffff; stroke-opacity: 0.78; stroke-width: 0.35"/>
    <path d="M 130.10803 324.678145 
C 131.100329 324.678145 132.05212 324.2839 132.753781 323.582239 
C 133.455442 322.880577 133.849687 321.928787 133.849687 320.936487 
C 133.849687 319.944188 133.455442 318.992398 132.753781 318.290736 
C 132.05212 317.589075 131.100329 317.19483 130.10803 317.19483 
C 129.115731 317.19483 128.16394 317.589075 127.462278 318.290736 
C 126.760617 318.992398 126.366372 319.944188 126.366372 320.936487 
C 126.366372 321.928787 126.760617 322.880577 127.462278 323.582239 
C 128.16394 324.2839 129.115731 324.678145 130.10803 324.678145 
z
" clip-path="url(#p33a34724ff)" style="fill: #6e7781; fill-opacity: 0.78; stroke: #ffffff; stroke-opacity: 0.78; stroke-width: 0.35"/>
    <path d="M 129.292267 324.514196 
C 130.241087 324.514196 131.151173 324.137226 131.822089 323.46631 
C 132.493006 322.795393 132.869976 321.885307 132.869976 320.936487 
C 132.869976 319.987668 132.493006 319.077582 131.822089 318.406665 
C 131.151173 317.735749 130.241087 317.358779 129.292267 317.358779 
C 128.343448 317.358779 127.433362 317.735749 126.762445 318.406665 
C 126.091528 319.077582 125.714558 319.987668 125.714558 320.936487 
C 125.714558 321.885307 126.091528 322.795393 126.762445 323.46631 
C 127.433362 324.137226 128.343448 324.514196 129.292267 324.514196 
z
" clip-path="url(#p33a34724ff)" style="fill: #6e7781; fill-opacity: 0.78; stroke: #ffffff; stroke-opacity: 0.78; stroke-width: 0.35"/>
    <path d="M 122.300016 324.342365 
C 123.203266 324.342365 124.069642 323.9835 124.708335 323.344806 
C 125.347029 322.706113 125.705894 321.839737 125.705894 320.936487 
C 125.705894 320.033238 125.347029 319.166862 124.708335 318.528169 
C 124.069642 317.889475 123.203266 317.53061 122.300016 317.53061 
C 121.396767 317.53061 120.530391 317.889475 119.891698 318.528169 
C 119.253004 319.166862 118.894139 320.033238 118.894139 320.936487 
C 118.894139 321.839737 119.253004 322.706113 119.891698 323.344806 
C 120.530391 323.9835 121.396767 324.342365 122.300016 324.342365 
z
" clip-path="url(#p33a34724ff)" style="fill: #6e7781; fill-opacity: 0.78; stroke: #ffffff; stroke-opacity: 0.78; stroke-width: 0.35"/>
    <path d="M 121.717329 324.161391 
C 122.572583 324.161391 123.392924 323.821594 123.99768 323.216838 
C 124.602436 322.612082 124.942232 321.791742 124.942232 320.936487 
C 124.942232 320.081233 124.602436 319.260893 123.99768 318.656137 
C 123.392924 318.051381 122.572583 317.711584 121.717329 317.711584 
C 120.862075 317.711584 120.041734 318.051381 119.436978 318.656137 
C 118.832222 319.260893 118.492426 320.081233 118.492426 320.936487 
C 118.492426 321.791742 118.832222 322.612082 119.436978 323.216838 
C 120.041734 323.821594 120.862075 324.161391 121.717329 324.161391 
z
" clip-path="url(#p33a34724ff)" style="fill: #6e7781; fill-opacity: 0.78; stroke: #ffffff; stroke-opacity: 0.78; stroke-width: 0.35"/>
    <path d="M 121.018104 323.969638 
C 121.822505 323.969638 122.594068 323.650046 123.162865 323.081249 
C 123.731662 322.512451 124.051254 321.740888 124.051254 320.936487 
C 124.051254 320.132087 123.731662 319.360524 123.162865 318.791726 
C 122.594068 318.222929 121.822505 317.903337 121.018104 317.903337 
C 120.213703 317.903337 119.44214 318.222929 118.873343 318.791726 
C 118.304546 319.360524 117.984954 320.132087 117.984954 320.936487 
C 117.984954 321.740888 118.304546 322.512451 118.873343 323.081249 
C 119.44214 323.650046 120.213703 323.969638 121.018104 323.969638 
z
" clip-path="url(#p33a34724ff)" style="fill: #6e7781; fill-opacity: 0.78; stroke: #ffffff; stroke-opacity: 0.78; stroke-width: 0.35"/>
    <path d="M 112.161253 323.764915 
C 112.911361 323.764915 113.630847 323.466894 114.161253 322.936487 
C 114.691659 322.406081 114.98968 321.686595 114.98968 320.936487 
C 114.98968 320.18638 114.691659 319.466894 114.161253 318.936487 
C 113.630847 318.406081 112.911361 318.10806 112.161253 318.10806 
C 111.411145 318.10806 110.691659 318.406081 110.161253 318.936487 
C 109.630847 319.466894 109.332826 320.18638 109.332826 320.936487 
C 109.332826 321.686595 109.630847 322.406081 110.161253 322.936487 
C 110.691659 323.466894 111.411145 323.764915 112.161253 323.764915 
z
" clip-path="url(#p33a34724ff)" style="fill: #6e7781; fill-opacity: 0.78; stroke: #ffffff; stroke-opacity: 0.78; stroke-width: 0.35"/>
    <path d="M 296.173982 232.872384 
C 297.323875 232.872384 298.426826 232.415527 299.239924 231.602429 
C 300.053021 230.789332 300.509879 229.686381 300.509879 228.536487 
C 300.509879 227.386594 300.053021 226.283643 299.239924 225.470546 
C 298.426826 224.657448 297.323875 224.200591 296.173982 224.200591 
C 295.024089 224.200591 293.921137 224.657448 293.10804 225.470546 
C 292.294943 226.283643 291.838085 227.386594 291.838085 228.536487 
C 291.838085 229.686381 292.294943 230.789332 293.10804 231.602429 
C 293.921137 232.415527 295.024089 232.872384 296.173982 232.872384 
z
" clip-path="url(#p33a34724ff)" style="fill: #6e7781; fill-opacity: 0.78; stroke: #ffffff; stroke-opacity: 0.78; stroke-width: 0.35"/>
    <path d="M 260.396966 232.731723 
C 261.509556 232.731723 262.576726 232.289686 263.363446 231.502967 
C 264.150165 230.716247 264.592202 229.649077 264.592202 228.536487 
C 264.592202 227.423898 264.150165 226.356728 263.363446 225.570008 
C 262.576726 224.783289 261.509556 224.341252 260.396966 224.341252 
C 259.284377 224.341252 258.217206 224.783289 257.430487 225.570008 
C 256.643767 226.356728 256.201731 227.423898 256.201731 228.536487 
C 256.201731 229.649077 256.643767 230.716247 257.430487 231.502967 
C 258.217206 232.289686 259.284377 232.731723 260.396966 232.731723 
z
" clip-path="url(#p33a34724ff)" style="fill: #6e7781; fill-opacity: 0.78; stroke: #ffffff; stroke-opacity: 0.78; stroke-width: 0.35"/>
    <path d="M 255.385853 232.586179 
C 256.459844 232.586179 257.489991 232.159478 258.249417 231.400052 
C 259.008844 230.640626 259.435545 229.610478 259.435545 228.536487 
C 259.435545 227.462497 259.008844 226.432349 258.249417 225.672923 
C 257.489991 224.913497 256.459844 224.486796 255.385853 224.486796 
C 254.311863 224.486796 253.281715 224.913497 252.522289 225.672923 
C 251.762863 226.432349 251.336162 227.462497 251.336162 228.536487 
C 251.336162 229.610478 251.762863 230.640626 252.522289 231.400052 
C 253.281715 232.159478 254.311863 232.586179 255.385853 232.586179 
z
" clip-path="url(#p33a34724ff)" style="fill: #6e7781; fill-opacity: 0.78; stroke: #ffffff; stroke-opacity: 0.78; stroke-width: 0.35"/>
    <path d="M 248.97629 232.435205 
C 250.010242 232.435205 251.001985 232.024412 251.7331 231.293297 
C 252.464214 230.562183 252.875008 229.57044 252.875008 228.536487 
C 252.875008 227.502535 252.464214 226.510792 251.7331 225.779678 
C 251.001985 225.048563 250.010242 224.63777 248.97629 224.63777 
C 247.942338 224.63777 246.950595 225.048563 246.21948 225.779678 
C 245.488366 226.510792 245.077572 227.502535 245.077572 228.536487 
C 245.077572 229.57044 245.488366 230.562183 246.21948 231.293297 
C 246.950595 232.024412 247.942338 232.435205 248.97629 232.435205 
z
" clip-path="url(#p33a34724ff)" style="fill: #6e7781; fill-opacity: 0.78; stroke: #ffffff; stroke-opacity: 0.78; stroke-width: 0.35"/>
    <path d="M 248.859753 232.278145 
C 249.852052 232.278145 250.803843 231.8839 251.505504 231.182239 
C 252.207165 230.480577 252.60141 229.528787 252.60141 228.536487 
C 252.60141 227.544188 252.207165 226.592398 251.505504 225.890736 
C 250.803843 225.189075 249.852052 224.79483 248.859753 224.79483 
C 247.867454 224.79483 246.915663 225.189075 246.214001 225.890736 
C 245.51234 226.592398 245.118095 227.544188 245.118095 228.536487 
C 245.118095 229.528787 245.51234 230.480577 246.214001 231.182239 
C 246.915663 231.8839 247.867454 232.278145 248.859753 232.278145 
z
" clip-path="url(#p33a34724ff)" style="fill: #6e7781; fill-opacity: 0.78; stroke: #ffffff; stroke-opacity: 0.78; stroke-width: 0.35"/>
    <path d="M 244.431327 232.114196 
C 245.380147 232.114196 246.290233 231.737226 246.961149 231.06631 
C 247.632066 230.395393 248.009036 229.485307 248.009036 228.536487 
C 248.009036 227.587668 247.632066 226.677582 246.961149 226.006665 
C 246.290233 225.335749 245.380147 224.958779 244.431327 224.958779 
C 243.482508 224.958779 242.572422 225.335749 241.901505 226.006665 
C 241.230588 226.677582 240.853619 227.587668 240.853619 228.536487 
C 240.853619 229.485307 241.230588 230.395393 241.901505 231.06631 
C 242.572422 231.737226 243.482508 232.114196 244.431327 232.114196 
z
" clip-path="url(#p33a34724ff)" style="fill: #6e7781; fill-opacity: 0.78; stroke: #ffffff; stroke-opacity: 0.78; stroke-width: 0.35"/>
    <path d="M 242.91634 231.942365 
C 243.819589 231.942365 244.685965 231.5835 245.324659 230.944806 
C 245.963352 230.306113 246.322217 229.439737 246.322217 228.536487 
C 246.322217 227.633238 245.963352 226.766862 245.324659 226.128169 
C 244.685965 225.489475 243.819589 225.13061 242.91634 225.13061 
C 242.01309 225.13061 241.146714 225.489475 240.508021 226.128169 
C 239.869327 226.766862 239.510462 227.633238 239.510462 228.536487 
C 239.510462 229.439737 239.869327 230.306113 240.508021 230.944806 
C 241.146714 231.5835 242.01309 231.942365 242.91634 231.942365 
z
" clip-path="url(#p33a34724ff)" style="fill: #6e7781; fill-opacity: 0.78; stroke: #ffffff; stroke-opacity: 0.78; stroke-width: 0.35"/>
    <path d="M 241.051739 231.761391 
C 241.906994 231.761391 242.727334 231.421594 243.33209 230.816838 
C 243.936846 230.212082 244.276643 229.391742 244.276643 228.536487 
C 244.276643 227.681233 243.936846 226.860893 243.33209 226.256137 
C 242.727334 225.651381 241.906994 225.311584 241.051739 225.311584 
C 240.196485 225.311584 239.376145 225.651381 238.771389 226.256137 
C 238.166633 226.860893 237.826836 227.681233 237.826836 228.536487 
C 237.826836 229.391742 238.166633 230.212082 238.771389 230.816838 
C 239.376145 231.421594 240.196485 231.761391 241.051739 231.761391 
z
" clip-path="url(#p33a34724ff)" style="fill: #6e7781; fill-opacity: 0.78; stroke: #ffffff; stroke-opacity: 0.78; stroke-width: 0.35"/>
    <path d="M 240.235977 231.569638 
C 241.040378 231.569638 241.811941 231.250046 242.380738 230.681249 
C 242.949535 230.112451 243.269127 229.340888 243.269127 228.536487 
C 243.269127 227.732087 242.949535 226.960524 242.380738 226.391726 
C 241.811941 225.822929 241.040378 225.503337 240.235977 225.503337 
C 239.431576 225.503337 238.660013 225.822929 238.091216 226.391726 
C 237.522419 226.960524 237.202827 227.732087 237.202827 228.536487 
C 237.202827 229.340888 237.522419 230.112451 238.091216 230.681249 
C 238.660013 231.250046 239.431576 231.569638 240.235977 231.569638 
z
" clip-path="url(#p33a34724ff)" style="fill: #6e7781; fill-opacity: 0.78; stroke: #ffffff; stroke-opacity: 0.78; stroke-width: 0.35"/>
    <path d="M 237.555614 231.364915 
C 238.305722 231.364915 239.025208 231.066894 239.555614 230.536487 
C 240.08602 230.006081 240.384041 229.286595 240.384041 228.536487 
C 240.384041 227.78638 240.08602 227.066894 239.555614 226.536487 
C 239.025208 226.006081 238.305722 225.70806 237.555614 225.70806 
C 236.805507 225.70806 236.08602 226.006081 235.555614 226.536487 
C 235.025208 227.066894 234.727187 227.78638 234.727187 228.536487 
C 234.727187 229.286595 235.025208 230.006081 235.555614 230.536487 
C 236.08602 231.066894 236.805507 231.364915 237.555614 231.364915 
z
" clip-path="url(#p33a34724ff)" style="fill: #6e7781; fill-opacity: 0.78; stroke: #ffffff; stroke-opacity: 0.78; stroke-width: 0.35"/>
    <path d="M 382.87789 48.072384 
C 384.027783 48.072384 385.130734 47.615527 385.943831 46.802429 
C 386.756929 45.989332 387.213786 44.886381 387.213786 43.736487 
C 387.213786 42.586594 386.756929 41.483643 385.943831 40.670546 
C 385.130734 39.857448 384.027783 39.400591 382.87789 39.400591 
C 381.727996 39.400591 380.625045 39.857448 379.811948 40.670546 
C 378.99885 41.483643 378.541993 42.586594 378.541993 43.736487 
C 378.541993 44.886381 378.99885 45.989332 379.811948 46.802429 
C 380.625045 47.615527 381.727996 48.072384 382.87789 48.072384 
z
" clip-path="url(#p33a34724ff)" style="fill: #6e7781; fill-opacity: 0.78; stroke: #ffffff; stroke-opacity: 0.78; stroke-width: 0.35"/>
    <path d="M 378.099852 47.931723 
C 379.212441 47.931723 380.279611 47.489686 381.066331 46.702967 
C 381.853051 45.916247 382.295087 44.849077 382.295087 43.736487 
C 382.295087 42.623898 381.853051 41.556728 381.066331 40.770008 
C 380.279611 39.983289 379.212441 39.541252 378.099852 39.541252 
C 376.987262 39.541252 375.920092 39.983289 375.133372 40.770008 
C 374.346653 41.556728 373.904616 42.623898 373.904616 43.736487 
C 373.904616 44.849077 374.346653 45.916247 375.133372 46.702967 
C 375.920092 47.489686 376.987262 47.931723 378.099852 47.931723 
z
" clip-path="url(#p33a34724ff)" style="fill: #6e7781; fill-opacity: 0.78; stroke: #ffffff; stroke-opacity: 0.78; stroke-width: 0.35"/>
    <path d="M 376.934477 47.786179 
C 378.008467 47.786179 379.038615 47.359478 379.798041 46.600052 
C 380.557467 45.840626 380.984168 44.810478 380.984168 43.736487 
C 380.984168 42.662497 380.557467 41.632349 379.798041 40.872923 
C 379.038615 40.113497 378.008467 39.686796 376.934477 39.686796 
C 375.860486 39.686796 374.830338 40.113497 374.070912 40.872923 
C 373.311486 41.632349 372.884785 42.662497 372.884785 43.736487 
C 372.884785 44.810478 373.311486 45.840626 374.070912 46.600052 
C 374.830338 47.359478 375.860486 47.786179 376.934477 47.786179 
z
" clip-path="url(#p33a34724ff)" style="fill: #6e7781; fill-opacity: 0.78; stroke: #ffffff; stroke-opacity: 0.78; stroke-width: 0.35"/>
    <path d="M 368.543776 47.635205 
C 369.577728 47.635205 370.569471 47.224412 371.300586 46.493297 
C 372.0317 45.762183 372.442494 44.77044 372.442494 43.736487 
C 372.442494 42.702535 372.0317 41.710792 371.300586 40.979678 
C 370.569471 40.248563 369.577728 39.83777 368.543776 39.83777 
C 367.509824 39.83777 366.518081 40.248563 365.786966 40.979678 
C 365.055852 41.710792 364.645058 42.702535 364.645058 43.736487 
C 364.645058 44.77044 365.055852 45.762183 365.786966 46.493297 
C 366.518081 47.224412 367.509824 47.635205 368.543776 47.635205 
z
" clip-path="url(#p33a34724ff)" style="fill: #6e7781; fill-opacity: 0.78; stroke: #ffffff; stroke-opacity: 0.78; stroke-width: 0.35"/>
    <path d="M 367.961088 47.478145 
C 368.953387 47.478145 369.905178 47.0839 370.60684 46.382239 
C 371.308501 45.680577 371.702746 44.728787 371.702746 43.736487 
C 371.702746 42.744188 371.308501 41.792398 370.60684 41.090736 
C 369.905178 40.389075 368.953387 39.99483 367.961088 39.99483 
C 366.968789 39.99483 366.016998 40.389075 365.315337 41.090736 
C 364.613675 41.792398 364.219431 42.744188 364.219431 43.736487 
C 364.219431 44.728787 364.613675 45.680577 365.315337 46.382239 
C 366.016998 47.0839 366.968789 47.478145 367.961088 47.478145 
z
" clip-path="url(#p33a34724ff)" style="fill: #6e7781; fill-opacity: 0.78; stroke: #ffffff; stroke-opacity: 0.78; stroke-width: 0.35"/>
    <path d="M 364.931113 47.314196 
C 365.879932 47.314196 366.790018 46.937226 367.460935 46.26631 
C 368.131852 45.595393 368.508822 44.685307 368.508822 43.736487 
C 368.508822 42.787668 368.131852 41.877582 367.460935 41.206665 
C 366.790018 40.535749 365.879932 40.158779 364.931113 40.158779 
C 363.982293 40.158779 363.072207 40.535749 362.401291 41.206665 
C 361.730374 41.877582 361.353404 42.787668 361.353404 43.736487 
C 361.353404 44.685307 361.730374 45.595393 362.401291 46.26631 
C 363.072207 46.937226 363.982293 47.314196 364.931113 47.314196 
z
" clip-path="url(#p33a34724ff)" style="fill: #6e7781; fill-opacity: 0.78; stroke: #ffffff; stroke-opacity: 0.78; stroke-width: 0.35"/>
    <path d="M 363.066513 47.142365 
C 363.969762 47.142365 364.836138 46.7835 365.474832 46.144806 
C 366.113525 45.506113 366.47239 44.639737 366.47239 43.736487 
C 366.47239 42.833238 366.113525 41.966862 365.474832 41.328169 
C 364.836138 40.689475 363.969762 40.33061 363.066513 40.33061 
C 362.163264 40.33061 361.296888 40.689475 360.658194 41.328169 
C 360.0195 41.966862 359.660636 42.833238 359.660636 43.736487 
C 359.660636 44.639737 360.0195 45.506113 360.658194 46.144806 
C 361.296888 46.7835 362.163264 47.142365 363.066513 47.142365 
z
" clip-path="url(#p33a34724ff)" style="fill: #6e7781; fill-opacity: 0.78; stroke: #ffffff; stroke-opacity: 0.78; stroke-width: 0.35"/>
    <path d="M 362.017675 46.961391 
C 362.872929 46.961391 363.69327 46.621594 364.298026 46.016838 
C 364.902782 45.412082 365.242578 44.591742 365.242578 43.736487 
C 365.242578 42.881233 364.902782 42.060893 364.298026 41.456137 
C 363.69327 40.851381 362.872929 40.511584 362.017675 40.511584 
C 361.162421 40.511584 360.34208 40.851381 359.737324 41.456137 
C 359.132568 42.060893 358.792772 42.881233 358.792772 43.736487 
C 358.792772 44.591742 359.132568 45.412082 359.737324 46.016838 
C 360.34208 46.621594 361.162421 46.961391 362.017675 46.961391 
z
" clip-path="url(#p33a34724ff)" style="fill: #6e7781; fill-opacity: 0.78; stroke: #ffffff; stroke-opacity: 0.78; stroke-width: 0.35"/>
    <path d="M 357.705787 46.769638 
C 358.510188 46.769638 359.281751 46.450046 359.850548 45.881249 
C 360.419346 45.312451 360.738937 44.540888 360.738937 43.736487 
C 360.738937 42.932087 360.419346 42.160524 359.850548 41.591726 
C 359.281751 41.022929 358.510188 40.703337 357.705787 40.703337 
C 356.901386 40.703337 356.129824 41.022929 355.561026 41.591726 
C 354.992229 42.160524 354.672637 42.932087 354.672637 43.736487 
C 354.672637 44.540888 354.992229 45.312451 355.561026 45.881249 
C 356.129824 46.450046 356.901386 46.769638 357.705787 46.769638 
z
" clip-path="url(#p33a34724ff)" style="fill: #6e7781; fill-opacity: 0.78; stroke: #ffffff; stroke-opacity: 0.78; stroke-width: 0.35"/>
    <path d="M 355.608112 46.564915 
C 356.35822 46.564915 357.077706 46.266894 357.608112 45.736487 
C 358.138518 45.206081 358.436539 44.486595 358.436539 43.736487 
C 358.436539 42.98638 358.138518 42.266894 357.608112 41.736487 
C 357.077706 41.206081 356.35822 40.90806 355.608112 40.90806 
C 354.858004 40.90806 354.138518 41.206081 353.608112 41.736487 
C 353.077706 42.266894 352.779685 42.98638 352.779685 43.736487 
C 352.779685 44.486595 353.077706 45.206081 353.608112 45.736487 
C 354.138518 46.266894 354.858004 46.564915 355.608112 46.564915 
z
" clip-path="url(#p33a34724ff)" style="fill: #6e7781; fill-opacity: 0.78; stroke: #ffffff; stroke-opacity: 0.78; stroke-width: 0.35"/>
    <path d="M 273.565705 263.672384 
C 274.715598 263.672384 275.818549 263.215527 276.631647 262.402429 
C 277.444744 261.589332 277.901602 260.486381 277.901602 259.336487 
C 277.901602 258.186594 277.444744 257.083643 276.631647 256.270546 
C 275.818549 255.457448 274.715598 255.000591 273.565705 255.000591 
C 272.415812 255.000591 271.31286 255.457448 270.499763 256.270546 
C 269.686666 257.083643 269.229808 258.186594 269.229808 259.336487 
C 269.229808 260.486381 269.686666 261.589332 270.499763 262.402429 
C 271.31286 263.215527 272.415812 263.672384 273.565705 263.672384 
z
" clip-path="url(#p33a34724ff)" style="fill: #6e7781; fill-opacity: 0.78; stroke: #ffffff; stroke-opacity: 0.78; stroke-width: 0.35"/>
    <path d="M 268.204979 263.531723 
C 269.317569 263.531723 270.384739 263.089686 271.171459 262.302967 
C 271.958178 261.516247 272.400215 260.449077 272.400215 259.336487 
C 272.400215 258.223898 271.958178 257.156728 271.171459 256.370008 
C 270.384739 255.583289 269.317569 255.141252 268.204979 255.141252 
C 267.09239 255.141252 266.02522 255.583289 265.2385 256.370008 
C 264.45178 257.156728 264.009744 258.223898 264.009744 259.336487 
C 264.009744 260.449077 264.45178 261.516247 265.2385 262.302967 
C 266.02522 263.089686 267.09239 263.531723 268.204979 263.531723 
z
" clip-path="url(#p33a34724ff)" style="fill: #6e7781; fill-opacity: 0.78; stroke: #ffffff; stroke-opacity: 0.78; stroke-width: 0.35"/>
    <path d="M 267.971904 263.386179 
C 269.045895 263.386179 270.076042 262.959478 270.835469 262.200052 
C 271.594895 261.440626 272.021596 260.410478 272.021596 259.336487 
C 272.021596 258.262497 271.594895 257.232349 270.835469 256.472923 
C 270.076042 255.713497 269.045895 255.286796 267.971904 255.286796 
C 266.897914 255.286796 265.867766 255.713497 265.10834 256.472923 
C 264.348914 257.232349 263.922213 258.262497 263.922213 259.336487 
C 263.922213 260.410478 264.348914 261.440626 265.10834 262.200052 
C 265.867766 262.959478 266.897914 263.386179 267.971904 263.386179 
z
" clip-path="url(#p33a34724ff)" style="fill: #6e7781; fill-opacity: 0.78; stroke: #ffffff; stroke-opacity: 0.78; stroke-width: 0.35"/>
    <path d="M 267.039604 263.235205 
C 268.073556 263.235205 269.0653 262.824412 269.796414 262.093297 
C 270.527529 261.362183 270.938322 260.37044 270.938322 259.336487 
C 270.938322 258.302535 270.527529 257.310792 269.796414 256.579678 
C 269.0653 255.848563 268.073556 255.43777 267.039604 255.43777 
C 266.005652 255.43777 265.013909 255.848563 264.282795 256.579678 
C 263.55168 257.310792 263.140887 258.302535 263.140887 259.336487 
C 263.140887 260.37044 263.55168 261.362183 264.282795 262.093297 
C 265.013909 262.824412 266.005652 263.235205 267.039604 263.235205 
z
" clip-path="url(#p33a34724ff)" style="fill: #6e7781; fill-opacity: 0.78; stroke: #ffffff; stroke-opacity: 0.78; stroke-width: 0.35"/>
    <path d="M 266.923067 263.078145 
C 267.915366 263.078145 268.867157 262.6839 269.568818 261.982239 
C 270.27048 261.280577 270.664724 260.328787 270.664724 259.336487 
C 270.664724 258.344188 270.27048 257.392398 269.568818 256.690736 
C 268.867157 255.989075 267.915366 255.59483 266.923067 255.59483 
C 265.930768 255.59483 264.978977 255.989075 264.277315 256.690736 
C 263.575654 257.392398 263.181409 258.344188 263.181409 259.336487 
C 263.181409 260.328787 263.575654 261.280577 264.277315 261.982239 
C 264.978977 262.6839 265.930768 263.078145 266.923067 263.078145 
z
" clip-path="url(#p33a34724ff)" style="fill: #6e7781; fill-opacity: 0.78; stroke: #ffffff; stroke-opacity: 0.78; stroke-width: 0.35"/>
    <path d="M 259.697741 262.914196 
C 260.646561 262.914196 261.556647 262.537226 262.227563 261.86631 
C 262.89848 261.195393 263.27545 260.285307 263.27545 259.336487 
C 263.27545 258.387668 262.89848 257.477582 262.227563 256.806665 
C 261.556647 256.135749 260.646561 255.758779 259.697741 255.758779 
C 258.748922 255.758779 257.838836 256.135749 257.167919 256.806665 
C 256.497002 257.477582 256.120032 258.387668 256.120032 259.336487 
C 256.120032 260.285307 256.497002 261.195393 257.167919 261.86631 
C 257.838836 262.537226 258.748922 262.914196 259.697741 262.914196 
z
" clip-path="url(#p33a34724ff)" style="fill: #6e7781; fill-opacity: 0.78; stroke: #ffffff; stroke-opacity: 0.78; stroke-width: 0.35"/>
    <path d="M 257.250453 262.742365 
C 258.153703 262.742365 259.020079 262.3835 259.658772 261.744806 
C 260.297466 261.106113 260.656331 260.239737 260.656331 259.336487 
C 260.656331 258.433238 260.297466 257.566862 259.658772 256.928169 
C 259.020079 256.289475 258.153703 255.93061 257.250453 255.93061 
C 256.347204 255.93061 255.480828 256.289475 254.842135 256.928169 
C 254.203441 257.566862 253.844576 258.433238 253.844576 259.336487 
C 253.844576 260.239737 254.203441 261.106113 254.842135 261.744806 
C 255.480828 262.3835 256.347204 262.742365 257.250453 262.742365 
z
" clip-path="url(#p33a34724ff)" style="fill: #6e7781; fill-opacity: 0.78; stroke: #ffffff; stroke-opacity: 0.78; stroke-width: 0.35"/>
    <path d="M 256.434691 262.561391 
C 257.289945 262.561391 258.110286 262.221594 258.715042 261.616838 
C 259.319798 261.012082 259.659594 260.191742 259.659594 259.336487 
C 259.659594 258.481233 259.319798 257.660893 258.715042 257.056137 
C 258.110286 256.451381 257.289945 256.111584 256.434691 256.111584 
C 255.579437 256.111584 254.759096 256.451381 254.15434 257.056137 
C 253.549584 257.660893 253.209788 258.481233 253.209788 259.336487 
C 253.209788 260.191742 253.549584 261.012082 254.15434 261.616838 
C 254.759096 262.221594 255.579437 262.561391 256.434691 262.561391 
z
" clip-path="url(#p33a34724ff)" style="fill: #6e7781; fill-opacity: 0.78; stroke: #ffffff; stroke-opacity: 0.78; stroke-width: 0.35"/>
    <path d="M 255.852003 262.369638 
C 256.656404 262.369638 257.427967 262.050046 257.996764 261.481249 
C 258.565562 260.912451 258.885153 260.140888 258.885153 259.336487 
C 258.885153 258.532087 258.565562 257.760524 257.996764 257.191726 
C 257.427967 256.622929 256.656404 256.303337 255.852003 256.303337 
C 255.047602 256.303337 254.27604 256.622929 253.707242 257.191726 
C 253.138445 257.760524 252.818853 258.532087 252.818853 259.336487 
C 252.818853 260.140888 253.138445 260.912451 253.707242 261.481249 
C 254.27604 262.050046 255.047602 262.369638 255.852003 262.369638 
z
" clip-path="url(#p33a34724ff)" style="fill: #6e7781; fill-opacity: 0.78; stroke: #ffffff; stroke-opacity: 0.78; stroke-width: 0.35"/>
    <path d="M 254.919703 262.164915 
C 255.669811 262.164915 256.389297 261.866894 256.919703 261.336487 
C 257.450109 260.806081 257.74813 260.086595 257.74813 259.336487 
C 257.74813 258.58638 257.450109 257.866894 256.919703 257.336487 
C 256.389297 256.806081 255.669811 256.50806 254.919703 256.50806 
C 254.169596 256.50806 253.450109 256.806081 252.919703 257.336487 
C 252.389297 257.866894 252.091276 258.58638 252.091276 259.336487 
C 252.091276 260.086595 252.389297 260.806081 252.919703 261.336487 
C 253.450109 261.866894 254.169596 262.164915 254.919703 262.164915 
z
" clip-path="url(#p33a34724ff)" style="fill: #6e7781; fill-opacity: 0.78; stroke: #ffffff; stroke-opacity: 0.78; stroke-width: 0.35"/>
    <path d="M 367.261863 109.672384 
C 368.411756 109.672384 369.514708 109.215527 370.327805 108.402429 
C 371.140902 107.589332 371.59776 106.486381 371.59776 105.336487 
C 371.59776 104.186594 371.140902 103.083643 370.327805 102.270546 
C 369.514708 101.457448 368.411756 101.000591 367.261863 101.000591 
C 366.11197 101.000591 365.009019 101.457448 364.195921 102.270546 
C 363.382824 103.083643 362.925966 104.186594 362.925966 105.336487 
C 362.925966 106.486381 363.382824 107.589332 364.195921 108.402429 
C 365.009019 109.215527 366.11197 109.672384 367.261863 109.672384 
z
" clip-path="url(#p33a34724ff)" style="fill: #6e7781; fill-opacity: 0.78; stroke: #ffffff; stroke-opacity: 0.78; stroke-width: 0.35"/>
    <path d="M 362.600363 109.531723 
C 363.712952 109.531723 364.780123 109.089686 365.566842 108.302967 
C 366.353562 107.516247 366.795598 106.449077 366.795598 105.336487 
C 366.795598 104.223898 366.353562 103.156728 365.566842 102.370008 
C 364.780123 101.583289 363.712952 101.141252 362.600363 101.141252 
C 361.487773 101.141252 360.420603 101.583289 359.633883 102.370008 
C 358.847164 103.156728 358.405127 104.223898 358.405127 105.336487 
C 358.405127 106.449077 358.847164 107.516247 359.633883 108.302967 
C 360.420603 109.089686 361.487773 109.531723 362.600363 109.531723 
z
" clip-path="url(#p33a34724ff)" style="fill: #6e7781; fill-opacity: 0.78; stroke: #ffffff; stroke-opacity: 0.78; stroke-width: 0.35"/>
    <path d="M 359.45385 109.386179 
C 360.527841 109.386179 361.557988 108.959478 362.317414 108.200052 
C 363.07684 107.440626 363.503541 106.410478 363.503541 105.336487 
C 363.503541 104.262497 363.07684 103.232349 362.317414 102.472923 
C 361.557988 101.713497 360.527841 101.286796 359.45385 101.286796 
C 358.379859 101.286796 357.349712 101.713497 356.590286 102.472923 
C 355.83086 103.232349 355.404159 104.262497 355.404159 105.336487 
C 355.404159 106.410478 355.83086 107.440626 356.590286 108.200052 
C 357.349712 108.959478 358.379859 109.386179 359.45385 109.386179 
z
" clip-path="url(#p33a34724ff)" style="fill: #6e7781; fill-opacity: 0.78; stroke: #ffffff; stroke-opacity: 0.78; stroke-width: 0.35"/>
    <path d="M 353.277362 109.235205 
C 354.311314 109.235205 355.303057 108.824412 356.034172 108.093297 
C 356.765286 107.362183 357.17608 106.37044 357.17608 105.336487 
C 357.17608 104.302535 356.765286 103.310792 356.034172 102.579678 
C 355.303057 101.848563 354.311314 101.43777 353.277362 101.43777 
C 352.24341 101.43777 351.251667 101.848563 350.520552 102.579678 
C 349.789438 103.310792 349.378644 104.302535 349.378644 105.336487 
C 349.378644 106.37044 349.789438 107.362183 350.520552 108.093297 
C 351.251667 108.824412 352.24341 109.235205 353.277362 109.235205 
z
" clip-path="url(#p33a34724ff)" style="fill: #6e7781; fill-opacity: 0.78; stroke: #ffffff; stroke-opacity: 0.78; stroke-width: 0.35"/>
    <path d="M 351.529299 109.078145 
C 352.521598 109.078145 353.473389 108.6839 354.175051 107.982239 
C 354.876712 107.280577 355.270957 106.328787 355.270957 105.336487 
C 355.270957 104.344188 354.876712 103.392398 354.175051 102.690736 
C 353.473389 101.989075 352.521598 101.59483 351.529299 101.59483 
C 350.537 101.59483 349.585209 101.989075 348.883548 102.690736 
C 348.181886 103.392398 347.787642 104.344188 347.787642 105.336487 
C 347.787642 106.328787 348.181886 107.280577 348.883548 107.982239 
C 349.585209 108.6839 350.537 109.078145 351.529299 109.078145 
z
" clip-path="url(#p33a34724ff)" style="fill: #6e7781; fill-opacity: 0.78; stroke: #ffffff; stroke-opacity: 0.78; stroke-width: 0.35"/>
    <path d="M 351.412762 108.914196 
C 352.361581 108.914196 353.271667 108.537226 353.942584 107.86631 
C 354.613501 107.195393 354.990471 106.285307 354.990471 105.336487 
C 354.990471 104.387668 354.613501 103.477582 353.942584 102.806665 
C 353.271667 102.135749 352.361581 101.758779 351.412762 101.758779 
C 350.463942 101.758779 349.553856 102.135749 348.88294 102.806665 
C 348.212023 103.477582 347.835053 104.387668 347.835053 105.336487 
C 347.835053 106.285307 348.212023 107.195393 348.88294 107.86631 
C 349.553856 108.537226 350.463942 108.914196 351.412762 108.914196 
z
" clip-path="url(#p33a34724ff)" style="fill: #6e7781; fill-opacity: 0.78; stroke: #ffffff; stroke-opacity: 0.78; stroke-width: 0.35"/>
    <path d="M 348.266249 108.742365 
C 349.169498 108.742365 350.035874 108.3835 350.674568 107.744806 
C 351.313262 107.106113 351.672126 106.239737 351.672126 105.336487 
C 351.672126 104.433238 351.313262 103.566862 350.674568 102.928169 
C 350.035874 102.289475 349.169498 101.93061 348.266249 101.93061 
C 347.363 101.93061 346.496624 102.289475 345.85793 102.928169 
C 345.219236 103.566862 344.860372 104.433238 344.860372 105.336487 
C 344.860372 106.239737 345.219236 107.106113 345.85793 107.744806 
C 346.496624 108.3835 347.363 108.742365 348.266249 108.742365 
z
" clip-path="url(#p33a34724ff)" style="fill: #6e7781; fill-opacity: 0.78; stroke: #ffffff; stroke-opacity: 0.78; stroke-width: 0.35"/>
    <path d="M 343.721286 108.561391 
C 344.57654 108.561391 345.396881 108.221594 346.001637 107.616838 
C 346.606393 107.012082 346.946189 106.191742 346.946189 105.336487 
C 346.946189 104.481233 346.606393 103.660893 346.001637 103.056137 
C 345.396881 102.451381 344.57654 102.111584 343.721286 102.111584 
C 342.866032 102.111584 342.045691 102.451381 341.440935 103.056137 
C 340.836179 103.660893 340.496383 104.481233 340.496383 105.336487 
C 340.496383 106.191742 340.836179 107.012082 341.440935 107.616838 
C 342.045691 108.221594 342.866032 108.561391 343.721286 108.561391 
z
" clip-path="url(#p33a34724ff)" style="fill: #6e7781; fill-opacity: 0.78; stroke: #ffffff; stroke-opacity: 0.78; stroke-width: 0.35"/>
    <path d="M 343.255136 108.369638 
C 344.059537 108.369638 344.8311 108.050046 345.399897 107.481249 
C 345.968694 106.912451 346.288286 106.140888 346.288286 105.336487 
C 346.288286 104.532087 345.968694 103.760524 345.399897 103.191726 
C 344.8311 102.622929 344.059537 102.303337 343.255136 102.303337 
C 342.450735 102.303337 341.679172 102.622929 341.110375 103.191726 
C 340.541578 103.760524 340.221986 104.532087 340.221986 105.336487 
C 340.221986 106.140888 340.541578 106.912451 341.110375 107.481249 
C 341.679172 108.050046 342.450735 108.369638 343.255136 108.369638 
z
" clip-path="url(#p33a34724ff)" style="fill: #6e7781; fill-opacity: 0.78; stroke: #ffffff; stroke-opacity: 0.78; stroke-width: 0.35"/>
    <path d="M 339.059786 108.164915 
C 339.809893 108.164915 340.529379 107.866894 341.059786 107.336487 
C 341.590192 106.806081 341.888213 106.086595 341.888213 105.336487 
C 341.888213 104.58638 341.590192 103.866894 341.059786 103.336487 
C 340.529379 102.806081 339.809893 102.50806 339.059786 102.50806 
C 338.309678 102.50806 337.590192 102.806081 337.059786 103.336487 
C 336.529379 103.866894 336.231359 104.58638 336.231359 105.336487 
C 336.231359 106.086595 336.529379 106.806081 337.059786 107.336487 
C 337.590192 107.866894 338.309678 108.164915 339.059786 108.164915 
z
" clip-path="url(#p33a34724ff)" style="fill: #6e7781; fill-opacity: 0.78; stroke: #ffffff; stroke-opacity: 0.78; stroke-width: 0.35"/>
    <path d="M 374.953339 78.872384 
C 376.103232 78.872384 377.206183 78.415527 378.019281 77.602429 
C 378.832378 76.789332 379.289236 75.686381 379.289236 74.536487 
C 379.289236 73.386594 378.832378 72.283643 378.019281 71.470546 
C 377.206183 70.657448 376.103232 70.200591 374.953339 70.200591 
C 373.803446 70.200591 372.700494 70.657448 371.887397 71.470546 
C 371.0743 72.283643 370.617442 73.386594 370.617442 74.536487 
C 370.617442 75.686381 371.0743 76.789332 371.887397 77.602429 
C 372.700494 78.415527 373.803446 78.872384 374.953339 78.872384 
z
" clip-path="url(#p33a34724ff)" style="fill: #6e7781; fill-opacity: 0.78; stroke: #ffffff; stroke-opacity: 0.78; stroke-width: 0.35"/>
    <path d="M 357.006562 78.731723 
C 358.119152 78.731723 359.186322 78.289686 359.973042 77.502967 
C 360.759761 76.716247 361.201798 75.649077 361.201798 74.536487 
C 361.201798 73.423898 360.759761 72.356728 359.973042 71.570008 
C 359.186322 70.783289 358.119152 70.341252 357.006562 70.341252 
C 355.893973 70.341252 354.826802 70.783289 354.040083 71.570008 
C 353.253363 72.356728 352.811327 73.423898 352.811327 74.536487 
C 352.811327 75.649077 353.253363 76.716247 354.040083 77.502967 
C 354.826802 78.289686 355.893973 78.731723 357.006562 78.731723 
z
" clip-path="url(#p33a34724ff)" style="fill: #6e7781; fill-opacity: 0.78; stroke: #ffffff; stroke-opacity: 0.78; stroke-width: 0.35"/>
    <path d="M 356.65695 78.586179 
C 357.73094 78.586179 358.761088 78.159478 359.520514 77.400052 
C 360.27994 76.640626 360.706641 75.610478 360.706641 74.536487 
C 360.706641 73.462497 360.27994 72.432349 359.520514 71.672923 
C 358.761088 70.913497 357.73094 70.486796 356.65695 70.486796 
C 355.582959 70.486796 354.552812 70.913497 353.793385 71.672923 
C 353.033959 72.432349 352.607258 73.462497 352.607258 74.536487 
C 352.607258 75.610478 353.033959 76.640626 353.793385 77.400052 
C 354.552812 78.159478 355.582959 78.586179 356.65695 78.586179 
z
" clip-path="url(#p33a34724ff)" style="fill: #6e7781; fill-opacity: 0.78; stroke: #ffffff; stroke-opacity: 0.78; stroke-width: 0.35"/>
    <path d="M 355.141962 78.435205 
C 356.175914 78.435205 357.167657 78.024412 357.898772 77.293297 
C 358.629886 76.562183 359.04068 75.57044 359.04068 74.536487 
C 359.04068 73.502535 358.629886 72.510792 357.898772 71.779678 
C 357.167657 71.048563 356.175914 70.63777 355.141962 70.63777 
C 354.10801 70.63777 353.116267 71.048563 352.385152 71.779678 
C 351.654038 72.510792 351.243244 73.502535 351.243244 74.536487 
C 351.243244 75.57044 351.654038 76.562183 352.385152 77.293297 
C 353.116267 78.024412 354.10801 78.435205 355.141962 78.435205 
z
" clip-path="url(#p33a34724ff)" style="fill: #6e7781; fill-opacity: 0.78; stroke: #ffffff; stroke-opacity: 0.78; stroke-width: 0.35"/>
    <path d="M 353.393899 78.278145 
C 354.386199 78.278145 355.337989 77.8839 356.039651 77.182239 
C 356.741312 76.480577 357.135557 75.528787 357.135557 74.536487 
C 357.135557 73.544188 356.741312 72.592398 356.039651 71.890736 
C 355.337989 71.189075 354.386199 70.79483 353.393899 70.79483 
C 352.4016 70.79483 351.44981 71.189075 350.748148 71.890736 
C 350.046487 72.592398 349.652242 73.544188 349.652242 74.536487 
C 349.652242 75.528787 350.046487 76.480577 350.748148 77.182239 
C 351.44981 77.8839 352.4016 78.278145 353.393899 78.278145 
z
" clip-path="url(#p33a34724ff)" style="fill: #6e7781; fill-opacity: 0.78; stroke: #ffffff; stroke-opacity: 0.78; stroke-width: 0.35"/>
    <path d="M 353.160824 78.114196 
C 354.109644 78.114196 355.01973 77.737226 355.690647 77.06631 
C 356.361563 76.395393 356.738533 75.485307 356.738533 74.536487 
C 356.738533 73.587668 356.361563 72.677582 355.690647 72.006665 
C 355.01973 71.335749 354.109644 70.958779 353.160824 70.958779 
C 352.212005 70.958779 351.301919 71.335749 350.631002 72.006665 
C 349.960086 72.677582 349.583116 73.587668 349.583116 74.536487 
C 349.583116 75.485307 349.960086 76.395393 350.631002 77.06631 
C 351.301919 77.737226 352.212005 78.114196 353.160824 78.114196 
z
" clip-path="url(#p33a34724ff)" style="fill: #6e7781; fill-opacity: 0.78; stroke: #ffffff; stroke-opacity: 0.78; stroke-width: 0.35"/>
    <path d="M 352.694674 77.942365 
C 353.597924 77.942365 354.4643 77.5835 355.102993 76.944806 
C 355.741687 76.306113 356.100552 75.439737 356.100552 74.536487 
C 356.100552 73.633238 355.741687 72.766862 355.102993 72.128169 
C 354.4643 71.489475 353.597924 71.13061 352.694674 71.13061 
C 351.791425 71.13061 350.925049 71.489475 350.286355 72.128169 
C 349.647662 72.766862 349.288797 73.633238 349.288797 74.536487 
C 349.288797 75.439737 349.647662 76.306113 350.286355 76.944806 
C 350.925049 77.5835 351.791425 77.942365 352.694674 77.942365 
z
" clip-path="url(#p33a34724ff)" style="fill: #6e7781; fill-opacity: 0.78; stroke: #ffffff; stroke-opacity: 0.78; stroke-width: 0.35"/>
    <path d="M 348.732399 77.761391 
C 349.587653 77.761391 350.407994 77.421594 351.01275 76.816838 
C 351.617506 76.212082 351.957302 75.391742 351.957302 74.536487 
C 351.957302 73.681233 351.617506 72.860893 351.01275 72.256137 
C 350.407994 71.651381 349.587653 71.311584 348.732399 71.311584 
C 347.877145 71.311584 347.056804 71.651381 346.452048 72.256137 
C 345.847292 72.860893 345.507496 73.681233 345.507496 74.536487 
C 345.507496 75.391742 345.847292 76.212082 346.452048 76.816838 
C 347.056804 77.421594 347.877145 77.761391 348.732399 77.761391 
z
" clip-path="url(#p33a34724ff)" style="fill: #6e7781; fill-opacity: 0.78; stroke: #ffffff; stroke-opacity: 0.78; stroke-width: 0.35"/>
    <path d="M 342.089761 77.569638 
C 342.894162 77.569638 343.665725 77.250046 344.234522 76.681249 
C 344.803319 76.112451 345.122911 75.340888 345.122911 74.536487 
C 345.122911 73.732087 344.803319 72.960524 344.234522 72.391726 
C 343.665725 71.822929 342.894162 71.503337 342.089761 71.503337 
C 341.28536 71.503337 340.513797 71.822929 339.945 72.391726 
C 339.376203 72.960524 339.056611 73.732087 339.056611 74.536487 
C 339.056611 75.340888 339.376203 76.112451 339.945 76.681249 
C 340.513797 77.250046 341.28536 77.569638 342.089761 77.569638 
z
" clip-path="url(#p33a34724ff)" style="fill: #6e7781; fill-opacity: 0.78; stroke: #ffffff; stroke-opacity: 0.78; stroke-width: 0.35"/>
    <path d="M 340.108623 77.364915 
C 340.858731 77.364915 341.578217 77.066894 342.108623 76.536487 
C 342.639029 76.006081 342.93705 75.286595 342.93705 74.536487 
C 342.93705 73.78638 342.639029 73.066894 342.108623 72.536487 
C 341.578217 72.006081 340.858731 71.70806 340.108623 71.70806 
C 339.358516 71.70806 338.639029 72.006081 338.108623 72.536487 
C 337.578217 73.066894 337.280196 73.78638 337.280196 74.536487 
C 337.280196 75.286595 337.578217 76.006081 338.108623 76.536487 
C 338.639029 77.066894 339.358516 77.364915 340.108623 77.364915 
z
" clip-path="url(#p33a34724ff)" style="fill: #6e7781; fill-opacity: 0.78; stroke: #ffffff; stroke-opacity: 0.78; stroke-width: 0.35"/>
   </g>
   <g id="patch_3">
    <path d="M 77.2 334.796488 
L 77.2 29.876487 
" style="fill: none; stroke: #222222; stroke-width: 0.9; stroke-linejoin: miter; stroke-linecap: square"/>
   </g>
   <g id="patch_4">
    <path d="M 77.2 334.796487 
L 501.28 334.796487 
" style="fill: none; stroke: #222222; stroke-width: 0.9; stroke-linejoin: miter; stroke-linecap: square"/>
   </g>
   <g id="text_20">
    <text style="font-size: 6.2px; font-family: 'Microsoft YaHei'; text-anchor: start" x="355.375037" y="137.825987" transform="rotate(-0 355.375037 137.825987)">electromagnetic</text>
   </g>
   <g id="text_21">
    <text style="font-size: 6.2px; font-family: 'Microsoft YaHei'; text-anchor: start" x="342.555911" y="199.443909" transform="rotate(-0 342.555911 199.443909)">halifax</text>
   </g>
   <g id="text_22">
    <text style="font-size: 6.2px; font-family: 'Microsoft YaHei'; text-anchor: start" x="261.329266" y="291.843909" transform="rotate(-0 261.329266 291.843909)">sulphur</text>
   </g>
   <g id="text_23">
    <text style="font-size: 6.2px; font-family: 'Microsoft YaHei'; text-anchor: start" x="342.555911" y="168.643909" transform="rotate(-0 342.555911 168.643909)">明慧</text>
   </g>
   <g id="text_24">
    <text style="font-size: 6.2px; font-family: 'Microsoft YaHei'; text-anchor: start" x="175.907271" y="322.643909" transform="rotate(-0 175.907271 322.643909)">格局</text>
   </g>
   <g id="text_25">
    <text style="font-size: 6.2px; font-family: 'Microsoft YaHei'; text-anchor: start" x="305.496983" y="230.243909" transform="rotate(-0 305.496983 230.243909)">bottlenecks</text>
   </g>
   <g id="text_26">
    <text style="font-size: 6.2px; font-family: 'Microsoft YaHei'; text-anchor: start" x="392.20089" y="45.425987" transform="rotate(-0 392.20089 45.425987)">weedy</text>
   </g>
   <g id="text_27">
    <text style="font-size: 6.2px; font-family: 'Microsoft YaHei'; text-anchor: start" x="282.888706" y="261.043909" transform="rotate(-0 282.888706 261.043909)">ppcps</text>
   </g>
   <g id="text_28">
    <text style="font-size: 6.2px; font-family: 'Microsoft YaHei'; text-anchor: start" x="376.584864" y="107.043909" transform="rotate(-0 376.584864 107.043909)">replenish</text>
   </g>
   <g id="text_29">
    <text style="font-size: 6.2px; font-family: 'Microsoft YaHei'; text-anchor: start" x="384.27634" y="76.243909" transform="rotate(-0 384.27634 76.243909)">appeal</text>
   </g>
   <g id="text_30">
    <text style="font-weight: 700; font-size: 10px; font-family: 'Microsoft YaHei'; text-anchor: start" x="43.2736" y="15.19375" transform="rotate(-0 43.2736 15.19375)">f</text>
   </g>
   <g id="legend_1">
    <g id="line2d_27">
     <path d="M 373.763125 325.804925 
L 379.763125 325.804925 
L 385.763125 325.804925 
" style="fill: none; stroke: #000000; stroke-opacity: 0; stroke-width: 1.5; stroke-linecap: square"/>
     <defs>
      <path id="m70bb63423e" d="M 0 2.75 
C 0.729309 2.75 1.428845 2.460243 1.944544 1.944544 
C 2.460243 1.428845 2.75 0.729309 2.75 0 
C 2.75 -0.729309 2.460243 -1.428845 1.944544 -1.944544 
C 1.428845 -2.460243 0.729309 -2.75 0 -2.75 
C -0.729309 -2.75 -1.428845 -2.460243 -1.944544 -1.944544 
C -2.460243 -1.428845 -2.75 -0.729309 -2.75 0 
C -2.75 0.729309 -2.460243 1.428845 -1.944544 1.944544 
C -1.428845 2.460243 -0.729309 2.75 0 2.75 
z
" style="stroke: #ffffff"/>
     </defs>
     <g>
      <use xlink:href="#m70bb63423e" x="379.763125" y="325.804925" style="fill: #f28e2b; stroke: #ffffff"/>
     </g>
    </g>
    <g id="text_31">
     <text style="font-size: 6px; font-family: 'Microsoft YaHei'; text-anchor: start" x="390.563125" y="327.904925" transform="rotate(-0 390.563125 327.904925)">impact process</text>
    </g>
    <g id="line2d_28">
     <path d="M 445.691875 325.804925 
L 451.691875 325.804925 
L 457.691875 325.804925 
" style="fill: none; stroke: #000000; stroke-opacity: 0; stroke-width: 1.5; stroke-linecap: square"/>
     <defs>
      <path id="m5c1c64296b" d="M 0 2.75 
C 0.729309 2.75 1.428845 2.460243 1.944544 1.944544 
C 2.460243 1.428845 2.75 0.729309 2.75 0 
C 2.75 -0.729309 2.460243 -1.428845 1.944544 -1.944544 
C 1.428845 -2.460243 0.729309 -2.75 0 -2.75 
C -0.729309 -2.75 -1.428845 -2.460243 -1.944544 -1.944544 
C -2.460243 -1.428845 -2.75 -0.729309 -2.75 0 
C -2.75 0.729309 -2.460243 1.428845 -1.944544 1.944544 
C -1.428845 2.460243 -0.729309 2.75 0 2.75 
z
" style="stroke: #ffffff"/>
     </defs>
     <g>
      <use xlink:href="#m5c1c64296b" x="451.691875" y="325.804925" style="fill: #6e7781; stroke: #ffffff"/>
     </g>
    </g>
    <g id="text_32">
     <text style="font-size: 6px; font-family: 'Microsoft YaHei'; text-anchor: start" x="462.491875" y="327.904925" transform="rotate(-0 462.491875 327.904925)">unclassified</text>
    </g>
   </g>
  </g>
 </g>
 <defs>
  <clipPath id="p33a34724ff">
   <rect x="77.2" y="29.876487" width="424.08" height="304.92"/>
  </clipPath>
 </defs>
</svg>
